<svg width="25" height="25" viewBox="0 0 25 25" fill="none" xmlns="http://www.w3.org/2000/svg">
<path d="M10.8643 3.2666L11.9482 2.18262C12.4072 1.72363 13.1494 1.72363 13.6035 2.18262L23.0957 11.6699C23.5547 12.1289 23.5547 12.8711 23.0957 13.3252L13.6035 22.8174C13.1445 23.2764 12.4023 23.2764 11.9482 22.8174L10.8643 21.7334C10.4004 21.2695 10.4102 20.5127 10.8838 20.0586L16.7676 14.4531H2.73438C2.08496 14.4531 1.5625 13.9307 1.5625 13.2813V11.7188C1.5625 11.0693 2.08496 10.5469 2.73438 10.5469H16.7676L10.8838 4.94141C10.4053 4.4873 10.3955 3.73047 10.8643 3.2666Z" fill="white"/>
</svg>
