<svg width="25" height="25" viewBox="0 0 25 25" fill="none" xmlns="http://www.w3.org/2000/svg">
<path d="M14.1362 21.7334L13.0522 22.8174C12.5933 23.2764 11.8511 23.2764 11.397 22.8174L1.90479 13.3301C1.4458 12.8711 1.4458 12.1289 1.90479 11.6748L11.397 2.18262C11.856 1.72363 12.5981 1.72363 13.0522 2.18262L14.1362 3.2666C14.6001 3.73047 14.5903 4.4873 14.1167 4.94141L8.23291 10.5469H22.2661C22.9155 10.5469 23.438 11.0693 23.438 11.7188V13.2813C23.438 13.9307 22.9155 14.4531 22.2661 14.4531H8.23291L14.1167 20.0586C14.5952 20.5127 14.605 21.2695 14.1362 21.7334Z" fill="white"/>
</svg>
