<svg width="80" height="80" viewBox="0 0 80 80" fill="none" xmlns="http://www.w3.org/2000/svg">
<g clip-path="url(#clip0_204_14788)">
<path d="M78.1238 27.5H68.7692L66.1692 21C63.4973 14.3172 57.1207 10 49.9223 10H30.0785C22.8817 10 16.5035 14.3172 13.8301 21L11.2301 27.5H1.87697C0.656658 27.5 -0.238654 28.6469 0.0582208 29.8297L0.995721 33.5797C1.20353 34.4141 1.95353 35 2.81447 35H5.95041C3.85197 36.8328 2.50041 39.4969 2.50041 42.5V50C2.50041 52.5188 3.46291 54.7922 5.00041 56.5516V65C5.00041 67.7609 7.23947 70 10.0004 70H15.0004C17.7613 70 20.0004 67.7609 20.0004 65V60H60.0004V65C60.0004 67.7609 62.2395 70 65.0004 70H70.0004C72.7613 70 75.0004 67.7609 75.0004 65V56.5516C76.5379 54.7937 77.5004 52.5203 77.5004 50V42.5C77.5004 39.4969 76.1488 36.8328 74.052 35H77.1879C78.0488 35 78.7988 34.4141 79.0067 33.5797L79.9442 29.8297C80.2395 28.6469 79.3442 27.5 78.1238 27.5ZM23.1145 24.7141C24.2535 21.8672 27.0113 20 30.0785 20H49.9223C52.9895 20 55.7473 21.8672 56.8863 24.7141L60.0004 32.5H20.0004L23.1145 24.7141ZM15.0004 49.9687C12.0004 49.9687 10.0004 47.975 10.0004 44.9844C10.0004 41.9937 12.0004 40 15.0004 40C18.0004 40 22.5004 44.4859 22.5004 47.4766C22.5004 50.4672 18.0004 49.9687 15.0004 49.9687ZM65.0004 49.9687C62.0004 49.9687 57.5004 50.4672 57.5004 47.4766C57.5004 44.4859 62.0004 40 65.0004 40C68.0004 40 70.0004 41.9937 70.0004 44.9844C70.0004 47.975 68.0004 49.9687 65.0004 49.9687Z" fill="#1B1A55"/>
</g>
<defs>
<clipPath id="clip0_204_14788">
<rect width="80" height="80" fill="white"/>
</clipPath>
</defs>
</svg>
