<svg width="45" height="46" viewBox="0 0 45 46" fill="none" xmlns="http://www.w3.org/2000/svg">
<g clip-path="url(#clip0_204_17532)">
<path d="M45 23C45 10.5723 34.9277 0.5 22.5 0.5C10.0723 0.5 0 10.5723 0 23C0 33.5469 7.26855 42.4062 17.0684 44.8408V29.873H12.4277V23H17.0684V20.0381C17.0684 12.3828 20.5313 8.83203 28.0547 8.83203C29.4785 8.83203 31.9395 9.11328 32.9502 9.39453V15.6172C32.4229 15.5645 31.5 15.5293 30.3486 15.5293C26.6572 15.5293 25.2334 16.9268 25.2334 20.5566V23H32.5811L31.3154 29.873H25.2246V45.333C36.3691 43.9883 45 34.5049 45 23Z" fill="white"/>
</g>
<defs>
<clipPath id="clip0_204_17532">
<rect width="45" height="45" fill="white" transform="translate(0 0.5)"/>
</clipPath>
</defs>
</svg>
