<svg width="100" height="101" viewBox="0 0 100 101" fill="none" xmlns="http://www.w3.org/2000/svg">
<path d="M58.3337 8.75H25.0003C22.7902 8.75 20.6706 9.62797 19.1078 11.1908C17.545 12.7536 16.667 14.8732 16.667 17.0833V83.75C16.667 85.9601 17.545 88.0798 19.1078 89.6426C20.6706 91.2054 22.7902 92.0833 25.0003 92.0833H75.0003C77.2105 92.0833 79.3301 91.2054 80.8929 89.6426C82.4557 88.0798 83.3337 85.9601 83.3337 83.75V33.75L58.3337 8.75Z" stroke="black" stroke-width="2" stroke-linecap="round" stroke-linejoin="round"/>
<path d="M58.333 8.75V33.75H83.333" stroke="black" stroke-width="2" stroke-linecap="round" stroke-linejoin="round"/>
<path d="M66.6663 54.583H33.333" stroke="black" stroke-width="2" stroke-linecap="round" stroke-linejoin="round"/>
<path d="M66.6663 71.25H33.333" stroke="black" stroke-width="2" stroke-linecap="round" stroke-linejoin="round"/>
<path d="M41.6663 37.9165H37.4997H33.333" stroke="black" stroke-width="2" stroke-linecap="round" stroke-linejoin="round"/>
</svg>
