<svg width="155" height="160" viewBox="0 0 155 160" fill="none" xmlns="http://www.w3.org/2000/svg">
<path d="M51.31 54.77C51.62 54.97 51.97 55.24 52.3 55.48C52.64 55.74 52.96 55.9 53.32 56.21C54.76 57.22 56.34 58.55 58.09 60.4C60.89 63.29 64.03 67.55 67.48 71.95C67.22 72.1 66.95 72.25 66.69 72.44C66.01 73.07 65.29 73.92 64.57 74.96C63.91 75.99 63.4 77.18 62.82 78.49C60.85 83.81 60.78 91.05 62.07 97.68C63.41 104.34 65.97 110.51 68.46 114.66C69.71 116.74 70.91 118.32 71.78 119.35C72.69 120.31 73.22 120.86 73.22 120.86C71.34 117.64 70.13 114.07 69.16 110.67C68.23 107.24 67.6 103.92 67.12 100.78C67.03 100.15 66.96 99.54 66.89 98.93C68.41 101.61 70.56 104.38 73.05 106.85C76.41 110.18 80.39 112.82 83.58 113.96C84.37 114.26 85.09 114.51 85.75 114.63C86.4 114.78 86.95 114.92 87.42 114.94C88.32 115.01 88.85 115.05 88.85 115.05C86.55 114.05 84.6 112.53 82.87 110.92C81.15 109.3 79.6 107.62 78.25 105.92C75.51 102.56 73.35 99.33 71.57 96.67C68.97 92.65 67.16 89.85 66.41 88.69C66.45 87.21 66.54 85.8 66.68 84.5C67.16 80.08 68.2 76.64 69.06 74.67C69.11 74.5 69.19 74.33 69.27 74.17C69.59 74.57 69.91 74.97 70.24 75.37C72.53 78.12 74.94 80.83 77.58 82.98C78.86 84.08 80.27 84.97 81.61 85.68C82.87 86.28 84.12 86.69 85.29 86.84C84.13 88.99 83.37 90.63 83.37 90.63C84.59 89.34 85.71 88.1 86.73 86.91C86.97 86.9 87.21 86.88 87.43 86.88C87.98 86.75 88.5 86.69 88.96 86.52C89.42 86.33 89.84 86.17 90.21 86C90.57 85.78 90.89 85.58 91.19 85.4C91.77 85.06 92.16 84.63 92.45 84.42C92.73 84.19 92.87 84.06 92.87 84.06C91.23 84.94 89.57 85.43 88.03 85.39C90.76 82.12 92.65 79.47 93.68 77.95C94.28 77.06 94.6 76.54 94.6 76.54C93.94 76.26 93.18 76.48 92.38 77.04C90.35 78.44 88.03 81.99 86.25 85.11C85.22 84.82 84.24 84.32 83.31 83.65C80.56 81.65 78.34 78.72 76.33 75.96C72.34 70.33 69 64.95 65.45 60.91C63.69 58.88 61.89 57.17 60.08 55.87C58.3 54.55 56.42 53.75 54.85 53.35C54.45 53.26 54.07 53.18 53.72 53.1C53.34 53.08 52.95 53.07 52.62 53.04C52.28 53.03 51.97 53.01 51.69 53C51.42 53 51.26 53.04 51.07 53.06C50.36 53.15 50 53.2 50 53.2C50.25 53.81 50.69 54.33 51.31 54.77Z" fill="#F1F1F1"/>
<path d="M68.96 54.5361C68.96 57.5861 71.42 60.0561 74.45 60.0561C77.48 60.0561 79.94 57.5861 79.94 54.5361C79.94 51.4861 77.48 49.0161 74.45 49.0161C71.42 49.0261 68.96 51.4961 68.96 54.5361Z" fill="#F1F1F1"/>
<path d="M72.4097 33.316C72.4797 33.326 72.5297 33.306 72.5697 33.266C72.5997 33.296 72.6197 33.146 72.6297 33.126V33.106L72.6097 33.086C72.5997 33.066 72.5897 33.046 72.5597 33.026C72.5297 32.986 72.4597 32.976 72.3997 32.986C72.3197 32.996 72.2397 33.056 72.1797 33.146C72.2397 33.236 72.3197 33.306 72.4097 33.316Z" fill="#F1F1F1"/>
<path d="M68.0901 33.2959L68.1001 33.4459C68.1001 33.5459 68.1201 33.6459 68.1401 33.7459C68.1701 33.9459 68.2301 34.1359 68.3001 34.3159C68.4401 34.6859 68.6501 35.0259 68.9101 35.3059C69.4201 35.8659 70.1101 36.2059 70.7701 36.2759C71.1101 36.3159 71.3801 36.2859 71.7401 36.2259C71.9501 36.2059 71.9801 36.1459 72.0701 36.0959C72.2801 36.0459 72.3401 35.9859 72.4701 35.9259C72.9201 35.6659 73.2201 35.3359 73.4201 35.0359C73.8101 34.4259 73.8801 33.9359 73.9301 33.6259C73.9601 33.3059 73.9601 33.1359 73.9601 33.1359C73.9501 33.1359 73.9801 33.3259 73.8601 33.6059C73.7601 33.8859 73.3901 34.2459 72.9001 34.2359C72.6601 34.2359 72.4101 34.1159 72.2601 33.9359C72.2401 33.8859 72.1401 33.8359 72.2001 33.7959C72.1201 33.7459 72.0001 33.6959 72.0501 33.6359C72.0901 33.5459 72.0501 33.4059 72.0801 33.3159C72.1001 33.2459 72.1401 33.1959 72.1801 33.1359C72.1401 33.0959 72.1001 33.0559 72.0901 32.9859C72.0501 32.7959 72.0501 32.5359 72.3001 32.3659C72.3601 32.1759 72.6801 32.0559 72.8901 32.0559C73.3801 32.0359 73.7501 32.4059 73.8501 32.6859C73.9701 32.9659 73.9401 33.1559 73.9501 33.1559C73.9501 33.1559 73.9501 32.9859 73.9201 32.6659C73.8701 32.3559 73.8101 31.8659 73.4201 31.2559C73.2001 30.9559 72.9601 30.6259 72.4201 30.3559C72.0701 30.1159 71.4001 29.9459 70.7601 30.0159C70.1001 30.0859 69.4101 30.4159 68.9001 30.9859C68.6401 31.2659 68.4401 31.6059 68.2901 31.9859C68.2201 32.1759 68.1601 32.3459 68.1201 32.6259C68.0701 32.9559 68.0901 32.9259 68.0801 33.0459V33.2359L68.0901 33.2959Z" fill="#F1F1F1"/>
<path d="M91.6399 69.4758C91.6399 69.4758 91.3299 69.9858 90.7199 70.8858C90.9099 70.9658 91.1099 71.0558 91.2799 71.1158L91.6799 71.1958C92.1299 71.2958 92.3999 71.3158 92.7599 71.3058C94.1199 71.2558 95.1399 70.6258 95.8899 70.0258C96.6399 69.3758 97.1599 68.6958 97.5799 68.0758C97.9799 67.4358 98.2899 66.8758 98.5099 66.3858C98.9499 65.4258 99.1099 64.8458 99.1099 64.8458C99.1099 64.8458 99.0599 64.9858 98.9499 65.2458C98.8499 65.5058 98.6899 65.8958 98.4299 66.3458C98.1699 66.8058 97.8099 67.3258 97.3099 67.8558C96.8099 68.3758 96.1599 68.8858 95.3699 69.1858C94.5999 69.4958 93.6899 69.6258 92.9799 69.3058C92.8199 69.2558 92.5899 69.1158 92.5399 69.0558L92.1999 68.8358C92.1399 68.7658 92.1199 68.7058 92.0799 68.6558C91.8799 68.4058 91.6999 68.0458 91.5699 67.7058C91.0899 66.2158 91.3399 64.2458 91.9099 62.4558C91.9599 62.3458 92.0999 61.8758 92.1699 61.7358L92.4199 61.1458C92.6099 60.7158 92.8399 60.3258 93.0599 59.9258C93.5399 59.1658 94.0899 58.4858 94.7199 58.0358C95.3599 57.6258 95.9999 57.3558 96.8299 57.6058C97.4999 57.7258 98.2199 58.4058 98.6399 59.1058C99.0899 59.8158 99.3199 60.6258 99.4199 61.3358C99.5199 62.0558 99.4999 62.6958 99.4399 63.2158C99.3799 63.7358 99.2799 64.1458 99.2099 64.4158C99.1399 64.6858 99.0999 64.8358 99.0999 64.8358C99.0999 64.8358 99.3099 64.2658 99.5199 63.2358C99.6399 62.7158 99.7199 62.0758 99.7699 61.3258C99.7999 60.5758 99.7799 59.7058 99.5599 58.7458C99.2899 57.7958 98.8999 56.7158 97.7499 55.8158C96.7899 54.9858 95.0699 54.6258 93.5999 54.9958C92.1199 55.3558 90.8099 56.1858 89.7999 57.2758C89.2999 57.8158 88.8499 58.4058 88.4899 59.0458C88.2999 59.3458 88.1299 59.7158 87.9699 60.0858C87.7899 60.4958 87.7599 60.5958 87.5899 61.0458C87.1599 62.4358 86.9599 63.9258 87.1599 65.3958C87.3399 66.8658 87.9099 68.3158 88.8799 69.4858C89.0399 69.6658 89.2199 69.8158 89.3999 69.9758C90.2199 69.4158 90.9799 69.1858 91.6399 69.4758Z" fill="#F1F1F1"/>
<path d="M32.0498 126.666C63.8698 127.786 85.4898 126.676 85.4898 126.676C82.2098 121.756 32.0498 126.666 32.0498 126.666Z" fill="#F1F1F1"/>
<path d="M26 119.146C30.71 123.286 103.72 119.986 103.72 119.986C57.46 118.566 26 119.146 26 119.146Z" fill="#F1F1F1"/>
</svg>
