<svg width="25" height="25" viewBox="0 0 25 25" fill="none" xmlns="http://www.w3.org/2000/svg">
<path d="M10.9375 24.2188V0.78125C10.9375 0.351562 10.5859 0 10.1562 0H8.59375C8.16406 0 7.8125 0.351562 7.8125 0.78125V24.2188C7.8125 24.6484 8.16406 25 8.59375 25H10.1562C10.5859 25 10.9375 24.6484 10.9375 24.2188ZM17.1875 24.2188V0.78125C17.1875 0.351562 16.8359 0 16.4062 0H14.8438C14.4141 0 14.0625 0.351562 14.0625 0.78125V24.2188C14.0625 24.6484 14.4141 25 14.8438 25H16.4062C16.8359 25 17.1875 24.6484 17.1875 24.2188Z" fill="white"/>
</svg>
