<svg width="22" height="21" viewBox="0 0 22 21" fill="none" xmlns="http://www.w3.org/2000/svg">
<path fill-rule="evenodd" clip-rule="evenodd" d="M10.4906 0.488738C16.0093 0.432994 22.3083 5.48711 20.8218 12.6967C19.9857 16.7288 15.489 20.6866 10.7879 20.6123C3.28107 20.5194 -2.44197 11.5818 2.2591 4.74385C3.78277 2.49551 7.09023 0.5259 10.4906 0.488738Z" fill="#A2C037"/>
<path d="M16.5109 5.69147C17.4214 5.84012 18.5363 5.72863 19.4096 5.30126C19.0751 4.81815 18.7221 4.35361 18.3133 3.92624C17.9231 4.13064 17.4957 4.29787 16.9755 4.26071C15.4518 4.14922 14.5413 2.97859 14.2812 1.23195C13.9467 1.10188 13.6122 0.990394 13.2778 0.878906C13.0362 3.09008 14.3926 5.33842 16.5109 5.69147Z" fill="#7678C7"/>
<path d="M12.3117 18.4009C11.9587 14.4617 15.1546 9.59338 12.1073 7.40078C7.87077 4.35344 4.43323 11.9904 1.36731 11.563C1.07001 11.5258 0.828445 11.3958 0.605469 11.2657C0.661213 11.6745 0.735543 12.0833 0.82845 12.4735C0.995682 12.5292 1.16292 12.585 1.33015 12.6036C5.04642 13.1053 6.73732 7.17781 10.4164 7.9768C15.0246 8.96161 9.02282 16.3384 11.011 19.6087C11.1968 19.9246 11.6428 20.2591 12.2002 20.5192C13.2036 20.3705 14.1698 20.0547 15.0803 19.6087C14.0955 19.2557 12.609 19.3857 12.3117 18.4009Z" fill="#7678C7"/>
</svg>
