<svg width="17" height="16" viewBox="0 0 17 16" fill="none" xmlns="http://www.w3.org/2000/svg">
<path fill-rule="evenodd" clip-rule="evenodd" d="M8.11845 0.866798C12.2574 0.82499 16.9817 4.61558 15.8669 10.0227C15.2397 13.0468 11.8672 16.0152 8.34143 15.9595C2.71129 15.8898 -1.58099 9.18658 1.94481 4.05813C3.08756 2.37188 5.56816 0.894669 8.11845 0.866798Z" fill="#A2C037"/>
<path d="M12.6342 4.76884C13.317 4.88033 14.1532 4.79672 14.8082 4.47619C14.5573 4.11385 14.2925 3.76545 13.986 3.44493C13.6933 3.59822 13.3728 3.72365 12.9826 3.69577C11.8398 3.61216 11.1569 2.73419 10.9618 1.42421C10.711 1.32665 10.4601 1.24304 10.2093 1.15942C10.0281 2.81781 11.0455 4.50406 12.6342 4.76884Z" fill="#7678C7"/>
<path d="M9.48378 14.3012C9.21899 11.3468 11.616 7.69552 9.33048 6.05107C6.15308 3.76557 3.57492 9.49326 1.27548 9.17274C1.05251 9.14487 0.871333 9.04731 0.704102 8.94976C0.74591 9.25635 0.801657 9.56295 0.871337 9.8556C0.996761 9.89741 1.12219 9.93922 1.24761 9.95315C4.03481 10.3294 5.30299 5.88384 8.06231 6.48309C11.5184 7.2217 7.01711 12.7543 8.50826 15.207C8.64762 15.4439 8.98209 15.6948 9.40016 15.8899C10.1527 15.7784 10.8774 15.5415 11.5602 15.207C10.8216 14.9422 9.70675 15.0398 9.48378 14.3012Z" fill="#7678C7"/>
</svg>
