<svg width="190" height="400" viewBox="0 0 190 400" fill="none" xmlns="http://www.w3.org/2000/svg">
<path fill-rule="evenodd" clip-rule="evenodd" d="M175.78 146.272C175.761 145.9 175.798 145.566 175.891 145.287C175.835 144.786 175.761 144.284 175.668 143.801C162.122 144.414 148.465 144.841 135.57 146.402C127.171 134.9 116.524 120.147 106.676 108.663C105.133 106.861 103.517 104.65 101.696 103.702C101.566 103.628 100.395 104.074 100.525 103.944C96.7346 107.641 95.6941 118.084 94.1333 125.61C93.613 125.442 93.1856 124.253 92.4609 124.848C100.562 136.721 110.392 149.542 120.612 160.412C122.265 162.178 123.808 164.184 125.406 165.114C132.002 168.923 140.234 165.541 145.826 163.367C150.955 161.379 155.675 159.186 160.023 157.328C165.504 154.987 170.874 152.961 176.207 150.899C176.058 149.375 175.872 147.833 175.78 146.272Z" fill="#DD9083"/>
<path fill-rule="evenodd" clip-rule="evenodd" d="M176.95 143.726C162.996 144.358 148.874 144.767 135.588 146.384C127.189 134.882 116.542 120.128 106.694 108.645C105.152 106.843 103.535 104.631 101.714 103.684C101.584 103.609 100.414 104.055 100.544 103.925C96.7532 107.623 95.7126 118.066 94.1518 125.591C93.6315 125.424 93.2042 124.235 92.4795 124.829C100.581 136.703 110.41 149.524 120.63 160.394C122.284 162.159 123.826 164.166 125.424 165.095C132.021 168.904 140.252 165.522 145.845 163.348C150.973 161.36 155.693 159.168 160.041 157.309C165.839 154.838 171.506 152.701 177.173 150.527C176.969 148.297 176.913 146.012 176.95 143.726Z" fill="#996E52"/>
<path fill-rule="evenodd" clip-rule="evenodd" d="M127.84 154.485C128.88 154.522 137.409 147.814 136.034 146.309C134.603 144.767 127.821 152.887 127.84 154.485Z" fill="#845D47"/>
<path fill-rule="evenodd" clip-rule="evenodd" d="M98.1836 144.971C106.527 137.669 115.223 130.571 124.03 123.528C116.616 115.037 108.738 105.244 98.9269 99.8187C95.6565 98.0163 91.4014 96.1581 87.4808 96.8457C83.2628 97.6075 81.0516 100.915 80.2898 103.832C79.435 107.195 79.9182 111.488 81.0516 115.427C82.1851 119.422 84.3591 123.157 86.2172 126.353C90.3237 133.469 94.3373 139.044 98.1836 144.971Z" fill="#484FA3"/>
<path d="M93.6312 117.489C95.6566 117.508 98.8897 121.856 98.4995 123.826C97.7563 127.542 93.817 130.663 90.3237 133.079C88.9673 130.961 87.5923 128.768 86.2173 126.371C85.8828 125.814 85.5483 125.219 85.2139 124.606C87.4808 121.094 91.0298 117.471 93.6312 117.489Z" fill="#DD9083"/>
<path fill-rule="evenodd" clip-rule="evenodd" d="M47.6796 380.917C42.3282 380.229 36.7352 379.746 31.3652 379.058C29.6372 360.849 30.1574 339.852 33.8923 322.961C37.4599 306.74 44.2978 291.968 52.8824 280.949C39.541 266.716 22.9293 253.672 12.468 236.094C7.58115 227.881 2.86149 216.063 2.89866 203.799C2.93582 189.566 6.72641 179.365 13.4528 171.003C29.1726 175.054 43.7961 179.216 59.4416 183.509C61.5413 184.085 64.0312 184.549 65.7964 185.404C67.2643 186.11 68.6208 187.968 70.2002 189.51C80.1969 199.321 90.844 207.98 101.305 217.42C106.898 222.474 112.64 228.067 118.53 233.827C124.346 239.513 129.921 245.514 132.968 252.817C136.275 260.77 137.966 270.079 139.23 279.593C140.512 289.255 141.199 299.493 141.85 309.546C143.169 330.152 143.262 351.001 143.411 372.852C139.118 373.465 134.417 373.633 129.883 374.004C128.973 373.41 128.88 372.165 128.527 371.254C123.064 357.355 117.452 342.528 113.606 326.733C109.611 310.326 106.824 289.608 110.782 269.391C110.039 268.574 108.664 268.016 107.549 267.403C99.7259 263.167 91.8846 258.67 84.8423 253.486C76.8151 247.558 69.2897 240.888 62.1359 234.18C61.9687 234.124 61.9315 233.957 61.7271 233.957C67.3758 245.199 74.1208 255.288 79.175 266.549C81.9993 272.829 83.5973 279.481 82.5382 287.415C81.572 294.662 79.3608 300.85 76.8151 307.316C72.0026 319.561 67.413 332.196 62.5633 344.534C60.1291 350.722 57.8064 356.947 55.2422 362.93C52.6037 368.987 49.3891 374.673 47.6796 380.917Z" fill="#B28564"/>
<path d="M107.53 267.459C108.645 268.072 110.02 268.63 110.763 269.447C106.805 289.682 109.592 310.4 113.587 326.789C117.434 342.583 123.045 357.411 128.508 371.31C128.861 372.202 128.954 373.447 129.865 374.06C131.741 373.911 133.655 373.781 135.55 373.651C134.882 370.827 133.767 367.445 133.469 366.312C129.976 352.896 127.691 338.57 124.829 325.749C122.915 317.164 120.871 307.576 120.072 297.784C119.701 293.138 119.682 287.768 119.626 282.008C119.571 276.415 119.756 270.376 118.121 267.013C116.876 264.467 113.606 262.238 110.075 260.287C100.525 255.028 90.9181 250.141 82.8724 244.548C74.2321 238.528 67.3942 231.411 61.0394 223.83C58.9025 221.284 56.84 217.958 54.7032 215.71C54.6846 215.914 54.6846 216.119 54.6846 216.323C54.7589 217.066 55.1677 217.475 55.4464 218.014C55.6508 218.571 55.0934 218.516 55.0005 219.036C54.5917 221.173 56.3197 223.235 57.2674 224.722C61.634 231.467 66.5952 237.599 71.9095 243.117C76.0717 246.741 80.3639 250.253 84.8049 253.542C91.8658 258.726 99.7071 263.222 107.53 267.459Z" fill="#996E52"/>
<path fill-rule="evenodd" clip-rule="evenodd" d="M124.755 256.44C126.39 254.879 128.304 258.67 129.735 260.175C130.589 261.085 132.726 261.792 131.797 262.814C129.902 264.895 121.726 259.339 124.755 256.44Z" fill="#996E52"/>
<path d="M56.2829 282.919C55.0565 273.164 47.5125 265.694 42.0496 258.745C36.2336 251.368 31.0123 243.582 26.3112 235.964C21.573 228.271 16.909 219.278 14.2333 209.801C11.5019 200.12 11.3347 186.463 14.8837 175.816C15.1624 174.98 15.4783 174.162 15.8128 173.345C15.7756 173.345 15.757 173.345 15.7198 173.345C14.382 173.289 13.2114 173.029 12.1708 172.602C6.22479 180.647 2.89874 190.44 2.84299 203.781C2.80583 216.045 7.52548 227.862 12.4124 236.075C22.8737 253.672 39.4854 266.697 52.8267 280.931C44.2422 291.949 37.4042 306.722 33.8366 322.943C30.1018 339.833 29.6001 360.83 31.3282 379.059C32.7218 379.244 34.1525 379.393 35.5647 379.56C35.862 376.55 35.862 373.317 35.9363 372.388C37.2184 357.393 39.1881 344.237 42.0124 332.178C45.004 319.338 49.3334 308.487 53.2727 297.542C54.6291 293.696 56.9146 287.936 56.2829 282.919Z" fill="#996E52"/>
<path fill-rule="evenodd" clip-rule="evenodd" d="M72.0772 278.664C73.731 277.103 75.6263 280.894 77.057 282.38C77.9304 283.291 80.03 284.015 79.1196 285.019C77.2057 287.118 69.0485 281.563 72.0772 278.664Z" fill="#996E52"/>
<path d="M128.508 371.291C128.861 372.183 128.954 373.428 129.865 374.042C134.38 373.67 139.1 373.503 143.392 372.889C143.243 351.038 143.132 330.19 141.831 309.583C141.59 305.867 141.348 302.113 141.069 298.397C129.326 299.029 118.809 301.519 109.741 305.235C110.596 312.909 112.008 320.193 113.606 326.789C117.434 342.565 123.064 357.393 128.508 371.291Z" fill="#C44B4B"/>
<path d="M141.645 307.149C141.608 306.498 141.552 305.848 141.515 305.198C129.939 306.052 119.607 308.71 110.726 312.556C110.837 313.206 110.93 313.875 111.041 314.526C119.236 310.995 128.192 308.301 138.523 307.353C139.545 307.279 140.604 307.205 141.645 307.149Z" fill="white"/>
<path d="M111.971 319.468C112.008 319.654 112.045 319.84 112.082 320.025C120.704 315.9 130.478 313.206 141.961 312.296C141.942 311.998 141.924 311.72 141.905 311.422C130.273 312.37 120.444 315.362 111.971 319.468Z" fill="white"/>
<path fill-rule="evenodd" clip-rule="evenodd" d="M152.367 370.177C157.588 370.883 162.438 371.905 166.619 374.636C167.864 375.454 169.685 376.569 169.778 378.26C169.926 380.508 166.396 381.623 163.386 382.422C157.068 384.094 151.085 385.135 144.34 385.971C138.877 386.64 133.86 386.807 131.426 383.63C129.642 381.307 128.75 378.148 127.802 374.971C126.855 371.793 126.242 368.616 126 364.714C130.441 363.283 136.48 361.982 142.444 361.258C141.59 357.467 143.392 355.758 147.053 354.884C148.298 354.587 150.472 354.401 151.159 354.996C152.534 356.241 152.608 367.78 152.367 370.177Z" fill="#484FA3"/>
<path d="M155.452 358.786C155.656 358.861 156.009 359.028 156.214 359.176C156.678 359.492 156.808 359.957 156.864 360.663C157.087 363.32 154.355 368.449 152.925 369.824C152.795 369.954 152.59 370.009 152.404 369.972C152.219 369.935 152.07 369.786 152.014 369.601C151.55 368.244 151.754 361.183 153.649 359.251C154.151 358.749 154.801 358.582 155.452 358.786ZM152.925 368.058C154.263 366.126 155.879 362.54 155.749 360.756C155.712 360.384 155.619 360.143 155.452 360.013C155.322 359.938 155.229 359.883 155.117 359.845C154.95 359.79 154.727 359.771 154.467 360.05C153.222 361.313 152.832 365.791 152.925 368.058Z" fill="#7678C7"/>
<path d="M160.208 361.648C160.691 361.815 161.082 362.187 161.342 362.781C161.565 363.301 161.509 363.877 161.175 364.528C159.948 366.906 154.931 369.786 152.98 370.195C152.794 370.232 152.59 370.176 152.46 370.028C152.311 369.898 152.274 369.693 152.311 369.508C152.609 368.207 155.805 363.394 158.313 361.982C159.038 361.573 159.669 361.462 160.208 361.648ZM153.928 368.69C156.102 367.761 159.354 365.587 160.171 364.007C160.338 363.673 160.394 363.413 160.301 363.227C160.171 362.948 159.948 362.763 159.781 362.707C159.558 362.632 159.279 362.725 158.852 362.967C157.124 363.952 154.931 366.962 153.928 368.69Z" fill="#7678C7"/>
<path d="M161.342 369.304L152.888 369.081L152.851 370.214L161.324 370.418L161.342 369.304Z" fill="#7678C7"/>
<path d="M147.164 375.472C151.159 378.352 157.792 378.482 162.791 375.361C163.441 374.952 164.315 374.376 164.983 373.688C164.259 373.298 163.497 372.964 162.735 372.667C162.512 372.908 162.271 373.131 162.029 373.298C160.617 374.283 158.666 375.156 156.213 375.472C147.275 376.643 143.968 369.229 142.333 360.737C142.37 360.923 142.37 361.09 142.407 361.295C141.757 361.369 141.088 361.462 140.419 361.555C140.549 362.131 140.661 362.67 140.772 363.134C142.036 368.56 143.634 372.927 147.164 375.472Z" fill="white"/>
<path d="M141.46 381.289C139.193 376.606 135.291 373.187 128.973 374.952C128.639 375.045 128.267 375.157 127.896 375.287C128.1 375.974 128.304 376.68 128.527 377.349C128.825 377.182 129.103 377.015 129.419 376.922C135.105 375.361 138.245 378.836 139.955 382.961C140.419 384.076 140.735 385.544 141.311 386.268C141.85 386.231 142.389 386.175 142.946 386.12C143.281 384.949 141.98 382.366 141.46 381.289Z" fill="white"/>
<path d="M132.225 384.466C134.863 386.751 139.397 386.566 144.34 385.971C151.103 385.135 157.086 384.094 163.385 382.422C166.08 381.697 169.183 380.731 169.703 378.929L132.225 384.466Z" fill="#7678C7"/>
<path d="M33.8922 322.943C30.1573 339.833 29.6371 360.83 31.3651 379.04C36.7351 379.727 42.3281 380.192 47.6795 380.898C49.3704 374.673 52.6036 368.969 55.2049 362.93C57.7692 356.946 60.0918 350.722 62.526 344.534C66.8369 333.59 70.9247 322.441 75.1613 311.515C63.2692 305.625 51.563 302.54 40.7858 301.63C37.8872 308.301 35.5459 315.473 33.8922 322.943Z" fill="#C44B4B"/>
<path d="M72.0018 319.765C72.2433 319.152 72.4663 318.539 72.7079 317.907C60.6672 312.166 48.8309 309.286 38.0166 308.635C37.7936 309.248 37.5892 309.88 37.3662 310.493C47.0471 311.218 57.0438 313.095 67.4679 317.629C68.973 318.298 70.4967 319.022 72.0018 319.765Z" fill="white"/>
<path d="M35.8244 315.399C35.7687 315.585 35.7315 315.752 35.6758 315.938C46.6016 316.198 57.9548 318.762 70.1813 324.578C70.2928 324.299 70.3857 324.039 70.4972 323.761C58.122 317.852 46.5273 315.603 35.8244 315.399Z" fill="white"/>
<path fill-rule="evenodd" clip-rule="evenodd" d="M53.6074 384.521C58.2527 386.992 62.4521 389.631 65.4251 393.644C66.317 394.834 67.6363 396.525 67.1346 398.141C66.4843 400.297 62.7866 400.111 59.6835 399.832C53.18 399.219 47.1968 398.122 40.5819 396.58C35.2119 395.317 30.4737 393.737 29.2845 389.928C28.4111 387.141 28.6713 383.852 28.8942 380.545C29.0986 377.237 29.6375 374.041 30.7338 370.288C35.3977 370.492 41.511 371.347 47.3641 372.74C47.8658 368.894 50.1513 367.909 53.9047 368.355C55.1868 368.504 57.2865 369.08 57.7139 369.879C58.5872 371.495 54.648 382.366 53.6074 384.521Z" fill="#484FA3"/>
<path d="M60.427 374.896C60.5942 375.026 60.873 375.323 61.003 375.528C61.3375 375.992 61.3003 376.457 61.0959 377.163C60.3898 379.746 56.0418 383.592 54.2394 384.391C54.0536 384.465 53.8492 384.447 53.7006 384.335C53.5333 384.224 53.4404 384.038 53.4404 383.852C53.4776 382.421 56.1161 375.862 58.5503 374.71C59.2192 374.413 59.8881 374.487 60.427 374.896ZM54.8526 382.737C56.7851 381.399 59.5351 378.575 60.0182 376.866C60.1111 376.513 60.1111 376.252 59.9811 376.067C59.8881 375.955 59.8138 375.862 59.7209 375.788C59.5723 375.676 59.3865 375.583 59.0334 375.751C57.4726 376.494 55.5401 380.563 54.8526 382.737Z" fill="#7678C7"/>
<path d="M63.9199 379.226C64.3287 379.542 64.5517 380.025 64.5888 380.675C64.626 381.232 64.3659 381.771 63.827 382.254C61.8574 384.057 56.1529 385.023 54.1833 384.744C53.9975 384.726 53.8303 384.596 53.7373 384.41C53.663 384.243 53.663 384.038 53.7745 383.871C54.4992 382.756 59.1631 379.337 62.006 378.873C62.8422 378.761 63.474 378.873 63.9199 379.226ZM55.5955 383.667C57.9553 383.536 61.7645 382.645 63.0652 381.437C63.3439 381.177 63.474 380.954 63.474 380.749C63.4554 380.452 63.3067 380.192 63.1767 380.099C62.9908 379.95 62.6935 379.932 62.2104 380.006C60.2222 380.322 57.1191 382.384 55.5955 383.667Z" fill="#7678C7"/>
<path d="M62.3224 386.788L54.4625 383.667L54.0537 384.726L61.9136 387.847L62.3224 386.788Z" fill="#7678C7"/>
<path d="M46.8808 387.68C49.6308 391.768 55.8184 394.183 61.5786 392.976C62.3219 392.808 63.3624 392.585 64.2172 392.158C63.6597 391.545 63.0837 390.969 62.4705 390.411C62.1732 390.56 61.8945 390.69 61.5786 390.764C59.9063 391.192 57.788 391.34 55.3725 390.783C46.5835 388.795 46.0446 380.693 47.4568 372.165C47.4197 372.35 47.3639 372.499 47.3453 372.703C46.695 372.555 46.0446 372.406 45.3943 372.257C45.3014 372.833 45.2456 373.391 45.1713 373.874C44.4652 379.43 44.4652 384.075 46.8808 387.68Z" fill="white"/>
<path d="M39.5223 391.173C39.0206 386.007 36.5493 381.436 30.0086 380.916C29.6556 380.898 29.2654 380.86 28.8752 380.86C28.838 381.585 28.7823 382.31 28.7451 383.016C29.0796 382.96 29.414 382.904 29.7299 382.923C35.6016 383.425 37.3483 387.773 37.5341 392.232C37.5712 393.44 37.3668 394.926 37.6642 395.8C38.1844 395.948 38.7047 396.097 39.2436 396.227C39.9682 395.242 39.6338 392.362 39.5223 391.173Z" fill="white"/>
<path d="M29.7676 390.969C31.4399 394.035 35.7693 395.428 40.6005 396.562C47.234 398.104 53.2172 399.2 59.7021 399.813C62.4707 400.074 65.7224 400.241 66.8373 398.717L29.7676 390.969Z" fill="#7678C7"/>
<path fill-rule="evenodd" clip-rule="evenodd" d="M13.6761 170.836C13.9176 170.874 13.8433 171.227 13.8619 171.468C27.1661 174.274 39.5784 177.619 52.4925 181.205C54.4435 181.744 56.729 182.375 58.8658 182.896C61.1142 183.453 63.6412 183.527 65.4436 184.382C65.4436 184.382 68.4724 187.076 69.8474 188.489C76.8711 195.624 84.5081 202.016 91.9034 208.594C93.3899 209.932 94.8021 211.399 96.3072 212.7C97.7937 214.001 99.6704 214.874 100.73 216.602C87.797 223.998 75.1617 232.749 59.702 237.673C44.2052 242.616 27.129 245.719 7.11688 246.277C4.42259 234.199 0.706324 221.285 0.0931406 206.81C-0.259904 198.281 0.483348 192.725 3.34487 186.408C4.62698 183.565 6.002 181 7.58141 178.473C9.12366 176.039 10.8517 173.865 12.4126 171.394C12.6169 171.394 12.8213 171.412 13.0443 171.412C13.1558 171.152 13.3602 170.948 13.6761 170.836Z" fill="#DC911B"/>
<path d="M65.4995 184.456C63.7715 185.441 37.0144 192.948 11.3164 173.029C39.8201 207.088 65.9826 184.884 65.4995 184.456Z" fill="#484FA3"/>
<path opacity="0.17" d="M72.4112 213.685C71.6308 214.243 78.4687 224.5 81.4046 227.919C82.4637 227.324 83.5228 226.729 84.582 226.116C80.5127 221.434 73.266 213.072 72.4112 213.685Z" fill="#7678C7"/>
<path opacity="0.17" d="M84.1922 214.744C83.7649 215.488 87.9828 220.077 90.4913 222.641C91.3089 222.158 92.1079 221.675 92.9069 221.192C90.0825 218.702 84.7868 214.15 84.1922 214.744Z" fill="#7678C7"/>
<path opacity="0.17" d="M34.5429 217.253C32.9635 218.126 39.8757 235.184 42.9788 242.114C44.2052 241.854 45.4316 241.576 46.6393 241.297C43.6292 233.92 36.048 216.602 34.5429 217.253Z" fill="#7678C7"/>
<path opacity="0.17" d="M21.5171 225.651C20.1792 226.042 21.6843 236.875 23.1337 245.236C24.3786 245.106 25.605 244.976 26.8313 244.809C25.159 236.206 22.7435 225.41 21.5171 225.651Z" fill="#7678C7"/>
<path opacity="0.17" d="M63.3811 231.635C60.148 225.503 51.6935 208.259 50.0955 209.56C49.3708 210.155 51.6563 214.911 52.6969 217.531C54.7965 222.734 56.9334 227.993 59.3675 233.121C59.6834 233.79 60.3895 235.574 61.3 237.098C62.675 236.633 64.0315 236.15 65.3507 235.63C65.3321 235.555 65.3136 235.481 65.295 235.407C64.8119 233.957 63.8642 232.527 63.3811 231.635Z" fill="#7678C7"/>
<path fill-rule="evenodd" clip-rule="evenodd" d="M11.3164 173.029C13.6762 167.362 17.0952 161.936 19.8266 155.934C25.0852 144.395 29.7119 131.76 34.8775 119.794C37.4603 113.792 40.0431 107.586 43.3878 102.903C49.148 94.8205 58.3271 91.383 70.5722 91.2715C77.0199 91.2157 81.8325 92.3678 87.4812 93.78C92.3681 94.9877 97.7009 96.9016 100.544 99.6702C102.402 101.491 104.056 104.39 104.167 107.902C104.316 112.454 102.291 116.282 101.361 121.893C100.024 129.958 101.622 139.75 98.407 145.213C97.0692 147.48 95.0624 149.542 92.9999 151.233C90.1755 153.537 86.4221 155.135 83.2075 157.718C74.8645 164.37 70.3678 174.646 65.5181 184.475C64.7563 185.999 37.1073 193.041 11.3164 173.029Z" fill="#7678C7"/>
<path d="M76.4994 69.8659C76.4994 69.8101 74.9572 62.2661 70.7578 59.1816C72.3001 52.3808 75.6447 41.0091 81.089 38.259C89.0976 34.2083 100.637 37.2928 105.579 42.923C109.834 47.7541 113.328 58.1411 113.049 68.2679C112.752 78.5062 108.236 86.7749 96.2885 82.3339C94.9321 85.084 94.5047 88.8374 93.3341 91.7918C93.3527 91.7918 93.3527 91.8104 93.3527 91.8104C87.2394 98.6297 75.0315 91.7175 71.3524 89.3762C72.7089 87.1465 72.523 86.5705 73.2105 84.3221C73.8609 82.1667 76.2765 72.4487 76.4994 69.8659Z" fill="#B28564"/>
<path fill-rule="evenodd" clip-rule="evenodd" d="M94.0957 61.3C97.6262 57.3422 101.101 60.2781 101.101 60.2781C101.101 60.2781 100.209 61.7274 97.7748 62.1919C95.9724 62.545 94.0957 61.3 94.0957 61.3Z" fill="white"/>
<path fill-rule="evenodd" clip-rule="evenodd" d="M101.101 60.2782C101.101 60.2782 99.4102 58.8475 97.1804 59.3306C97.1246 59.4978 96.976 59.8694 96.9574 60.0553C96.9388 60.9472 97.5892 61.709 98.4997 62.0063C100.395 61.4489 101.101 60.2782 101.101 60.2782Z" fill="#0B124E"/>
<path d="M101.231 57.8996C99.8931 57.2492 96.1026 56.6732 93.5198 59.2188L92.6836 58.3827C95.4708 55.6512 99.6516 55.837 101.733 56.8404L101.231 57.8996Z" fill="#0B124E"/>
<path fill-rule="evenodd" clip-rule="evenodd" d="M106.731 60.2778C110.002 56.6173 113.235 59.3301 113.235 59.3301C113.235 59.3301 112.417 60.668 110.15 61.1139C108.46 61.4484 106.731 60.2778 106.731 60.2778Z" fill="white"/>
<path fill-rule="evenodd" clip-rule="evenodd" d="M113.234 59.3301C113.234 59.3301 111.674 58.0108 109.593 58.4568C109.537 58.624 109.407 58.9585 109.388 59.1443C109.37 59.9805 109.983 60.6866 110.837 60.9467C112.566 60.4078 113.234 59.3301 113.234 59.3301Z" fill="#0B124E"/>
<path d="M113.328 57.1748C112.101 56.5802 108.59 56.0413 106.23 58.3826L105.412 57.5464C108.013 54.9822 111.916 55.168 113.867 56.1156L113.328 57.1748Z" fill="#0B124E"/>
<path fill-rule="evenodd" clip-rule="evenodd" d="M96.2702 82.3343C92.554 81.1822 88.4289 76.3325 88.4289 76.3325C88.4289 76.3325 87.7042 83.8208 94.282 88.7263L96.2702 82.3343Z" fill="#996E52"/>
<path fill-rule="evenodd" clip-rule="evenodd" d="M104.558 60.0923C105.245 59.8879 107.661 66.2055 107.568 66.9116C107.419 67.7849 104.446 68.491 104.186 68.1565C103.461 67.2275 103.536 60.3896 104.558 60.0923Z" fill="#996E52"/>
<path d="M109.389 72.5048C106.082 74.5301 102.365 72.8207 100.303 70.3865L101.343 69.5132C103.034 71.5385 106.063 72.9693 108.701 71.3527L109.389 72.5048Z" fill="#996E52"/>
<path d="M98.8534 65.7038C99.7639 67.0974 99.3737 68.9741 97.9615 69.9031C96.5679 70.8136 94.6912 70.4234 93.7807 69.0112C92.8702 67.6176 93.2604 65.7409 94.6726 64.8305C96.0662 63.92 97.9429 64.3102 98.8534 65.7038Z" fill="#C69C7F"/>
<path d="M110.449 67.283C111.043 68.1935 112.028 68.658 113.031 68.658C113.031 68.528 113.05 68.3979 113.05 68.2864C113.106 66.4097 113.031 64.4958 112.827 62.6377C112.307 62.6563 111.786 62.8049 111.322 63.1022C109.928 63.9941 109.538 65.8708 110.449 67.283Z" fill="#C69C7F"/>
<path fill-rule="evenodd" clip-rule="evenodd" d="M84.6012 21.2384L86.1063 21.5172C85.9577 23.1895 84.9171 24.8804 84.9729 26.8128C85.01 28.2064 85.5861 29.47 85.6232 30.6963C85.679 33.6693 83.9323 35.1187 81.9999 36.8282C91.4578 33.8552 101.083 37.0697 105.449 42.4583C108.33 46.0259 108.794 48.0141 109.463 49.2776C101.064 51.1915 92.5912 47.9955 87.6114 44.8925C87.4999 53.3841 83.7093 55.521 79.6772 60.1849C78.7295 59.7389 77.7819 59.3301 76.6856 59.2187C72.8764 58.8656 70.5723 61.5971 69.7734 64.4028C68.6585 62.2474 67.8037 58.9957 67.7852 56.2271C67.7294 50.1696 70.4609 45.3384 73.4153 42.1982C70.4237 42.5698 68.8071 44.0749 66.6703 45.1712C64.6449 46.2117 62.3222 47.4195 59.3121 47.4381C56.8036 47.4567 54.5553 46.4719 52.6042 45.5056C50.393 44.4279 47.5687 42.737 44.7072 43.4989C41.8456 44.2421 39.5601 46.156 36.0483 45.8959L35.9368 44.4093C39.9875 44.8181 42.3659 41.8637 46.0822 41.808C50.7647 41.7151 54.3694 45.9144 59.2006 45.9516C62.0249 45.9702 64.2361 44.7066 66.2615 43.6847C68.9 42.3282 70.7953 40.5444 74.9947 40.8046L76.0167 39.8198C72.8393 37.813 66.2801 39.7269 63.4743 41.2134C59.8138 43.1458 55.5401 43.6103 52.0096 41.808C51.1735 41.3806 49.8542 40.2471 49.2038 39.4481C48.3863 38.4076 47.5873 37.2555 46.045 37.0326C43.6109 36.6795 42.6446 37.367 40.1547 37.59C36.903 37.8873 34.9334 36.791 33.0381 34.7842C38.2037 24.3229 43.5179 13.9917 48.4606 3.30747C54.9269 3.10308 58.2529 6.09467 60.1111 10.5542C61.0773 12.8954 61.5047 15.8127 63.7716 17.0948C65.9828 18.3398 68.4727 18.1725 70.7767 18.7114C73.0994 19.2502 74.7531 20.1793 76.2954 21.8516C79.1941 25.0105 80.2718 29.1355 80.8292 34.7656C81.8698 29.3027 79.9188 23.4682 77.3731 20.1421C76.2396 18.6556 74.6788 17.5779 73.0437 17.0019C70.9811 16.2772 68.4355 16.3516 66.6331 14.9765C64.5892 13.4157 63.5115 10.0711 62.3594 7.54401C61.1145 4.79398 59.5722 2.43415 56.8036 1.31927L57.1381 0C60.7242 1.07772 62.155 3.75343 63.6973 7.11664C64.7378 9.38356 65.797 12.9698 68.0639 14.159C69.922 15.1252 72.0031 14.9951 73.9727 15.7941C75.7565 16.5188 77.0572 17.6337 78.1907 19.0458C80.7921 22.2418 83.2262 27.9463 82.3529 34.4683C82.3715 34.5612 82.3157 34.5612 82.26 34.5612C83.2634 33.9666 84.1367 32.7589 84.1181 30.845C84.0995 29.5629 83.5049 28.225 83.4678 26.8686C83.412 24.676 84.4526 23.0966 84.6012 21.2384Z" fill="#0B124E"/>
<path d="M69.848 63.5665C69.3649 66.5953 71.4088 69.4568 74.4562 69.9399C77.4849 70.423 80.3465 68.3605 80.8296 65.3317C81.3127 62.303 79.2502 59.4415 76.2214 58.9584C73.1926 58.4752 70.3311 60.5192 69.848 63.5665Z" fill="#B28564"/>
<path fill-rule="evenodd" clip-rule="evenodd" d="M92.2938 92.7021C93.3529 91.9217 95.3968 90.3423 97.5337 91.0298C98.7601 91.42 100.377 96.9386 99.2989 99.187C98.407 101.027 95.211 102.253 93.3715 102.29C92.684 102.29 92.0522 101.77 91.9593 100.989C91.5505 101.695 90.9931 102.271 90.2312 102.587C86.8309 104.037 78.6179 101.082 72.1145 99.0012C69.8847 98.2951 61.1515 95.8609 61.1329 92.9994C61.1143 91.55 64.0873 88.5213 65.1836 87.5179C67.3019 85.5669 69.2158 83.4486 71.4641 83.2256C73.7868 83.0026 78.302 85.1395 81.7024 86.5145C86.2177 88.2983 90.1941 89.4875 92.2938 92.7021Z" fill="#484FA3"/>
<path fill-rule="evenodd" clip-rule="evenodd" d="M184.196 171.45C184.196 171.45 178.027 136.777 179.774 123.845C181.484 111.247 187.597 100.098 189.25 87.9084C190.793 76.611 189.139 65.7223 185.98 56.506C182.989 47.7914 178.752 38.9467 170.818 34.1713C161.806 28.7269 152.887 33.8368 148.557 39.5041C141.961 48.1258 140.53 62.6193 141.738 74.3441C142.946 86.1618 146.569 95.4896 151.958 103.758C154.708 107.976 157.978 111.637 160.598 115.595C172.453 133.544 177.711 172.435 177.711 172.435C177.711 172.435 184.178 171.469 184.196 171.45ZM162.14 108.905C154.615 104.204 149.821 93.7244 147.443 84.731C145.306 76.6481 143.54 61.1513 147.331 50.2069C147.74 49.0177 148.632 47.8285 149.301 46.4907C151.939 41.2507 155.154 35.6763 161.88 35.4348C163.46 35.379 165.819 35.8064 167.194 36.3639C172.546 38.575 176.727 44.2423 179.272 49.0921C181.409 53.1799 184.011 60.5196 185.051 66.6142C187.095 78.5063 186.036 98.314 177.711 106.824C174.2 110.392 168.068 112.622 162.14 108.905Z" fill="#F44040"/>
<path d="M184.197 171.45C184.197 171.45 182.376 161.193 180.982 149.747C178.567 150.1 176.058 150.639 173.68 151.066C176.43 162.884 177.712 172.435 177.712 172.435C177.712 172.435 184.178 171.469 184.197 171.45Z" fill="#7678C7"/>
<path d="M185.906 76.3692C185.869 74.2323 185.739 72.1698 185.535 70.2374C183.361 68.788 181.019 67.4687 178.845 66.0008C179.384 64.217 180.053 62.5819 180.592 60.798C181.855 61.4298 183.045 62.1173 184.215 62.8048C184.011 61.9873 183.788 61.1511 183.565 60.3335C182.803 59.869 182.06 59.423 181.261 58.9957C181.558 58.0109 181.893 57.0818 182.227 56.1527C181.893 55.1865 181.54 54.2388 181.187 53.3655C180.648 54.9078 180.09 56.4129 179.533 57.9365C176.69 56.4314 174.126 54.6848 171.171 53.254C171.691 50.7827 172.472 48.6644 173.141 46.4161C175.445 47.5682 177.6 48.8688 179.756 50.1324C179.589 49.7793 179.421 49.4449 179.254 49.129C179.012 48.6644 178.734 48.1813 178.455 47.6982C176.708 46.7692 175.018 45.7843 173.587 44.5951C173.865 43.7218 174.126 42.8299 174.404 41.9566C174.033 41.5292 173.624 41.1019 173.234 40.6931C172.843 41.8079 172.435 42.9042 172.007 43.9634C169.982 42.8113 167.845 41.7336 166.006 40.4329C166.377 39.0765 166.767 37.7386 167.139 36.4008C166.73 36.2335 166.229 36.0849 165.671 35.9362C165.281 37.1812 164.872 38.389 164.445 39.5968C162.81 38.5005 160.691 37.7758 159.446 36.4008C159.502 36.1964 159.558 35.992 159.614 35.7876C158.666 36.0106 157.811 36.3636 157.031 36.791C157.124 36.8467 157.198 36.8839 157.272 36.9396C156.38 39.0022 155.879 41.5664 154.913 43.5174C153.909 42.9414 152.924 42.3654 151.921 41.7894C151.661 42.1982 151.401 42.6069 151.141 43.0343C152.255 43.7404 153.37 44.4279 154.467 45.134C153.872 46.6205 153.519 48.4229 152.794 49.7236C151.494 48.906 150.174 48.0698 148.874 47.2337C148.688 47.5496 148.521 47.8469 148.353 48.1442C149.728 49.1104 151.085 50.0952 152.404 51.1172C151.828 53.3469 151.066 55.3166 150.49 57.5463C149.022 56.5801 147.573 55.6139 146.105 54.6476C146.012 55.1307 145.919 55.6324 145.845 56.1341C147.276 57.1375 148.688 58.1409 150.063 59.1629C149.282 61.1883 148.651 63.4366 148.112 65.7964C147.108 65.1647 146.105 64.5329 145.102 63.9011C145.083 64.4214 145.083 64.9231 145.083 65.4434C145.956 66.038 146.848 66.614 147.703 67.2086C146.941 68.6394 146.997 71.1293 145.975 72.207C145.752 72.0769 145.548 71.9283 145.325 71.7982C145.38 72.4299 145.436 73.0431 145.492 73.6563C145.585 73.7306 145.678 73.7864 145.771 73.8421C145.715 74.1209 145.659 74.381 145.603 74.6597C145.826 76.6479 146.124 78.5432 146.439 80.2713C146.867 78.506 147.313 76.7594 147.889 75.18C149.914 76.3506 151.679 77.6885 153.649 78.8962C153.054 80.773 152.608 82.8541 152.2 84.9723C150.286 83.7646 148.595 82.3895 146.625 81.2561C146.737 81.8135 146.848 82.3338 146.96 82.8541C148.651 83.9132 149.97 85.2511 151.828 86.1801C151.568 88.094 150.918 89.4876 150.695 91.4572C150.211 91.1971 149.747 90.8998 149.282 90.6211C149.58 91.4386 149.896 92.2562 150.249 93.0552L150.267 93.0738V93.0924C150.564 93.7799 150.862 94.4674 151.178 95.1363C151.326 94.7089 151.456 94.2816 151.624 93.8728C153.445 94.9319 155.21 96.0654 156.566 97.4776C156.176 99.0012 155.749 100.618 155.303 102.253C155.656 102.755 156.027 103.219 156.418 103.702C157.031 101.9 157.681 100.079 158.146 98.3323C160.097 99.8002 162.475 100.934 164.278 102.513C163.646 104.557 162.977 106.768 162.326 109.017C162.828 109.332 163.33 109.574 163.85 109.797C164.649 107.642 165.43 105.523 166.229 103.609C168.588 105.375 171.543 106.675 173.698 108.589C173.587 108.998 173.457 109.407 173.327 109.816C174.367 109.37 175.352 108.794 176.225 108.125C175.984 107.939 175.724 107.772 175.501 107.567C176.077 106.378 176.448 104.929 176.876 103.572C177.637 104.074 178.418 104.557 179.198 105.059C179.496 104.669 179.774 104.26 180.053 103.832C179.161 103.238 178.325 102.625 177.526 101.993C178.009 99.8002 178.92 98.1837 179.384 95.9725C180.573 96.66 181.707 97.3847 182.84 98.1093C183.007 97.6634 183.156 97.1989 183.305 96.7343C182.171 95.9539 181.075 95.1549 180.016 94.3745C180.573 92.6836 181.056 90.8812 181.744 89.3761C182.747 90.045 183.714 90.6582 184.698 91.2714C184.81 90.6768 184.921 90.1008 185.014 89.5062C184.048 88.8558 183.1 88.2055 182.19 87.5737C183.082 85.5855 183.509 83.0027 184.513 81.2003C184.94 81.4233 185.386 81.6649 185.813 81.925C185.85 81.2189 185.869 80.5314 185.888 79.8253C185.59 79.6023 185.274 79.3979 184.996 79.175C185.33 78.2831 185.609 77.3168 185.906 76.3692ZM178.845 59.7389C178.344 61.5785 177.563 63.0464 177.099 64.9417C174.423 63.3623 171.747 61.7829 169.183 60.1105C169.425 58.0852 170.224 56.8031 170.521 54.852C173.42 56.3757 176.132 58.048 178.845 59.7389ZM157.365 71.6681C157.867 69.3455 158.592 67.3201 159.112 64.9974C161.119 66.1123 162.791 67.4687 164.686 68.6765C164.166 70.9063 163.367 72.7644 162.977 75.1428C160.97 74.0651 159.242 72.8202 157.365 71.6681ZM162.345 76.5178C162.103 78.6175 161.342 80.0297 160.97 81.9807C159.186 80.8287 157.44 79.6209 155.581 78.5246C155.879 76.4993 156.473 74.8641 156.956 73.0617C158.74 74.2323 160.487 75.4215 162.345 76.5178ZM159.539 63.3809C160.32 61.4298 160.691 58.9399 161.453 56.9517C163.46 58.0108 164.965 59.4416 167.046 60.4264C166.674 62.842 165.727 64.4771 165.337 66.8927C163.144 65.9079 161.397 64.6072 159.539 63.3809ZM164.055 77.7999C166.359 79.305 168.588 80.8473 170.967 82.2966C170.335 83.9689 169.815 85.7713 169.22 87.4994C167.028 86.1058 165.114 84.4706 162.68 83.2629C162.921 81.1446 163.646 79.6767 164.055 77.7999ZM164.482 76.1834C165.207 74.158 165.671 71.7796 166.396 69.7542C168.756 71.3894 171.376 72.8387 173.698 74.5111C172.936 76.4993 172.175 78.4689 171.599 80.7172C169.09 79.305 166.86 77.6885 164.482 76.1834ZM166.86 67.9333C167.418 65.8522 168.142 63.9569 168.551 61.69C171.264 63.3065 173.773 65.0717 176.448 66.7255C175.724 68.6022 174.98 70.4418 174.404 72.5043C171.71 71.1107 169.332 69.4941 166.86 67.9333ZM165.597 41.8265C167.715 42.9786 169.536 44.3536 171.803 45.3941C171.06 47.6425 170.447 50.0766 169.629 52.2135C167.585 51.0614 165.541 49.9094 163.627 48.683C164.352 46.4719 164.946 44.1306 165.597 41.8265ZM163.2 50.281C165.188 51.4702 167.083 52.7152 169.202 53.8115C168.7 55.5767 168.068 57.1561 167.659 59.0328C165.43 58.1595 164.017 56.6358 161.843 55.7253C162.122 53.7186 162.81 52.1949 163.2 50.281ZM158.796 37.9802C160.914 38.7606 162.345 40.0613 164.24 41.0275C163.534 43.2573 162.772 45.3941 162.271 47.8655C160.375 46.9178 158.815 45.71 156.826 44.8181C157.365 42.3654 158.257 40.4143 158.796 37.9802ZM156.213 46.1931C158.257 47.0293 159.632 48.3857 161.658 49.2405C161.379 51.1358 160.617 52.3807 160.338 54.2946C158.517 53.9973 156.864 52.0462 154.894 51.2473C155.247 49.4449 155.916 48.0698 156.213 46.1931ZM154.559 52.2506C156.213 53.4398 158.016 54.5361 159.744 55.6696C159.298 58.0852 158.424 59.9061 157.997 62.3403C156.065 61.2997 154.355 60.0734 152.608 58.8842C153.184 56.5615 153.909 54.4432 154.559 52.2506ZM151.977 60.4636C154.188 61.244 155.414 62.7677 157.384 63.7153C156.938 66.1866 156.25 68.3792 155.619 70.5904C153.909 69.3826 151.995 68.3235 150.23 67.1343C150.62 64.6444 151.568 62.9163 151.977 60.4636ZM148.298 73.7678C148.613 71.761 149.394 70.3674 149.673 68.3049C151.624 69.4012 153.222 70.7576 155.266 71.7796C155.08 73.8793 154.262 75.1242 154.095 77.2611C151.902 76.2949 150.36 74.8455 148.298 73.7678ZM157.235 95.6938C155.173 94.8019 153.76 93.4268 151.828 92.442C152.255 90.7325 152.757 89.1531 153.147 87.3879C155.173 88.4285 156.641 89.8964 158.499 91.0484C157.997 92.4978 157.57 94.04 157.235 95.6938ZM158.889 89.6548C157.087 88.447 155.321 87.2021 153.537 85.9943C154.114 84.0061 154.504 81.7764 155.191 79.9368C156.956 81.1074 158.592 82.3895 160.58 83.3929C160.004 85.4555 159.391 87.4808 158.889 89.6548ZM164.891 100.915C162.68 99.6516 160.877 98.0722 158.536 96.9201C159.056 95.4336 159.428 93.7427 160.004 92.312C162.289 93.5197 164.036 95.1363 166.136 96.4928C165.876 98.1837 165.114 99.1871 164.891 100.915ZM166.749 94.8948C164.482 93.6126 162.549 92.0704 160.413 90.6954C160.933 88.6329 161.602 86.7747 162.066 84.6379C164.352 85.9571 166.47 87.4251 168.607 88.8744C168.198 91.1413 167.288 92.7765 166.749 94.8948ZM174.33 106.805C171.822 105.932 169.294 103.516 166.582 102.197C166.805 100.469 167.566 99.4658 167.808 97.7563C170.521 99.3171 172.974 101.064 175.501 102.773C175.185 104.204 174.553 105.226 174.33 106.805ZM175.947 101.157C173.531 99.4286 170.892 97.8864 168.477 96.1769C169.202 94.2258 169.852 92.1819 170.539 90.1751C173.104 91.6616 175.278 93.4454 177.842 94.9319C177.266 97.0874 176.634 99.1685 175.947 101.157ZM178.474 93.3525C175.686 92.0332 173.475 90.2866 171.171 88.5957C171.506 86.6818 172.36 85.474 172.695 83.5787C175.203 85.1024 177.619 86.719 179.997 88.3356C179.403 89.8964 178.845 91.4944 178.474 93.3525ZM180.443 86.5146C177.898 85.1396 175.798 83.4301 173.327 81.9993C174.033 79.8625 174.887 77.9114 175.445 75.5888C177.935 76.9452 180.165 78.506 182.599 79.8996C181.985 82.2595 181.205 84.3777 180.443 86.5146ZM183.268 78.0972C180.722 76.8337 178.678 75.1986 176.318 73.805C176.764 71.5566 177.619 69.8471 178.176 67.7846C180.518 69.2525 182.822 70.7576 185.33 72.0955C184.736 74.2323 183.937 76.0905 183.268 78.0972Z" fill="#484FA3"/>
<path fill-rule="evenodd" clip-rule="evenodd" d="M175.704 134.752C174.887 133.823 175.091 128.843 176.782 129.01C178.157 129.159 177.879 133.544 176.857 134.566C176.596 134.845 176.355 134.937 175.704 134.752Z" fill="white"/>
<path fill-rule="evenodd" clip-rule="evenodd" d="M176.652 126.855C175.091 126.873 175.425 123.083 176.856 123.25C177.451 123.324 177.562 123.752 177.692 124.514C177.86 125.628 177.748 126.836 176.652 126.855Z" fill="white"/>
<path d="M171.747 113.532C168.495 114.164 165.058 113.643 162.345 111.99C162.976 114.535 164.482 117.415 166.414 119.311C167.566 120.444 169.368 121.448 171.078 121.782C172.639 122.079 174.794 121.317 175.445 120.946C176.968 120.091 178.213 118.419 178.864 116.932C179.96 114.461 180.276 111.228 179.941 108.626C178.009 111.172 175.017 112.919 171.747 113.532Z" fill="white"/>
<path fill-rule="evenodd" clip-rule="evenodd" d="M184.865 155.228C185.367 154.076 185.961 153.203 185.776 152.144C185.515 150.695 184.233 150.583 183.304 149.617C183.416 148.428 184.382 147.536 184.215 146.384C184.047 145.213 183.063 145.12 182.171 144.451C182.319 142.519 182.561 140.995 181.483 140.177C179.346 138.524 175.054 141.162 172.936 141.422C172.285 141.162 172.025 140.549 171.617 140.233C169.034 138.171 166.47 141.032 165.094 143.559C163.905 145.733 163.459 148.465 163.534 150.917C145.398 157.105 126.241 162.271 107.548 167.882C103.349 158.22 96.7524 138.487 84.1914 117.137C81.5529 112.64 77.7437 106.062 73.2842 103.331C71.7605 102.402 69.9024 101.714 67.6912 102.234C64.7554 102.941 62.9158 106.675 62.5999 110.131C61.8567 118.716 65.0898 126.167 67.2453 132.262C71.9092 145.529 76.3501 158.461 81.4228 171.729C82.5749 174.739 83.8198 178.158 85.3063 181.335C88.1678 187.43 91.7169 194.323 99.8926 195.03C108.254 195.754 114.665 192.856 121.298 190.384C139.211 183.714 153.611 175.668 168.978 166.117C170.39 165.225 171.802 164.054 172.973 163.646C174.367 163.163 176.392 163.255 178.139 162.958C179.811 162.679 181.558 162.364 182.877 161.825C184.103 161.323 186.537 159.837 186.593 158.034C186.649 156.529 185.385 156.473 184.865 155.228Z" fill="#B28564"/>
<path fill-rule="evenodd" clip-rule="evenodd" d="M99.3907 176.021C100.431 176.058 108.96 169.35 107.566 167.864C106.136 166.303 99.3721 174.423 99.3907 176.021Z" fill="#996E52"/>
<path d="M121.336 190.384C114.702 192.855 108.31 195.773 99.9302 195.029C91.7544 194.305 88.2054 187.43 85.3438 181.335C83.8573 178.157 82.6124 174.72 81.4603 171.728C76.3876 158.443 71.9467 145.529 67.2828 132.262C65.1274 126.186 61.9128 118.753 62.6375 110.187C63.9196 112.027 65.053 114.312 65.8335 115.891C67.5244 119.329 68.7507 122.878 69.9957 126.093C72.7457 133.154 75.4586 140.252 77.8927 146.941C80.3083 153.593 82.5938 161.174 85.3438 168.235C87.8709 174.72 91.6057 182.227 96.9572 185.441C98.6852 186.463 100.636 187.095 102.829 187.262C109.853 187.801 117.155 185.906 123.491 184.234C129.586 182.617 135.662 180.369 141.236 178.232C147.164 175.946 152.552 173.605 157.811 171.022C160.468 169.722 163.218 168.458 165.95 167.269C167.176 166.73 168.439 166.173 169.722 165.689C169.499 165.838 169.276 165.987 169.053 166.117C153.63 175.668 139.248 183.713 121.336 190.384Z" fill="#996E52"/>
<path d="M170.13 141.534C170.52 141.199 171.208 140.753 171.877 140.493C172.137 140.809 172.397 141.181 172.862 141.385C170.892 143.28 166.823 147.257 166.823 147.257C166.451 145.715 168.439 143.02 170.13 141.534Z" fill="#996E52"/>
<path d="M177.396 145.956C177.526 144.693 180.536 142.667 182.301 143.169C182.264 143.578 182.227 144.024 182.189 144.488C182.227 144.507 182.245 144.526 182.282 144.563C181.26 144.507 179.867 144.971 177.396 145.956Z" fill="#996E52"/>
<path d="M183.583 148.632C183.472 148.948 183.379 149.301 183.342 149.654C183.379 149.691 183.435 149.728 183.453 149.765C181.595 149.877 179.681 150.602 178.529 151.326C178.715 149.598 181.614 148.242 183.583 148.632Z" fill="#996E52"/>
<path d="M185.403 154.076C185.236 154.448 185.05 154.838 184.865 155.247C182.839 155.34 180.777 155.972 179.829 156.176C180.61 154.522 183.044 153.686 185.403 154.076Z" fill="#996E52"/>
<path fill-rule="evenodd" clip-rule="evenodd" d="M66.5581 149.691C76.6478 145.102 87.0162 140.809 97.4775 136.591C92.8135 126.335 88.0939 114.665 80.2526 106.657C77.6326 104 74.1022 100.99 70.1443 100.525C65.8892 100.042 62.8047 102.569 61.2625 105.152C59.4787 108.125 58.6982 112.361 58.6425 116.468C58.5682 120.612 59.5901 124.811 60.4449 128.416C62.3402 136.406 64.5885 142.909 66.5581 149.691Z" fill="#484FA3"/>
</svg>
