<svg width="143" height="300" viewBox="0 0 143 300" fill="none" xmlns="http://www.w3.org/2000/svg">
<path fill-rule="evenodd" clip-rule="evenodd" d="M131.834 109.704C131.82 109.425 131.848 109.174 131.917 108.965C131.876 108.589 131.82 108.213 131.75 107.85C121.591 108.31 111.348 108.631 101.676 109.801C95.3772 101.175 87.3918 90.1099 80.0058 81.4975C78.8491 80.1457 77.6366 78.4873 76.2709 77.7766C76.1734 77.7208 75.2954 78.0553 75.3929 77.9577C72.55 80.731 71.7696 88.563 70.599 94.2071C70.2088 94.0817 69.8882 93.1898 69.3447 93.6357C75.4208 102.541 82.793 112.157 90.4578 120.309C91.6981 121.633 92.8547 123.138 94.0532 123.835C99.0005 126.692 105.174 124.156 109.369 122.525C113.215 121.034 116.755 119.389 120.016 117.996C124.127 116.24 128.155 114.721 132.154 113.174C132.043 112.031 131.903 110.875 131.834 109.704Z" fill="#DD9083"/>
<path fill-rule="evenodd" clip-rule="evenodd" d="M132.711 107.795C122.245 108.269 111.654 108.575 101.69 109.788C95.3908 101.161 87.4055 90.096 80.0194 81.4836C78.8627 80.1318 77.6503 78.4734 76.2846 77.7627C76.187 77.7069 75.3091 78.0414 75.4066 77.9438C72.5637 80.7171 71.7833 88.5491 70.6126 94.1932C70.2224 94.0678 69.9019 93.1759 69.3584 93.6218C75.4345 102.527 82.8066 112.143 90.4714 120.295C91.7117 121.619 92.8684 123.124 94.0669 123.821C99.0142 126.678 105.188 124.142 109.383 122.511C113.229 121.02 116.769 119.376 120.03 117.982C124.378 116.128 128.628 114.526 132.879 112.895C132.725 111.223 132.684 109.509 132.711 107.795Z" fill="#996E52"/>
<path fill-rule="evenodd" clip-rule="evenodd" d="M95.8789 115.864C96.6594 115.891 103.056 110.861 102.025 109.732C100.952 108.575 95.865 114.665 95.8789 115.864Z" fill="#845D47"/>
<path fill-rule="evenodd" clip-rule="evenodd" d="M73.6375 108.728C79.8947 103.252 86.4168 97.9281 93.0224 92.6463C87.462 86.2776 81.5531 78.9333 74.1949 74.864C71.7422 73.5122 68.5508 72.1186 65.6103 72.6342C62.4469 73.2056 60.7885 75.6862 60.2171 77.8742C59.576 80.3966 59.9384 83.6158 60.7885 86.5702C61.6386 89.5665 63.2691 92.3676 64.6627 94.7646C67.7425 100.102 70.7527 104.283 73.6375 108.728Z" fill="#484FA3"/>
<path d="M70.2232 88.1172C71.7422 88.1312 74.167 91.3922 73.8744 92.8694C73.3169 95.6566 70.3625 97.9979 67.7426 99.8095C66.7252 98.2208 65.694 96.5764 64.6627 94.7786C64.4119 94.3606 64.161 93.9146 63.9102 93.4547C65.6103 90.8208 68.2721 88.1033 70.2232 88.1172Z" fill="#DD9083"/>
<path fill-rule="evenodd" clip-rule="evenodd" d="M35.7597 285.688C31.7462 285.172 27.5514 284.81 23.5239 284.294C22.2279 270.637 22.6181 254.889 25.4192 242.221C28.0949 230.055 33.2234 218.976 39.6618 210.712C29.6558 200.037 17.197 190.254 9.35103 177.071C5.68586 170.911 2.14612 162.048 2.17399 152.85C2.20186 142.175 5.04481 134.524 10.0896 128.253C21.8795 131.291 32.8471 134.413 44.5812 137.632C46.156 138.064 48.0234 138.412 49.3473 139.053C50.4483 139.583 51.4656 140.976 52.6501 142.133C60.1477 149.491 68.133 155.986 75.979 163.065C80.1737 166.856 84.4799 171.05 88.8977 175.37C93.2596 179.635 97.4404 184.136 99.7259 189.613C102.207 195.578 103.475 202.56 104.422 209.695C105.384 216.942 105.9 224.62 106.387 232.16C107.377 247.615 107.446 263.251 107.558 279.64C104.339 280.099 100.813 280.225 97.4125 280.504C96.7297 280.058 96.66 279.124 96.3952 278.441C92.298 268.017 88.0894 256.896 85.2046 245.05C82.2084 232.745 80.118 217.206 83.0863 202.044C82.5289 201.431 81.4976 201.013 80.6615 200.553C74.7944 197.375 68.9134 194.003 63.6317 190.115C57.6114 185.669 51.9673 180.666 46.6019 175.635C46.4765 175.593 46.4486 175.468 46.2953 175.468C50.5319 183.899 55.5906 191.467 59.3812 199.912C61.4995 204.622 62.698 209.611 61.9036 215.562C61.179 220.997 59.5206 225.638 57.6114 230.487C54.0019 239.671 50.5597 249.148 46.9224 258.401C45.0968 263.042 43.3548 267.71 41.4317 272.198C39.4528 276.741 37.0418 281.005 35.7597 285.688Z" fill="#B28564"/>
<path d="M80.6476 200.595C81.4838 201.055 82.515 201.473 83.0725 202.086C80.1041 217.262 82.1945 232.801 85.1908 245.092C88.0755 256.938 92.2842 268.059 96.3814 278.483C96.6461 279.152 96.7158 280.086 97.3987 280.545C98.8062 280.434 100.242 280.336 101.663 280.239C101.161 278.121 100.325 275.584 100.102 274.734C97.4823 264.672 95.7682 253.928 93.622 244.312C92.1866 237.873 90.6537 230.682 90.0544 223.338C89.7757 219.854 89.7618 215.827 89.7199 211.507C89.6781 207.312 89.8175 202.783 88.5911 200.26C87.6574 198.351 85.2047 196.679 82.5569 195.215C75.3938 191.272 68.1888 187.606 62.1546 183.412C55.6743 178.896 50.5459 173.559 45.7798 167.873C44.1771 165.964 42.6302 163.469 41.0276 161.783C41.0137 161.936 41.0137 162.09 41.0137 162.243C41.0694 162.8 41.376 163.107 41.585 163.511C41.7383 163.929 41.3203 163.887 41.2506 164.278C40.944 165.88 42.24 167.427 42.9508 168.542C46.2257 173.601 49.9466 178.2 53.9323 182.339C57.054 185.056 60.2732 187.69 63.6039 190.157C68.8996 194.045 74.7806 197.417 80.6476 200.595Z" fill="#996E52"/>
<path fill-rule="evenodd" clip-rule="evenodd" d="M93.5659 192.331C94.7923 191.16 96.2277 194.003 97.3007 195.132C97.9418 195.815 99.5444 196.344 98.8476 197.111C97.4262 198.671 91.2943 194.505 93.5659 192.331Z" fill="#996E52"/>
<path d="M42.2119 212.189C41.2921 204.873 35.6341 199.271 31.5369 194.059C27.175 188.526 23.259 182.687 19.7332 176.973C16.1795 171.204 12.6815 164.459 10.6748 157.351C8.62617 150.091 8.50075 139.848 11.1625 131.862C11.3716 131.235 11.6085 130.622 11.8593 130.009C11.8314 130.009 11.8175 130.009 11.7896 130.009C10.7862 129.967 9.90828 129.772 9.12787 129.451C4.66835 135.486 2.17381 142.83 2.132 152.836C2.10413 162.034 5.64387 170.897 9.30903 177.057C17.155 190.254 29.6138 200.023 39.6198 210.698C33.1814 218.962 28.0529 230.041 25.3772 242.207C22.5761 254.875 22.1998 270.623 23.4959 284.294C24.5411 284.434 25.6141 284.545 26.6733 284.67C26.8962 282.413 26.8963 279.988 26.952 279.291C27.9136 268.045 29.3908 258.178 31.5091 249.134C33.7528 239.504 36.9998 231.365 39.9543 223.157C40.9716 220.272 42.6857 215.952 42.2119 212.189Z" fill="#996E52"/>
<path fill-rule="evenodd" clip-rule="evenodd" d="M54.0579 208.998C55.2982 207.828 56.7197 210.67 57.7928 211.785C58.4478 212.468 60.0225 213.012 59.3397 213.764C57.9043 215.339 51.7864 211.172 54.0579 208.998Z" fill="#996E52"/>
<path d="M96.381 278.469C96.6458 279.138 96.7155 280.072 97.3983 280.532C100.785 280.253 104.325 280.127 107.544 279.667C107.432 263.279 107.349 247.643 106.373 232.188C106.192 229.4 106.011 226.585 105.802 223.798C96.9942 224.272 89.1064 226.139 82.3057 228.927C82.9467 234.682 84.0059 240.145 85.2043 245.092C88.0752 256.924 92.2978 268.045 96.381 278.469Z" fill="#C44B4B"/>
<path d="M106.233 230.362C106.206 229.874 106.164 229.386 106.136 228.899C97.4538 229.54 89.7053 231.533 83.0439 234.417C83.1276 234.905 83.1972 235.407 83.2809 235.895C89.4266 233.247 96.1438 231.226 103.892 230.515C104.659 230.46 105.453 230.404 106.233 230.362Z" fill="white"/>
<path d="M83.9775 239.601C84.0054 239.741 84.0333 239.88 84.0612 240.019C90.5275 236.926 97.8578 234.905 106.47 234.222C106.456 233.999 106.442 233.79 106.428 233.567C97.7045 234.278 90.3323 236.522 83.9775 239.601Z" fill="white"/>
<path fill-rule="evenodd" clip-rule="evenodd" d="M114.275 277.633C118.191 278.162 121.828 278.929 124.964 280.978C125.898 281.591 127.264 282.427 127.333 283.695C127.445 285.381 124.797 286.217 122.539 286.817C117.801 288.071 113.314 288.851 108.255 289.478C104.158 289.98 100.395 290.106 98.5693 287.723C97.2315 285.981 96.5625 283.611 95.8518 281.228C95.1411 278.845 94.6812 276.462 94.5 273.536C97.8307 272.463 102.36 271.487 106.833 270.944C106.192 268.101 107.544 266.819 110.289 266.164C111.223 265.941 112.854 265.801 113.369 266.247C114.401 267.181 114.456 275.835 114.275 277.633Z" fill="#484FA3"/>
<path d="M116.589 269.09C116.742 269.146 117.007 269.271 117.16 269.383C117.508 269.62 117.606 269.968 117.648 270.498C117.815 272.491 115.766 276.337 114.693 277.368C114.596 277.466 114.442 277.508 114.303 277.48C114.164 277.452 114.052 277.34 114.01 277.201C113.662 276.184 113.815 270.888 115.237 269.439C115.613 269.062 116.101 268.937 116.589 269.09ZM114.693 276.044C115.697 274.595 116.909 271.905 116.812 270.567C116.784 270.289 116.714 270.108 116.589 270.01C116.491 269.954 116.421 269.912 116.338 269.885C116.212 269.843 116.045 269.829 115.85 270.038C114.916 270.985 114.624 274.344 114.693 276.044Z" fill="#7678C7"/>
<path d="M120.156 271.236C120.519 271.362 120.811 271.641 121.007 272.087C121.174 272.477 121.132 272.909 120.881 273.397C119.961 275.18 116.199 277.34 114.735 277.647C114.596 277.675 114.443 277.633 114.345 277.522C114.234 277.424 114.206 277.271 114.234 277.131C114.457 276.156 116.854 272.546 118.735 271.487C119.279 271.181 119.752 271.097 120.156 271.236ZM115.446 276.518C117.077 275.821 119.515 274.191 120.129 273.006C120.254 272.755 120.296 272.56 120.226 272.421C120.129 272.212 119.961 272.073 119.836 272.031C119.669 271.975 119.46 272.045 119.139 272.226C117.843 272.965 116.199 275.222 115.446 276.518Z" fill="#7678C7"/>
<path d="M121.006 276.978L114.666 276.811L114.638 277.661L120.993 277.814L121.006 276.978Z" fill="#7678C7"/>
<path d="M110.373 281.605C113.369 283.765 118.345 283.862 122.093 281.521C122.581 281.214 123.236 280.782 123.738 280.267C123.194 279.974 122.623 279.723 122.052 279.5C121.884 279.682 121.703 279.849 121.522 279.974C120.463 280.713 119 281.368 117.16 281.605C110.457 282.483 107.976 276.922 106.75 270.553C106.778 270.693 106.778 270.818 106.806 270.972C106.318 271.027 105.816 271.097 105.314 271.167C105.412 271.599 105.496 272.003 105.579 272.351C106.527 276.421 107.725 279.695 110.373 281.605Z" fill="white"/>
<path d="M106.095 285.967C104.395 282.455 101.468 279.89 96.7302 281.214C96.4793 281.284 96.2006 281.368 95.9219 281.465C96.0752 281.981 96.2285 282.51 96.3957 283.012C96.6187 282.887 96.8277 282.761 97.0646 282.692C101.329 281.521 103.684 284.127 104.966 287.221C105.315 288.057 105.552 289.158 105.984 289.701C106.388 289.673 106.792 289.632 107.21 289.59C107.461 288.712 106.485 286.775 106.095 285.967Z" fill="white"/>
<path d="M99.1689 288.35C101.148 290.064 104.548 289.924 108.255 289.479C113.328 288.851 117.815 288.071 122.54 286.817C124.56 286.273 126.888 285.549 127.278 284.197L99.1689 288.35Z" fill="#7678C7"/>
<path d="M25.4191 242.207C22.618 254.875 22.2278 270.623 23.5238 284.28C27.5513 284.796 31.7461 285.144 35.7596 285.674C37.0278 281.005 39.4527 276.727 41.4037 272.198C43.3269 267.71 45.0689 263.042 46.8945 258.401C50.1276 250.193 53.1936 241.831 56.371 233.637C47.4519 229.219 38.6723 226.906 30.5894 226.223C28.4154 231.226 26.6594 236.605 25.4191 242.207Z" fill="#C44B4B"/>
<path d="M54.0021 239.824C54.1832 239.365 54.3505 238.905 54.5316 238.431C45.5011 234.125 36.6239 231.965 28.5131 231.477C28.3459 231.937 28.1926 232.411 28.0254 232.87C35.286 233.414 42.7836 234.821 50.6017 238.222C51.7305 238.724 52.8733 239.267 54.0021 239.824Z" fill="white"/>
<path d="M26.8683 236.55C26.8265 236.689 26.7986 236.814 26.7568 236.954C34.9512 237.149 43.4661 239.072 52.636 243.434C52.7196 243.225 52.7893 243.03 52.8729 242.821C43.5915 238.389 34.8955 236.703 26.8683 236.55Z" fill="white"/>
<path fill-rule="evenodd" clip-rule="evenodd" d="M40.2048 288.391C43.6888 290.245 46.8383 292.224 49.0681 295.234C49.737 296.126 50.7265 297.394 50.3502 298.606C49.8625 300.223 47.0892 300.084 44.7619 299.874C39.8843 299.415 35.3969 298.592 30.4357 297.436C26.4082 296.488 22.8545 295.303 21.9626 292.447C21.3076 290.356 21.5027 287.89 21.67 285.409C21.8232 282.928 22.2274 280.531 23.0496 277.716C26.5475 277.87 31.1325 278.511 35.5223 279.556C35.8986 276.671 37.6127 275.932 40.4278 276.267C41.3894 276.378 42.9641 276.81 43.2847 277.41C43.9397 278.622 40.9852 286.775 40.2048 288.391Z" fill="#484FA3"/>
<path d="M45.319 281.172C45.4445 281.27 45.6535 281.493 45.7511 281.646C46.0019 281.995 45.974 282.343 45.8207 282.873C45.2912 284.81 42.0301 287.694 40.6783 288.294C40.539 288.349 40.3857 288.336 40.2742 288.252C40.1488 288.168 40.0791 288.029 40.0791 287.89C40.107 286.817 42.0859 281.897 43.9115 281.033C44.4132 280.81 44.9149 280.866 45.319 281.172ZM41.1382 287.053C42.5876 286.05 44.6501 283.932 45.0124 282.65C45.0821 282.385 45.0821 282.19 44.9846 282.05C44.9149 281.967 44.8591 281.897 44.7895 281.841C44.678 281.758 44.5386 281.688 44.2738 281.814C43.1032 282.371 41.6539 285.423 41.1382 287.053Z" fill="#7678C7"/>
<path d="M47.9394 284.419C48.246 284.656 48.4133 285.019 48.4411 285.506C48.469 285.925 48.2739 286.329 47.8698 286.691C46.3925 288.043 42.1142 288.767 40.637 288.558C40.4976 288.545 40.3722 288.447 40.3025 288.308C40.2468 288.182 40.2468 288.029 40.3304 287.903C40.8739 287.067 44.3718 284.503 46.504 284.155C47.1312 284.071 47.605 284.155 47.9394 284.419ZM41.6961 287.75C43.466 287.653 46.3229 286.984 47.2984 286.078C47.5074 285.883 47.605 285.716 47.605 285.562C47.591 285.339 47.4796 285.144 47.382 285.074C47.2426 284.963 47.0197 284.949 46.6573 285.005C45.1662 285.242 42.8389 286.789 41.6961 287.75Z" fill="#7678C7"/>
<path d="M46.7406 290.092L40.8457 287.75L40.5391 288.545L46.434 290.886L46.7406 290.092Z" fill="#7678C7"/>
<path d="M35.1599 290.76C37.2224 293.826 41.8631 295.638 46.1832 294.732C46.7407 294.607 47.5211 294.439 48.1621 294.119C47.7441 293.659 47.312 293.227 46.8522 292.809C46.6292 292.92 46.4201 293.018 46.1832 293.074C44.929 293.394 43.3403 293.506 41.5286 293.088C34.9369 291.596 34.5327 285.52 35.5919 279.124C35.564 279.263 35.5222 279.375 35.5083 279.528C35.0205 279.416 34.5327 279.305 34.045 279.193C33.9753 279.625 33.9335 280.044 33.8778 280.406C33.3482 284.573 33.3482 288.057 35.1599 290.76Z" fill="white"/>
<path d="M29.6415 293.38C29.2652 289.506 27.4117 286.078 22.5062 285.688C22.2415 285.674 21.9488 285.646 21.6561 285.646C21.6283 286.189 21.5865 286.733 21.5586 287.262C21.8094 287.221 22.0603 287.179 22.2972 287.193C26.701 287.569 28.011 290.83 28.1503 294.175C28.1782 295.08 28.0249 296.195 28.2479 296.85C28.6381 296.962 29.0283 297.073 29.4324 297.171C29.9759 296.432 29.7251 294.272 29.6415 293.38Z" fill="white"/>
<path d="M22.3252 293.227C23.5794 295.526 26.8265 296.572 30.4499 297.422C35.425 298.578 39.9124 299.401 44.7761 299.861C46.8525 300.056 49.2913 300.181 50.1275 299.038L22.3252 293.227Z" fill="#7678C7"/>
<path fill-rule="evenodd" clip-rule="evenodd" d="M10.2571 128.127C10.4382 128.155 10.3825 128.42 10.3964 128.601C20.3746 130.706 29.6838 133.214 39.3693 135.904C40.8326 136.308 42.5467 136.782 44.1494 137.172C45.8356 137.59 47.7309 137.646 49.0827 138.287C49.0827 138.287 51.3543 140.307 52.3856 141.367C57.6534 146.718 63.381 151.512 68.9276 156.445C70.0425 157.449 71.1016 158.55 72.2304 159.525C73.3453 160.501 74.7528 161.156 75.5472 162.452C65.8477 167.998 56.3712 174.562 44.7765 178.255C33.1539 181.962 20.3467 184.289 5.33766 184.708C3.31694 175.649 0.529743 165.964 0.0698554 155.108C-0.194928 148.711 0.362511 144.544 2.50865 139.806C3.47024 137.674 4.5015 135.75 5.68606 133.855C6.84275 132.03 8.13879 130.399 9.30942 128.546C9.46271 128.546 9.61601 128.559 9.78324 128.559C9.86685 128.364 10.0202 128.211 10.2571 128.127Z" fill="#DC911B"/>
<path d="M49.1246 138.343C47.8286 139.081 27.7608 144.711 8.4873 129.772C29.8651 155.317 49.487 138.663 49.1246 138.343Z" fill="#484FA3"/>
<path opacity="0.17" d="M54.3089 160.264C53.7236 160.682 58.852 168.374 61.0539 170.939C61.8483 170.493 62.6426 170.047 63.437 169.587C60.385 166.075 54.95 159.804 54.3089 160.264Z" fill="#7678C7"/>
<path opacity="0.17" d="M63.1447 161.058C62.8241 161.615 65.9876 165.058 67.869 166.981C68.4822 166.619 69.0814 166.256 69.6807 165.894C67.5624 164.026 63.5906 160.612 63.1447 161.058Z" fill="#7678C7"/>
<path opacity="0.17" d="M25.9079 162.939C24.7233 163.594 29.9075 176.388 32.2348 181.586C33.1546 181.391 34.0744 181.182 34.9802 180.973C32.7226 175.44 27.0367 162.452 25.9079 162.939Z" fill="#7678C7"/>
<path opacity="0.17" d="M16.1383 169.239C15.1349 169.531 16.2637 177.656 17.3507 183.927C18.2844 183.83 19.2042 183.732 20.124 183.607C18.8698 177.154 17.0581 169.057 16.1383 169.239Z" fill="#7678C7"/>
<path opacity="0.17" d="M47.5366 173.726C45.1117 169.127 38.7708 156.194 37.5723 157.17C37.0288 157.616 38.743 161.184 39.5234 163.149C41.0981 167.051 42.7008 170.994 44.5264 174.841C44.7633 175.343 45.2929 176.68 45.9757 177.823C47.007 177.475 48.0243 177.112 49.0138 176.722C48.9998 176.666 48.9859 176.611 48.972 176.555C48.6096 175.468 47.8989 174.395 47.5366 173.726Z" fill="#7678C7"/>
<path fill-rule="evenodd" clip-rule="evenodd" d="M8.4873 129.772C10.2572 125.521 12.8214 121.452 14.87 116.951C18.8139 108.297 22.2839 98.8201 26.1581 89.8453C28.0952 85.344 30.0323 80.6894 32.5408 77.1775C36.861 71.1154 43.7454 68.5372 52.9292 68.4536C57.765 68.4118 61.3744 69.2758 65.6109 70.335C69.2761 71.2408 73.2757 72.6762 75.4079 74.7527C76.8015 76.1184 78.0418 78.2924 78.1254 80.9263C78.2369 84.3406 76.7179 87.2114 76.0211 91.4201C75.0177 97.4683 76.2162 104.813 73.8053 108.91C72.8019 110.61 71.2968 112.157 69.7499 113.425C67.6316 115.153 64.8166 116.352 62.4056 118.289C56.1484 123.278 52.7759 130.984 49.1386 138.357C48.5672 139.499 27.8305 144.781 8.4873 129.772Z" fill="#7678C7"/>
<path d="M57.3746 52.3993C57.3746 52.3575 56.2179 46.6995 53.0684 44.3861C54.225 39.2855 56.7335 30.7567 60.8168 28.6942C66.8232 25.6561 75.4774 27.9695 79.1844 32.1921C82.3757 35.8155 84.9957 43.6057 84.7867 51.2008C84.5637 58.8795 81.1772 65.081 72.2164 61.7503C71.1991 63.8129 70.8785 66.6279 70.0006 68.8437C70.0145 68.8437 70.0145 68.8577 70.0145 68.8577C65.4296 73.9722 56.2736 68.788 53.5143 67.0321C54.5316 65.3597 54.3923 64.9277 54.9079 63.2415C55.3957 61.6249 57.2073 54.3364 57.3746 52.3993Z" fill="#B28564"/>
<path fill-rule="evenodd" clip-rule="evenodd" d="M70.5723 45.9748C73.2201 43.0064 75.8261 45.2083 75.8261 45.2083C75.8261 45.2083 75.1572 46.2953 73.3316 46.6437C71.9798 46.9085 70.5723 45.9748 70.5723 45.9748Z" fill="white"/>
<path fill-rule="evenodd" clip-rule="evenodd" d="M75.8258 45.2083C75.8258 45.2083 74.5576 44.1352 72.8853 44.4976C72.8435 44.623 72.732 44.9017 72.7181 45.0411C72.7041 45.71 73.1919 46.2814 73.8747 46.5044C75.2962 46.0863 75.8258 45.2083 75.8258 45.2083Z" fill="#0B124E"/>
<path d="M75.9232 43.4244C74.9199 42.9367 72.0769 42.5046 70.1398 44.4139L69.5127 43.7868C71.6031 41.7382 74.7387 41.8775 76.2995 42.6301L75.9232 43.4244Z" fill="#0B124E"/>
<path fill-rule="evenodd" clip-rule="evenodd" d="M80.0479 45.2082C82.5006 42.4628 84.9254 44.4975 84.9254 44.4975C84.9254 44.4975 84.3123 45.5009 82.6121 45.8353C81.3439 46.0862 80.0479 45.2082 80.0479 45.2082Z" fill="white"/>
<path fill-rule="evenodd" clip-rule="evenodd" d="M84.9251 44.4975C84.9251 44.4975 83.7545 43.508 82.1936 43.8425C82.1518 43.9679 82.0543 44.2187 82.0403 44.3581C82.0264 44.9852 82.4863 45.5148 83.1274 45.7099C84.4234 45.3058 84.9251 44.4975 84.9251 44.4975Z" fill="#0B124E"/>
<path d="M84.9953 42.881C84.0756 42.435 81.4416 42.0309 79.6718 43.7868L79.0586 43.1597C81.0096 41.2365 83.9362 41.3759 85.3995 42.0866L84.9953 42.881Z" fill="#0B124E"/>
<path fill-rule="evenodd" clip-rule="evenodd" d="M72.2024 61.7501C69.4152 60.8861 66.3214 57.2488 66.3214 57.2488C66.3214 57.2488 65.7779 62.865 70.7113 66.5441L72.2024 61.7501Z" fill="#996E52"/>
<path fill-rule="evenodd" clip-rule="evenodd" d="M78.4179 45.0688C78.9336 44.9155 80.7452 49.6538 80.6756 50.1833C80.5641 50.8383 78.3343 51.3679 78.1392 51.117C77.5957 50.4202 77.6515 45.2918 78.4179 45.0688Z" fill="#996E52"/>
<path d="M82.0413 54.378C79.5607 55.897 76.7735 54.6149 75.2266 52.7893L76.007 52.1343C77.2752 53.6533 79.5467 54.7264 81.5256 53.5139L82.0413 54.378Z" fill="#996E52"/>
<path d="M74.1393 49.2776C74.8222 50.3228 74.5295 51.7303 73.4704 52.4271C72.4252 53.11 71.0177 52.8173 70.3348 51.7582C69.6519 50.713 69.9446 49.3055 71.0037 48.6226C72.0489 47.9397 73.4565 48.2324 74.1393 49.2776Z" fill="#C69C7F"/>
<path d="M82.8355 50.462C83.2814 51.1449 84.02 51.4933 84.7726 51.4933C84.7726 51.3957 84.7865 51.2982 84.7865 51.2146C84.8283 49.807 84.7726 48.3716 84.6193 46.978C84.2291 46.992 83.8389 47.1035 83.4905 47.3264C82.4453 47.9954 82.1526 49.4029 82.8355 50.462Z" fill="#C69C7F"/>
<path fill-rule="evenodd" clip-rule="evenodd" d="M63.4507 15.9288L64.5795 16.1379C64.468 17.3921 63.6876 18.6603 63.7294 20.1096C63.7573 21.1548 64.1893 22.1025 64.2172 23.0223C64.259 25.252 62.949 26.339 61.4997 27.6211C68.5931 25.3914 75.8119 27.8023 79.0869 31.8437C81.2469 34.5194 81.5953 36.0106 82.097 36.9582C75.798 38.3936 69.4432 35.9967 65.7083 33.6693C65.6247 40.0381 62.7818 41.6407 59.7577 45.1387C59.0469 44.8042 58.3362 44.4976 57.514 44.414C54.6571 44.1492 52.929 46.1978 52.3298 48.3021C51.4936 46.6856 50.8526 44.2468 50.8386 42.1703C50.7968 37.6272 52.8454 34.0038 55.0612 31.6486C52.8175 31.9273 51.6051 33.0562 50.0025 33.8784C48.4834 34.6588 46.7414 35.5646 44.4838 35.5786C42.6024 35.5925 40.9162 34.8539 39.4529 34.1292C37.7945 33.3209 35.6763 32.0528 33.5301 32.6241C31.384 33.1816 29.6699 34.617 27.0359 34.4219L26.9523 33.307C29.9904 33.6136 31.7742 31.3978 34.5614 31.356C38.0733 31.2863 40.7768 34.4358 44.4002 34.4637C46.5185 34.4776 48.1768 33.53 49.6959 32.7635C51.6748 31.7462 53.0963 30.4083 56.2458 30.6034L57.0123 29.8648C54.6292 28.3597 49.7098 29.7951 47.6055 30.91C44.8601 32.3594 41.6548 32.7078 39.007 31.356C38.3798 31.0354 37.3904 30.1853 36.9026 29.5861C36.2894 28.8057 35.6902 27.9417 34.5335 27.7744C32.7079 27.5096 31.9832 28.0253 30.1158 28.1925C27.677 28.4155 26.1998 27.5933 24.7783 26.0882C28.6525 18.2422 32.6382 10.4938 36.3452 2.48061C41.1949 2.32731 43.6895 4.571 45.0831 7.91564C45.8077 9.67157 46.1283 11.8595 47.8284 12.8211C49.4868 13.7548 51.3543 13.6294 53.0823 14.0335C54.8243 14.4377 56.0646 15.1345 57.2213 16.3887C59.3953 18.7578 60.2036 21.8516 60.6217 26.0742C61.4021 21.977 59.9388 17.6012 58.0296 15.1066C57.1795 13.9917 56.0089 13.1834 54.7825 12.7514C53.2356 12.2079 51.3264 12.2637 49.9746 11.2324C48.4416 10.0618 47.6333 7.5533 46.7693 5.65801C45.8356 3.59548 44.6789 1.82561 42.6024 0.989455L42.8533 0C45.5429 0.808287 46.616 2.81507 47.7727 5.33748C48.5531 7.03767 49.3475 9.72732 51.0477 10.6192C52.4413 11.3439 54.0021 11.2463 55.4793 11.8456C56.8172 12.3891 57.7927 13.2253 58.6428 14.2844C60.5938 16.6814 62.4194 20.9597 61.7644 25.8513C61.7784 25.9209 61.7366 25.9209 61.6948 25.9209C62.4473 25.475 63.1023 24.5691 63.0884 23.1337C63.0744 22.1722 62.6285 21.1688 62.6006 20.1514C62.5588 18.507 63.3392 17.3224 63.4507 15.9288Z" fill="#0B124E"/>
<path d="M52.385 47.6749C52.0227 49.9465 53.5557 52.0926 55.8412 52.4549C58.1127 52.8173 60.2589 51.2704 60.6212 48.9988C60.9835 46.7272 59.4366 44.5811 57.1651 44.2188C54.8935 43.8564 52.7474 45.3894 52.385 47.6749Z" fill="#B28564"/>
<path fill-rule="evenodd" clip-rule="evenodd" d="M69.2203 69.5267C70.0147 68.9414 71.5476 67.7568 73.1503 68.2725C74.07 68.5651 75.2825 72.7041 74.4742 74.3903C73.8053 75.77 71.4083 76.6898 70.0286 76.7177C69.513 76.7177 69.0392 76.3274 68.9695 75.7421C68.6629 76.2717 68.2448 76.7037 67.6734 76.9406C65.1231 78.0276 58.9634 75.8118 54.0858 74.251C52.4135 73.7214 45.8636 71.8958 45.8497 69.7497C45.8357 68.6627 48.0655 66.3911 48.8877 65.6385C50.4764 64.1753 51.9118 62.5866 53.5981 62.4193C55.3401 62.2521 58.7265 63.8547 61.2768 64.886C64.6633 66.2239 67.6456 67.1158 69.2203 69.5267Z" fill="#484FA3"/>
<path fill-rule="evenodd" clip-rule="evenodd" d="M138.148 128.587C138.148 128.587 133.521 102.583 134.831 92.8834C136.113 83.4348 140.698 75.0732 141.938 65.9312C143.095 57.4581 141.855 49.2916 139.486 42.3794C137.242 35.8434 134.065 29.2099 128.114 25.6283C121.355 21.5451 114.666 25.3775 111.419 29.628C106.471 36.0943 105.398 46.9643 106.304 55.7579C107.21 64.6212 109.927 71.6171 113.969 77.8186C116.031 80.9821 118.484 83.7275 120.449 86.6958C129.34 100.158 133.284 129.326 133.284 129.326C133.284 129.326 138.134 128.601 138.148 128.587ZM121.606 81.6789C115.962 78.1531 112.366 70.2932 110.582 63.5481C108.98 57.486 107.656 45.8634 110.499 37.6551C110.805 36.7632 111.474 35.8713 111.976 34.8679C113.955 30.9379 116.366 26.7571 121.411 26.576C122.595 26.5342 124.365 26.8547 125.396 27.2728C129.41 28.9312 132.546 33.1816 134.455 36.8189C136.057 39.8848 138.008 45.3896 138.789 49.9606C140.322 58.8796 139.527 73.7354 133.284 80.118C130.65 82.7937 126.051 84.4661 121.606 81.6789Z" fill="#F44040"/>
<path d="M138.148 128.587C138.148 128.587 136.782 120.895 135.737 112.31C133.925 112.575 132.044 112.979 130.26 113.3C132.322 122.163 133.284 129.326 133.284 129.326C133.284 129.326 138.134 128.601 138.148 128.587Z" fill="#7678C7"/>
<path d="M139.43 57.277C139.402 55.6744 139.304 54.1275 139.151 52.6781C137.521 51.5911 135.765 50.6017 134.134 49.5007C134.538 48.1629 135.04 46.9365 135.444 45.5987C136.392 46.0725 137.284 46.5881 138.162 47.1037C138.008 46.4906 137.841 45.8634 137.674 45.2503C137.103 44.9019 136.545 44.5674 135.946 44.2469C136.169 43.5083 136.42 42.8115 136.671 42.1147C136.42 41.39 136.155 40.6793 135.89 40.0243C135.486 41.1809 135.068 42.3098 134.65 43.4525C132.518 42.3237 130.594 41.0137 128.379 39.9406C128.769 38.0872 129.354 36.4985 129.856 34.8122C131.584 35.6762 133.2 36.6518 134.817 37.5994C134.692 37.3346 134.566 37.0838 134.441 36.8469C134.26 36.4985 134.051 36.1361 133.842 35.7738C132.532 35.077 131.263 34.3384 130.19 33.4465C130.399 32.7915 130.594 32.1226 130.803 31.4676C130.525 31.147 130.218 30.8265 129.926 30.5199C129.633 31.3561 129.326 32.1783 129.006 32.9727C127.487 32.1086 125.884 31.3003 124.504 30.3248C124.783 29.3075 125.076 28.3041 125.355 27.3007C125.048 27.1753 124.672 27.0638 124.254 26.9523C123.961 27.886 123.654 28.7919 123.334 29.6977C122.107 28.8755 120.519 28.332 119.585 27.3007C119.627 27.1474 119.669 26.9941 119.71 26.8408C119 27.0081 118.359 27.2728 117.773 27.5934C117.843 27.6352 117.899 27.663 117.955 27.7049C117.286 29.2517 116.909 31.1749 116.185 32.6382C115.432 32.2062 114.693 31.7742 113.941 31.3421C113.746 31.6487 113.551 31.9553 113.356 32.2759C114.192 32.8054 115.028 33.3211 115.85 33.8506C115.404 34.9655 115.139 36.3173 114.596 37.2928C113.62 36.6796 112.631 36.0525 111.655 35.4254C111.516 35.6623 111.391 35.8853 111.265 36.1083C112.296 36.8329 113.314 37.5715 114.303 38.338C113.871 40.0103 113.3 41.4875 112.868 43.1599C111.767 42.4352 110.68 41.7105 109.579 40.9858C109.509 41.3482 109.44 41.7245 109.384 42.1007C110.457 42.8533 111.516 43.6058 112.547 44.3723C111.962 45.8913 111.488 47.5776 111.084 49.3474C110.332 48.8736 109.579 48.3998 108.826 47.926C108.812 48.3162 108.813 48.6924 108.813 49.0827C109.467 49.5286 110.136 49.9606 110.777 50.4066C110.206 51.4796 110.248 53.3471 109.481 54.1554C109.314 54.0578 109.161 53.9463 108.994 53.8488C109.035 54.3226 109.077 54.7825 109.119 55.2424C109.189 55.2981 109.258 55.3399 109.328 55.3817C109.286 55.5908 109.245 55.7859 109.203 55.9949C109.37 57.4861 109.593 58.9075 109.83 60.2036C110.15 58.8797 110.485 57.5697 110.917 56.3851C112.436 57.2631 113.76 58.2665 115.237 59.1723C114.791 60.5798 114.457 62.1407 114.15 63.7294C112.715 62.8235 111.446 61.7923 109.969 60.9422C110.053 61.3603 110.136 61.7505 110.22 62.1407C111.488 62.935 112.478 63.9384 113.871 64.6352C113.676 66.0706 113.188 67.1158 113.021 68.593C112.659 68.3979 112.31 68.175 111.962 67.9659C112.185 68.5791 112.422 69.1923 112.687 69.7915L112.701 69.8055V69.8194C112.924 70.335 113.147 70.8507 113.384 71.3524C113.495 71.0318 113.593 70.7113 113.718 70.4047C115.084 71.1991 116.408 72.0492 117.425 73.1083C117.132 74.251 116.812 75.4635 116.477 76.6898C116.742 77.0661 117.021 77.4145 117.313 77.7769C117.773 76.4251 118.261 75.0593 118.609 73.7493C120.073 74.8503 121.857 75.7004 123.208 76.8849C122.735 78.4179 122.233 80.0763 121.745 81.7625C122.121 81.9995 122.498 82.1806 122.888 82.3479C123.487 80.7313 124.072 79.1426 124.672 77.7072C126.442 79.0311 128.657 80.0066 130.274 81.442C130.19 81.7486 130.093 82.0552 129.995 82.3618C130.776 82.0273 131.514 81.5953 132.169 81.0936C131.988 80.9543 131.793 80.8288 131.626 80.6755C132.058 79.7836 132.336 78.6966 132.657 77.6793C133.228 78.0556 133.814 78.4179 134.399 78.7942C134.622 78.5015 134.831 78.1949 135.04 77.8744C134.371 77.4285 133.744 76.9686 133.145 76.4947C133.507 74.8503 134.19 73.6379 134.538 71.9795C135.43 72.4951 136.28 73.0386 137.13 73.5821C137.256 73.2477 137.367 72.8993 137.479 72.5509C136.629 71.9655 135.807 71.3663 135.012 70.781C135.43 69.5128 135.793 68.161 136.308 67.0322C137.061 67.5339 137.785 67.9938 138.524 68.4537C138.608 68.0077 138.691 67.5757 138.761 67.1298C138.036 66.642 137.326 66.1542 136.643 65.6804C137.312 64.1893 137.632 62.2522 138.385 60.9004C138.705 61.0676 139.04 61.2488 139.36 61.4439C139.388 60.9143 139.402 60.3987 139.416 59.8691C139.193 59.7019 138.956 59.5486 138.747 59.3813C138.998 58.7124 139.207 57.9877 139.43 57.277ZM134.134 44.8043C133.758 46.184 133.173 47.2849 132.824 48.7064C130.817 47.5218 128.811 46.3373 126.887 45.083C127.069 43.564 127.668 42.6024 127.891 41.1391C130.065 42.2819 132.1 43.5361 134.134 44.8043ZM118.024 53.7512C118.4 52.0092 118.944 50.4902 119.334 48.7482C120.839 49.5843 122.093 50.6017 123.515 51.5075C123.125 53.1798 122.526 54.5734 122.233 56.3572C120.728 55.549 119.432 54.6152 118.024 53.7512ZM121.759 57.3885C121.578 58.9633 121.006 60.0224 120.728 61.4857C119.39 60.6217 118.08 59.7158 116.686 58.8936C116.909 57.3746 117.355 56.1482 117.718 54.7964C119.055 55.6744 120.365 56.5663 121.759 57.3885ZM119.655 47.5358C120.24 46.0725 120.519 44.2051 121.09 42.7139C122.595 43.5083 123.724 44.5813 125.285 45.3199C125.006 47.1316 124.295 48.358 124.003 50.1697C122.358 49.4311 121.048 48.4555 119.655 47.5358ZM123.041 58.3501C124.769 59.4789 126.442 60.6356 128.225 61.7226C127.752 62.9768 127.361 64.3286 126.915 65.6247C125.271 64.5795 123.835 63.3531 122.01 62.4473C122.191 60.8586 122.735 59.7576 123.041 58.3501ZM123.362 57.1377C123.905 55.6186 124.254 53.8348 124.797 52.3158C126.567 53.5422 128.532 54.6292 130.274 55.8834C129.703 57.3746 129.131 58.8518 128.699 60.538C126.818 59.4789 125.145 58.2665 123.362 57.1377ZM125.145 50.9501C125.564 49.3892 126.107 47.9678 126.414 46.2676C128.448 47.48 130.33 48.8039 132.336 50.0442C131.793 51.4518 131.236 52.8314 130.803 54.3783C128.783 53.3331 126.999 52.1207 125.145 50.9501ZM124.198 31.37C125.787 32.234 127.152 33.2653 128.852 34.0457C128.295 35.732 127.835 37.5576 127.222 39.1602C125.689 38.2962 124.156 37.4322 122.721 36.5124C123.264 34.854 123.71 33.0981 124.198 31.37ZM122.4 37.7109C123.891 38.6028 125.313 39.5365 126.901 40.3587C126.525 41.6826 126.051 42.8672 125.745 44.2747C124.072 43.6197 123.013 42.477 121.383 41.7941C121.592 40.289 122.107 39.1463 122.4 37.7109ZM119.097 28.4853C120.686 29.0706 121.759 30.0461 123.181 30.7708C122.651 32.4431 122.08 34.0457 121.703 35.8992C120.282 35.1885 119.111 34.2826 117.62 33.6137C118.024 31.7742 118.693 30.3109 119.097 28.4853ZM117.16 34.645C118.693 35.2721 119.724 36.2894 121.243 36.9305C121.034 38.3519 120.463 39.2857 120.254 40.7211C118.888 40.4981 117.648 39.0348 116.171 38.4356C116.435 37.0838 116.937 36.0525 117.16 34.645ZM115.92 39.1881C117.16 40.08 118.512 40.9022 119.808 41.7523C119.474 43.564 118.819 44.9297 118.498 46.7553C117.049 45.9749 115.767 45.0552 114.457 44.1633C114.889 42.4213 115.432 40.8326 115.92 39.1881ZM113.983 45.3478C115.641 45.9331 116.561 47.0759 118.038 47.7866C117.704 49.6401 117.188 51.2845 116.714 52.9429C115.432 52.0371 113.997 51.2427 112.673 50.3508C112.965 48.4834 113.676 47.1874 113.983 45.3478ZM111.223 55.326C111.46 53.8209 112.046 52.7757 112.255 51.2288C113.718 52.051 114.916 53.0683 116.449 53.8348C116.31 55.4096 115.697 56.3433 115.571 57.9459C113.927 57.2213 112.77 56.1343 111.223 55.326ZM117.927 71.7704C116.38 71.1015 115.321 70.0703 113.871 69.3316C114.192 68.0495 114.568 66.865 114.861 65.5411C116.38 66.3215 117.481 67.4224 118.874 68.2864C118.498 69.3735 118.177 70.5301 117.927 71.7704ZM119.167 67.2412C117.815 66.3354 116.491 65.4017 115.153 64.4959C115.585 63.0047 115.878 61.3324 116.394 59.9527C117.718 60.8307 118.944 61.7923 120.435 62.5448C120.003 64.0917 119.543 65.6107 119.167 67.2412ZM123.668 75.6865C122.01 74.7388 120.658 73.5543 118.902 72.6902C119.292 71.5753 119.571 70.3072 120.003 69.2341C121.717 70.1399 123.027 71.3524 124.602 72.3697C124.407 73.6379 123.835 74.3904 123.668 75.6865ZM125.062 71.1712C123.362 70.2096 121.912 69.0529 120.31 68.0217C120.7 66.4748 121.202 65.0812 121.55 63.4785C123.264 64.468 124.853 65.5689 126.455 66.6559C126.149 68.3561 125.466 69.5825 125.062 71.1712ZM130.748 80.1042C128.866 79.4492 126.971 77.6375 124.936 76.648C125.104 75.352 125.675 74.5994 125.856 73.3173C127.891 74.488 129.73 75.7979 131.626 77.0801C131.389 78.1531 130.915 78.9196 130.748 80.1042ZM131.96 75.8676C130.149 74.5716 128.17 73.4149 126.358 72.1328C126.901 70.6695 127.389 69.1365 127.905 67.6315C129.828 68.7463 131.458 70.0842 133.382 71.1991C132.95 72.8156 132.476 74.3765 131.96 75.8676ZM133.855 70.0145C131.765 69.0251 130.107 67.7151 128.379 66.4469C128.629 65.0115 129.271 64.1056 129.521 62.6842C131.403 63.8269 133.214 65.0394 134.998 66.2518C134.552 67.4224 134.134 68.6209 133.855 70.0145ZM135.333 64.8861C133.423 63.8548 131.849 62.5727 129.995 61.4996C130.525 59.897 131.166 58.4337 131.584 56.6917C133.451 57.709 135.124 58.8797 136.949 59.9249C136.489 61.6947 135.904 63.2834 135.333 64.8861ZM137.451 58.5731C135.542 57.6254 134.009 56.399 132.239 55.3539C132.573 53.6676 133.214 52.3855 133.632 50.8386C135.388 51.9395 137.116 53.0683 138.998 54.0717C138.552 55.6744 137.953 57.068 137.451 58.5731Z" fill="#484FA3"/>
<path fill-rule="evenodd" clip-rule="evenodd" d="M131.779 101.064C131.166 100.367 131.319 96.6321 132.587 96.7575C133.618 96.869 133.409 100.158 132.643 100.924C132.448 101.133 132.267 101.203 131.779 101.064Z" fill="white"/>
<path fill-rule="evenodd" clip-rule="evenodd" d="M132.489 95.141C131.319 95.1549 131.57 92.312 132.643 92.4374C133.089 92.4931 133.172 92.8137 133.27 93.385C133.395 94.2212 133.312 95.127 132.489 95.141Z" fill="white"/>
<path d="M128.81 85.1488C126.372 85.6226 123.793 85.2324 121.759 83.9921C122.233 85.9014 123.361 88.0614 124.811 89.4829C125.675 90.333 127.027 91.0856 128.309 91.3364C129.479 91.5594 131.096 90.988 131.584 90.7093C132.726 90.0682 133.66 88.814 134.148 87.6991C134.97 85.8456 135.207 83.4208 134.956 81.4697C133.507 83.379 131.263 84.6889 128.81 85.1488Z" fill="white"/>
<path fill-rule="evenodd" clip-rule="evenodd" d="M138.649 116.421C139.026 115.557 139.472 114.902 139.332 114.108C139.137 113.021 138.176 112.937 137.479 112.212C137.562 111.321 138.287 110.652 138.162 109.788C138.036 108.91 137.298 108.84 136.629 108.338C136.74 106.889 136.921 105.746 136.113 105.133C134.51 103.893 131.291 105.872 129.703 106.067C129.215 105.872 129.02 105.412 128.713 105.175C126.776 103.628 124.853 105.774 123.822 107.669C122.93 109.3 122.595 111.348 122.651 113.188C109.049 117.829 94.6815 121.703 80.6618 125.912C77.5123 118.665 72.565 103.865 63.1443 87.8524C61.1654 84.4799 58.3085 79.5465 54.9639 77.4979C53.8211 76.8011 52.4275 76.2855 50.7692 76.6757C48.5673 77.2053 47.1876 80.0064 46.9507 82.5985C46.3933 89.0369 48.8181 94.6253 50.4347 99.1963C53.9326 109.147 57.2633 118.846 61.0679 128.796C61.9319 131.054 62.8656 133.618 63.9805 136.001C66.1266 140.572 68.7884 145.742 74.9202 146.272C81.1914 146.816 85.9993 144.642 90.9745 142.788C104.409 137.785 115.209 131.751 126.734 124.588C127.793 123.919 128.852 123.041 129.73 122.734C130.776 122.372 132.295 122.441 133.605 122.219C134.859 122.009 136.169 121.773 137.158 121.368C138.078 120.992 139.904 119.877 139.946 118.525C139.987 117.397 139.04 117.355 138.649 116.421Z" fill="#B28564"/>
<path fill-rule="evenodd" clip-rule="evenodd" d="M74.544 132.016C75.3244 132.043 81.721 127.013 80.6758 125.898C79.6027 124.727 74.53 130.817 74.544 132.016Z" fill="#996E52"/>
<path d="M91.0024 142.788C86.0272 144.642 81.2332 146.83 74.9481 146.272C68.8163 145.729 66.1545 140.572 64.0084 136.001C62.8935 133.618 61.9598 131.04 61.0957 128.796C57.2912 118.832 53.9605 109.147 50.4626 99.1963C48.846 94.6393 46.4351 89.0649 46.9786 82.6404C47.9402 84.02 48.7903 85.7342 49.3756 86.9187C50.6438 89.4969 51.5635 92.1587 52.4972 94.5696C54.5598 99.8653 56.5944 105.189 58.42 110.206C60.2317 115.195 61.9458 120.881 64.0084 126.176C65.9037 131.04 68.7048 136.67 72.7184 139.081C74.0144 139.848 75.4777 140.321 77.1221 140.447C82.3899 140.851 87.8668 139.43 92.6189 138.175C97.19 136.963 101.747 135.277 105.928 133.674C110.373 131.96 114.415 130.204 118.359 128.267C120.352 127.291 122.414 126.344 124.463 125.452C125.382 125.048 126.33 124.63 127.292 124.267C127.124 124.379 126.957 124.49 126.79 124.588C115.223 131.751 104.437 137.785 91.0024 142.788Z" fill="#996E52"/>
<path d="M127.599 106.15C127.891 105.899 128.407 105.565 128.909 105.37C129.104 105.607 129.299 105.885 129.647 106.039C128.17 107.46 125.118 110.443 125.118 110.443C124.839 109.286 126.33 107.265 127.599 106.15Z" fill="#996E52"/>
<path d="M133.048 109.467C133.145 108.519 135.403 107 136.727 107.377C136.699 107.683 136.671 108.018 136.643 108.366C136.671 108.38 136.685 108.394 136.713 108.422C135.947 108.38 134.901 108.728 133.048 109.467Z" fill="#996E52"/>
<path d="M137.688 111.474C137.604 111.711 137.535 111.976 137.507 112.24C137.535 112.268 137.577 112.296 137.59 112.324C136.197 112.408 134.761 112.951 133.897 113.495C134.037 112.199 136.211 111.181 137.688 111.474Z" fill="#996E52"/>
<path d="M139.054 115.557C138.928 115.836 138.789 116.128 138.65 116.435C137.131 116.505 135.584 116.978 134.873 117.132C135.458 115.891 137.284 115.264 139.054 115.557Z" fill="#996E52"/>
<path fill-rule="evenodd" clip-rule="evenodd" d="M49.9191 112.268C57.4863 108.826 65.2626 105.607 73.1086 102.443C69.6106 94.7508 66.0709 85.999 60.1899 79.9926C58.2249 77.9997 55.5771 75.7421 52.6087 75.3937C49.4174 75.0314 47.104 76.9267 45.9473 78.8638C44.6095 81.0935 44.0242 84.2709 43.9824 87.3508C43.9266 90.4585 44.6931 93.608 45.3342 96.3116C46.7556 102.304 48.4419 107.182 49.9191 112.268Z" fill="#484FA3"/>
</svg>
