<svg width="35" height="35" viewBox="0 0 35 35" fill="none" xmlns="http://www.w3.org/2000/svg">
<path d="M13.6481 0C15.2631 0 16.644 1.41162 16.644 3.0625V9.88825C17.8094 8.77126 20.046 8.63413 21.4937 10.3188C23.0543 9.34213 25.1179 10.1721 25.7535 11.4434C29.1128 10.8299 30.625 12.9436 30.625 16.4062C30.625 16.594 30.6111 17.3138 30.6117 17.5C30.6232 21.7363 28.4881 22.7564 27.9925 25.9582C27.869 26.7561 27.1796 27.3438 26.3721 27.3438H14.6467L14.6467 27.3436C13.3912 27.3429 12.1933 26.6185 11.6495 25.3978C10.7612 23.4232 8.29726 18.8755 6.36371 18.0469C5.11991 17.5139 4.37555 16.5851 4.375 15.3125C4.37404 12.9731 6.77428 11.3646 8.94879 12.2966C9.52021 12.5415 10.0883 12.8648 10.6522 13.264V3.0625C10.6522 1.45947 12.0565 0 13.6481 0ZM13.6719 28.4375H26.7969C27.703 28.4375 28.4375 29.172 28.4375 30.0781V33.3594C28.4375 34.2655 27.703 35 26.7969 35H13.6719C12.7658 35 12.0313 34.2655 12.0313 33.3594V30.0781C12.0313 29.172 12.7658 28.4375 13.6719 28.4375ZM25.1562 30.3516C24.4012 30.3516 23.7891 30.9637 23.7891 31.7188C23.7891 32.4738 24.4012 33.0859 25.1562 33.0859C25.9113 33.0859 26.5234 32.4738 26.5234 31.7188C26.5234 30.9637 25.9113 30.3516 25.1562 30.3516Z" fill="#B3A7A7"/>
</svg>
