<svg width="38" height="37" viewBox="0 0 38 37" fill="none" xmlns="http://www.w3.org/2000/svg">
<path d="M35.923 13.1091L32.7339 9.92C32.4766 9.66617 32.1336 9.51796 31.7724 9.50458C31.4112 9.49121 31.0581 9.61364 30.7828 9.84774C30.3576 10.2096 29.8121 10.3985 29.2542 10.3771C28.6963 10.3557 28.1669 10.1255 27.7707 9.73211C27.3776 9.33601 27.1475 8.80669 27.1261 8.24899C27.1046 7.69129 27.2935 7.14589 27.6551 6.7208C27.8892 6.44544 28.0116 6.09235 27.9983 5.73117C27.9849 5.36999 27.8367 5.02693 27.5828 4.76963L24.3909 1.57694C24.1211 1.3077 23.7556 1.15649 23.3745 1.15649C22.9933 1.15649 22.6278 1.3077 22.358 1.57694L17.2742 6.6601C16.9603 6.9751 16.7236 7.35848 16.5826 7.78022C16.5551 7.8613 16.5093 7.93497 16.4488 7.9955C16.3883 8.05603 16.3146 8.10181 16.2335 8.12926C15.8116 8.27026 15.4282 8.50724 15.1134 8.82157L2.07669 21.8583C1.80746 22.128 1.65625 22.4936 1.65625 22.8747C1.65625 23.2558 1.80746 23.6214 2.07669 23.8911L5.26939 27.0802C5.52668 27.334 5.86975 27.4822 6.23093 27.4956C6.59211 27.509 6.94519 27.3866 7.22056 27.1525C7.64468 26.7877 8.19098 26.5966 8.75 26.6176C9.30902 26.6386 9.83946 26.8701 10.235 27.2657C10.6306 27.6612 10.8621 28.1917 10.8831 28.7507C10.904 29.3097 10.713 29.856 10.3482 30.2801C10.1141 30.5555 9.99168 30.9086 10.0051 31.2697C10.0184 31.6309 10.1667 31.974 10.4205 32.2313L13.6096 35.4204C13.8793 35.6896 14.2449 35.8408 14.626 35.8408C15.0071 35.8408 15.3726 35.6896 15.6424 35.4204L28.6791 22.3837C28.9933 22.069 29.2302 21.6859 29.3714 21.2643C29.3988 21.1829 29.4446 21.109 29.5052 21.0483C29.5659 20.9876 29.6398 20.9418 29.7212 20.9145C30.1427 20.7735 30.5258 20.5368 30.8406 20.2229L35.9237 15.139C36.192 14.8693 36.3425 14.5043 36.3424 14.1239C36.3422 13.7435 36.1915 13.3786 35.923 13.1091ZM19.4197 10.9664C19.3123 11.0738 19.1849 11.159 19.0446 11.2171C18.9043 11.2752 18.7539 11.3052 18.602 11.3052C18.4502 11.3052 18.2998 11.2752 18.1595 11.2171C18.0192 11.159 17.8917 11.0738 17.7843 10.9664L16.9526 10.1346C16.741 9.9167 16.6237 9.62428 16.626 9.32055C16.6283 9.01683 16.75 8.72621 16.9648 8.51149C17.1796 8.29676 17.4703 8.17519 17.774 8.17304C18.0777 8.17088 18.3701 8.28833 18.5879 8.49998L19.4197 9.33104C19.5271 9.43841 19.6123 9.56588 19.6704 9.70618C19.7286 9.84648 19.7585 9.99686 19.7585 10.1487C19.7585 10.3006 19.7286 10.451 19.6704 10.5913C19.6123 10.7316 19.5271 10.859 19.4197 10.9664ZM22.5994 14.1461C22.3826 14.3628 22.0886 14.4845 21.7821 14.4845C21.4756 14.4845 21.1816 14.3628 20.9648 14.1461L20.1698 13.3512C20.0625 13.2438 19.9773 13.1163 19.9192 12.976C19.8611 12.8357 19.8311 12.6853 19.8311 12.5335C19.8311 12.3816 19.8611 12.2313 19.9192 12.091C19.9773 11.9507 20.0625 11.8232 20.1698 11.7158C20.3867 11.4989 20.6808 11.3771 20.9875 11.3771C21.1394 11.3771 21.2898 11.407 21.4301 11.4651C21.5703 11.5232 21.6978 11.6084 21.8052 11.7158L22.6001 12.5107C22.7079 12.6181 22.7934 12.7457 22.8518 12.8861C22.9102 13.0266 22.9403 13.1772 22.9403 13.3293C22.9404 13.4815 22.9104 13.6321 22.8522 13.7726C22.7939 13.9132 22.7085 14.0408 22.6009 14.1483L22.5994 14.1461ZM25.7791 17.3258C25.6717 17.4332 25.5442 17.5184 25.4039 17.5765C25.2636 17.6346 25.1133 17.6645 24.9614 17.6645C24.8095 17.6645 24.6592 17.6346 24.5189 17.5765C24.3786 17.5184 24.2511 17.4332 24.1437 17.3258L23.3488 16.5309C23.1372 16.3129 23.0199 16.0205 23.0222 15.7168C23.0245 15.4131 23.1462 15.1224 23.361 14.9077C23.5758 14.693 23.8665 14.5714 24.1702 14.5693C24.474 14.5671 24.7663 14.6846 24.9842 14.8962L25.7791 15.6911C25.8872 15.7983 25.973 15.9258 26.0317 16.0662C26.0904 16.2067 26.1208 16.3573 26.1211 16.5095C26.1214 16.6617 26.0917 16.8125 26.0336 16.9532C25.9756 17.0939 25.8903 17.2217 25.7827 17.3294L25.7791 17.3258ZM28.9899 20.5445C28.8825 20.6519 28.755 20.7371 28.6147 20.7952C28.4744 20.8533 28.324 20.8832 28.1722 20.8832C28.0203 20.8832 27.8699 20.8533 27.7296 20.7952C27.5893 20.7371 27.4619 20.6519 27.3545 20.5445L26.5278 19.7134C26.4181 19.6064 26.3308 19.4786 26.271 19.3375C26.2112 19.1964 26.18 19.0449 26.1793 18.8916C26.1785 18.7384 26.2083 18.5865 26.2668 18.4449C26.3252 18.3032 26.4113 18.1746 26.5199 18.0665C26.6285 17.9584 26.7576 17.873 26.8995 17.8152C27.0414 17.7574 27.1934 17.7284 27.3466 17.7299C27.4999 17.7314 27.6513 17.7633 27.7921 17.8238C27.9329 17.8843 28.0602 17.9722 28.1668 18.0824L28.9942 18.9127C29.1015 19.0202 29.1867 19.1477 29.2447 19.288C29.3028 19.4283 29.3326 19.5787 29.3326 19.7306C29.3325 19.8824 29.3025 20.0328 29.2443 20.1731C29.1862 20.3133 29.1009 20.4408 28.9935 20.5481L28.9899 20.5445Z" fill="#9290C3"/>
<g clip-path="url(#clip0_204_16212)">
<path d="M12.4255 26.4484C12.3573 26.8369 12.7405 27.1405 13.0783 26.9672L16.9195 24.9932L20.7599 26.9672C21.0976 27.1405 21.4809 26.8369 21.4126 26.4492L20.6864 22.3105L23.7681 19.374C24.0569 19.0992 23.9081 18.597 23.5214 18.5427L19.2356 17.9337L17.3246 14.1476C17.2882 14.0709 17.2308 14.006 17.159 13.9606C17.0872 13.9152 17.004 13.8911 16.9191 13.8911C16.8341 13.8911 16.7509 13.9152 16.6791 13.9606C16.6074 14.006 16.5499 14.0709 16.5135 14.1476L14.6025 17.9346L10.3168 18.5436C9.93089 18.5979 9.78127 19.1001 10.0691 19.3749L13.1518 22.3114L12.4255 26.4501V26.4484ZM16.7174 24.0272L13.4921 25.6845L14.0994 22.2221C14.1136 22.1424 14.1081 22.0604 14.0832 21.9834C14.0583 21.9063 14.0149 21.8366 13.9568 21.7802L11.414 19.3565L14.9595 18.8525C15.0329 18.8414 15.1026 18.8127 15.1625 18.7688C15.2223 18.7249 15.2707 18.6672 15.3034 18.6005L16.9178 15.3997L18.5339 18.6005C18.5666 18.6672 18.6149 18.7249 18.6748 18.7688C18.7347 18.8127 18.8044 18.8414 18.8778 18.8525L22.4233 19.3556L19.8805 21.7794C19.8222 21.8358 19.7788 21.9057 19.7539 21.9829C19.729 22.0601 19.7235 22.1423 19.7379 22.2221L20.3451 25.6845L17.1199 24.0272C17.0575 23.9951 16.9884 23.9783 16.9182 23.9783C16.848 23.9783 16.7798 23.9951 16.7174 24.0272Z" fill="#1B1A55"/>
</g>
<defs>
<clipPath id="clip0_204_16212">
<rect width="14" height="14" fill="white" transform="translate(9.91797 13.4546)"/>
</clipPath>
</defs>
</svg>
