<svg width="21" height="21" viewBox="0 0 21 21" fill="none" xmlns="http://www.w3.org/2000/svg">
<g clip-path="url(#clip0_204_17452)">
<path d="M4.14332 19.3413C4.04582 19.8963 4.59332 20.33 5.07582 20.0825L10.5633 17.2625L16.0496 20.0825C16.5321 20.33 17.0796 19.8963 16.9821 19.3425L15.9446 13.43L20.3471 9.23502C20.7596 8.84252 20.5471 8.12502 19.9946 8.04752L13.8721 7.17752L11.1421 1.76877C11.0901 1.65913 11.008 1.5665 10.9055 1.50164C10.8029 1.43678 10.684 1.40234 10.5627 1.40234C10.4413 1.40234 10.3225 1.43678 10.2199 1.50164C10.1174 1.5665 10.0353 1.65913 9.98332 1.76877L7.25332 7.17877L1.13082 8.04877C0.579567 8.12627 0.365817 8.84377 0.777067 9.23627L5.18082 13.4313L4.14332 19.3438V19.3413ZM10.2746 15.8825L5.66707 18.25L6.53457 13.3038C6.55489 13.1899 6.54694 13.0728 6.51141 12.9627C6.47589 12.8527 6.41387 12.753 6.33082 12.6725L2.69832 9.21002L7.76332 8.49002C7.8682 8.47418 7.96768 8.43316 8.05323 8.37046C8.13879 8.30776 8.20787 8.22526 8.25457 8.13002L10.5608 3.55752L12.8696 8.13002C12.9163 8.22526 12.9853 8.30776 13.0709 8.37046C13.1565 8.43316 13.2559 8.47418 13.3608 8.49002L18.4258 9.20877L14.7933 12.6713C14.7101 12.7519 14.6479 12.8518 14.6124 12.9621C14.5769 13.0724 14.569 13.1897 14.5896 13.3038L15.4571 18.25L10.8496 15.8825C10.7605 15.8366 10.6617 15.8126 10.5614 15.8126C10.4612 15.8126 10.3637 15.8366 10.2746 15.8825Z" fill="#1B1A55"/>
</g>
<defs>
<clipPath id="clip0_204_17452">
<rect width="20" height="20" fill="white" transform="translate(0.560547 0.778809)"/>
</clipPath>
</defs>
</svg>
