<svg width="60" height="60" viewBox="0 0 60 60" fill="none" xmlns="http://www.w3.org/2000/svg">
<path d="M20 15C20 16.3261 19.4732 17.5979 18.5355 18.5355C17.5979 19.4732 16.3261 20 15 20C13.6739 20 12.4021 19.4732 11.4645 18.5355C10.5268 17.5979 10 16.3261 10 15C10 13.6739 10.5268 12.4021 11.4645 11.4645C12.4021 10.5268 13.6739 10 15 10C16.3261 10 17.5979 10.5268 18.5355 11.4645C19.4732 12.4021 20 13.6739 20 15Z" fill="#9290C3"/>
<path d="M20 30C20 31.3261 19.4732 32.5979 18.5355 33.5355C17.5979 34.4732 16.3261 35 15 35C13.6739 35 12.4021 34.4732 11.4645 33.5355C10.5268 32.5979 10 31.3261 10 30C10 28.6739 10.5268 27.4021 11.4645 26.4645C12.4021 25.5268 13.6739 25 15 25C16.3261 25 17.5979 25.5268 18.5355 26.4645C19.4732 27.4021 20 28.6739 20 30Z" fill="#9290C3"/>
<path d="M15 50C16.3261 50 17.5979 49.4732 18.5355 48.5355C19.4732 47.5979 20 46.3261 20 45C20 43.6739 19.4732 42.4021 18.5355 41.4645C17.5979 40.5268 16.3261 40 15 40C13.6739 40 12.4021 40.5268 11.4645 41.4645C10.5268 42.4021 10 43.6739 10 45C10 46.3261 10.5268 47.5979 11.4645 48.5355C12.4021 49.4732 13.6739 50 15 50Z" fill="#9290C3"/>
<path d="M35 15C35 16.3261 34.4732 17.5979 33.5355 18.5355C32.5979 19.4732 31.3261 20 30 20C28.6739 20 27.4021 19.4732 26.4645 18.5355C25.5268 17.5979 25 16.3261 25 15C25 13.6739 25.5268 12.4021 26.4645 11.4645C27.4021 10.5268 28.6739 10 30 10C31.3261 10 32.5979 10.5268 33.5355 11.4645C34.4732 12.4021 35 13.6739 35 15Z" fill="#9290C3"/>
<path d="M30 35C31.3261 35 32.5979 34.4732 33.5355 33.5355C34.4732 32.5979 35 31.3261 35 30C35 28.6739 34.4732 27.4021 33.5355 26.4645C32.5979 25.5268 31.3261 25 30 25C28.6739 25 27.4021 25.5268 26.4645 26.4645C25.5268 27.4021 25 28.6739 25 30C25 31.3261 25.5268 32.5979 26.4645 33.5355C27.4021 34.4732 28.6739 35 30 35Z" fill="#9290C3"/>
<path d="M35 45C35 46.3261 34.4732 47.5979 33.5355 48.5355C32.5979 49.4732 31.3261 50 30 50C28.6739 50 27.4021 49.4732 26.4645 48.5355C25.5268 47.5979 25 46.3261 25 45C25 43.6739 25.5268 42.4021 26.4645 41.4645C27.4021 40.5268 28.6739 40 30 40C31.3261 40 32.5979 40.5268 33.5355 41.4645C34.4732 42.4021 35 43.6739 35 45Z" fill="#9290C3"/>
<path d="M45 20C46.3261 20 47.5979 19.4732 48.5355 18.5355C49.4732 17.5979 50 16.3261 50 15C50 13.6739 49.4732 12.4021 48.5355 11.4645C47.5979 10.5268 46.3261 10 45 10C43.6739 10 42.4021 10.5268 41.4645 11.4645C40.5268 12.4021 40 13.6739 40 15C40 16.3261 40.5268 17.5979 41.4645 18.5355C42.4021 19.4732 43.6739 20 45 20Z" fill="#9290C3"/>
<path d="M50 30C50 31.3261 49.4732 32.5979 48.5355 33.5355C47.5979 34.4732 46.3261 35 45 35C43.6739 35 42.4021 34.4732 41.4645 33.5355C40.5268 32.5979 40 31.3261 40 30C40 28.6739 40.5268 27.4021 41.4645 26.4645C42.4021 25.5268 43.6739 25 45 25C46.3261 25 47.5979 25.5268 48.5355 26.4645C49.4732 27.4021 50 28.6739 50 30Z" fill="#9290C3"/>
<path d="M45 50C46.3261 50 47.5979 49.4732 48.5355 48.5355C49.4732 47.5979 50 46.3261 50 45C50 43.6739 49.4732 42.4021 48.5355 41.4645C47.5979 40.5268 46.3261 40 45 40C43.6739 40 42.4021 40.5268 41.4645 41.4645C40.5268 42.4021 40 43.6739 40 45C40 46.3261 40.5268 47.5979 41.4645 48.5355C42.4021 49.4732 43.6739 50 45 50Z" fill="#9290C3"/>
</svg>
