<svg width="45" height="46" viewBox="0 0 45 46" fill="none" xmlns="http://www.w3.org/2000/svg">
<g clip-path="url(#clip0_204_17536)">
<path d="M22.5098 12.8923C16.1214 12.8923 10.9685 17.4011 10.9685 22.991C10.9685 28.5808 16.1214 33.0896 22.5098 33.0896C28.8982 33.0896 34.0511 28.5808 34.0511 22.991C34.0511 17.4011 28.8982 12.8923 22.5098 12.8923ZM22.5098 29.5564C18.3814 29.5564 15.0064 26.6121 15.0064 22.991C15.0064 19.3699 18.3714 16.4255 22.5098 16.4255C26.6482 16.4255 30.0131 19.3699 30.0131 22.991C30.0131 26.6121 26.6381 29.5564 22.5098 29.5564ZM37.2151 12.4792C37.2151 13.7888 36.0098 14.8347 34.5232 14.8347C33.0265 14.8347 31.8312 13.78 31.8312 12.4792C31.8312 11.1785 33.0366 10.1238 34.5232 10.1238C36.0098 10.1238 37.2151 11.1785 37.2151 12.4792ZM44.8591 14.8699C44.6883 11.7146 43.8647 8.91968 41.2229 6.61694C38.5912 4.31421 35.397 3.59351 31.791 3.4353C28.0745 3.25073 16.935 3.25073 13.2185 3.4353C9.62249 3.58472 6.42829 4.30542 3.78655 6.60815C1.14481 8.91089 0.331194 11.7058 0.150391 14.8611C-0.0605469 18.113 -0.0605469 27.8601 0.150391 31.1121C0.32115 34.2673 1.14481 37.0623 3.78655 39.365C6.42829 41.6677 9.61244 42.3884 13.2185 42.5466C16.935 42.7312 28.0745 42.7312 31.791 42.5466C35.397 42.3972 38.5912 41.6765 41.2229 39.365C43.8546 37.0623 44.6783 34.2673 44.8591 31.1121C45.07 27.8601 45.07 18.1218 44.8591 14.8699ZM40.0578 34.6013C39.2743 36.324 37.7575 37.6511 35.7787 38.3455C32.8156 39.3738 25.7843 39.1365 22.5098 39.1365C19.2352 39.1365 12.1939 39.365 9.24079 38.3455C7.27204 37.6599 5.7553 36.3328 4.96177 34.6013C3.78655 32.0085 4.05776 25.8562 4.05776 22.991C4.05776 20.1257 3.7966 13.9646 4.96177 11.3806C5.74526 9.65796 7.262 8.33081 9.24079 7.63647C12.204 6.60815 19.2352 6.84546 22.5098 6.84546C25.7843 6.84546 32.8256 6.61694 35.7787 7.63647C37.7475 8.32202 39.2642 9.64917 40.0578 11.3806C41.233 13.9734 40.9618 20.1257 40.9618 22.991C40.9618 25.8562 41.233 32.0173 40.0578 34.6013Z" fill="white"/>
</g>
<defs>
<clipPath id="clip0_204_17536">
<rect width="45" height="45" fill="white" transform="translate(0 0.5)"/>
</clipPath>
</defs>
</svg>
