<svg width="80" height="80" viewBox="0 0 80 80" fill="none" xmlns="http://www.w3.org/2000/svg">
<path d="M53.333 26.6665C58.6373 26.6665 63.7244 28.7736 67.4751 32.5244C71.2259 36.2751 73.333 41.3622 73.333 46.6665V69.9998H59.9997V46.6665C59.9997 44.8984 59.2973 43.2027 58.0471 41.9525C56.7968 40.7022 55.1011 39.9998 53.333 39.9998C51.5649 39.9998 49.8692 40.7022 48.619 41.9525C47.3687 43.2027 46.6663 44.8984 46.6663 46.6665V69.9998H33.333V46.6665C33.333 41.3622 35.4401 36.2751 39.1909 32.5244C42.9416 28.7736 48.0287 26.6665 53.333 26.6665Z" stroke="#1B1A55" stroke-width="2" stroke-linecap="round" stroke-linejoin="round"/>
<path d="M20.0003 30H6.66699V70H20.0003V30Z" stroke="#1B1A55" stroke-width="2" stroke-linecap="round" stroke-linejoin="round"/>
<path d="M13.3337 19.9998C17.0156 19.9998 20.0003 17.0151 20.0003 13.3332C20.0003 9.65127 17.0156 6.6665 13.3337 6.6665C9.65176 6.6665 6.66699 9.65127 6.66699 13.3332C6.66699 17.0151 9.65176 19.9998 13.3337 19.9998Z" stroke="#1B1A55" stroke-width="2" stroke-linecap="round" stroke-linejoin="round"/>
</svg>
