<svg width="80" height="80" viewBox="0 0 80 80" fill="none" xmlns="http://www.w3.org/2000/svg">
<path d="M70 33.3335C70 56.6668 40 76.6668 40 76.6668C40 76.6668 10 56.6668 10 33.3335C10 25.377 13.1607 17.7464 18.7868 12.1203C24.4129 6.4942 32.0435 3.3335 40 3.3335C47.9565 3.3335 55.5871 6.4942 61.2132 12.1203C66.8393 17.7464 70 25.377 70 33.3335Z" stroke="black" stroke-width="2" stroke-linecap="round" stroke-linejoin="round"/>
<path d="M40 43.3335C45.5228 43.3335 50 38.8563 50 33.3335C50 27.8106 45.5228 23.3335 40 23.3335C34.4772 23.3335 30 27.8106 30 33.3335C30 38.8563 34.4772 43.3335 40 43.3335Z" stroke="black" stroke-width="2" stroke-linecap="round" stroke-linejoin="round"/>
</svg>
