<svg width="41" height="41" viewBox="0 0 41 41" fill="none" xmlns="http://www.w3.org/2000/svg">
<path d="M20.5 0.5C9.45161 0.5 0.5 9.45161 0.5 20.5C0.5 31.5484 9.45161 40.5 20.5 40.5C31.5484 40.5 40.5 31.5484 40.5 20.5C40.5 9.45161 31.5484 0.5 20.5 0.5ZM20.5 8.24194C24.4194 8.24194 27.5968 11.4194 27.5968 15.3387C27.5968 19.2581 24.4194 22.4355 20.5 22.4355C16.5806 22.4355 13.4032 19.2581 13.4032 15.3387C13.4032 11.4194 16.5806 8.24194 20.5 8.24194ZM20.5 35.9839C15.7661 35.9839 11.5242 33.8387 8.68548 30.4839C10.2016 27.629 13.1694 25.6613 16.629 25.6613C16.8226 25.6613 17.0161 25.6935 17.2016 25.75C18.25 26.0887 19.3468 26.3065 20.5 26.3065C21.6532 26.3065 22.7581 26.0887 23.7984 25.75C23.9839 25.6935 24.1774 25.6613 24.371 25.6613C27.8306 25.6613 30.7984 27.629 32.3145 30.4839C29.4758 33.8387 25.2339 35.9839 20.5 35.9839Z" fill="#9290C3"/>
</svg>
