<svg width="136" height="250" viewBox="0 0 136 250" fill="none" xmlns="http://www.w3.org/2000/svg">
<g clip-path="url(#clip0_204_16333)">
<path fill-rule="evenodd" clip-rule="evenodd" d="M128.432 39.0557C131.881 39.0209 135.818 42.1797 134.889 46.6857C134.366 49.2057 131.556 51.6794 128.618 51.6329C123.926 51.5749 120.349 45.9889 123.287 41.7152C124.239 40.3099 126.307 39.0789 128.432 39.0557Z" fill="#A2C037"/>
<path d="M132.194 42.3074C132.763 42.4003 133.46 42.3306 134.006 42.0635C133.797 41.7616 133.576 41.4713 133.321 41.2041C133.077 41.3319 132.81 41.4364 132.485 41.4132C131.532 41.3435 130.963 40.6119 130.801 39.5202C130.592 39.4389 130.383 39.3692 130.174 39.2996C130.023 40.6815 130.87 42.0868 132.194 42.3074Z" fill="#7678C7"/>
<path d="M129.57 50.2509C129.35 47.7889 131.347 44.7462 129.443 43.3759C126.795 41.4713 124.646 46.2443 122.73 45.9772C122.544 45.954 122.393 45.8727 122.254 45.7914C122.289 46.0469 122.335 46.3024 122.393 46.5463C122.498 46.5811 122.602 46.616 122.707 46.6276C125.029 46.9411 126.086 43.2365 128.386 43.7359C131.266 44.3514 127.515 48.9619 128.757 51.0058C128.874 51.2032 129.152 51.4123 129.501 51.5749C130.128 51.482 130.732 51.2845 131.301 51.0058C130.685 50.7852 129.756 50.8664 129.57 50.2509Z" fill="#7678C7"/>
<path fill-rule="evenodd" clip-rule="evenodd" d="M109.862 91.42C109.851 91.1877 109.874 90.9787 109.932 90.8045C109.897 90.4909 109.851 90.1773 109.793 89.8754C101.326 90.2586 92.7906 90.5257 84.731 91.5013C79.4818 84.3126 72.8273 75.0916 66.6723 67.9146C65.7084 66.7881 64.698 65.4061 63.5599 64.8139C63.4786 64.7674 62.747 65.0461 62.8283 64.9648C60.4592 67.2759 59.8088 73.8026 58.8333 78.506C58.5081 78.4014 58.241 77.6582 57.7881 78.0298C62.8515 85.4507 68.9949 93.4639 75.3823 100.258C76.4159 101.361 77.3798 102.615 78.3785 103.196C82.5012 105.577 87.6459 103.463 91.1416 102.104C94.3468 100.862 97.2966 99.4912 100.014 98.3299C103.44 96.8666 106.796 95.6008 110.129 94.3117C110.036 93.3594 109.92 92.3955 109.862 91.42Z" fill="#DD9083"/>
<path fill-rule="evenodd" clip-rule="evenodd" d="M110.594 89.8288C101.872 90.2237 93.0462 90.4792 84.7427 91.4896C79.4935 84.3009 72.8391 75.0799 66.684 67.9029C65.7201 66.7764 64.7097 65.3944 63.5716 64.8021C63.4903 64.7557 62.7587 65.0344 62.84 64.9531C60.4709 67.2642 59.8205 73.7908 58.845 78.4942C58.5198 78.3897 58.2527 77.6465 57.7998 78.0181C62.8632 85.439 69.0067 93.4522 75.394 100.246C76.4276 101.349 77.3915 102.603 78.3902 103.184C82.513 105.565 87.6577 103.451 91.1533 102.093C94.3585 100.85 97.3083 99.4795 100.026 98.3182C103.649 96.7736 107.191 95.4381 110.733 94.0793C110.606 92.6857 110.571 91.2573 110.594 89.8288Z" fill="#996E52"/>
<path fill-rule="evenodd" clip-rule="evenodd" d="M79.8994 96.553C80.5498 96.5762 85.8803 92.3838 85.0209 91.4432C84.1267 90.4792 79.8878 95.5543 79.8994 96.553Z" fill="#845D47"/>
<path fill-rule="evenodd" clip-rule="evenodd" d="M61.3649 90.607C66.5793 86.043 72.0143 81.6067 77.519 77.2053C72.8853 71.898 67.9612 65.7778 61.8294 62.3867C59.7855 61.2602 57.126 60.0988 54.6756 60.5285C52.0394 61.0047 50.6574 63.0719 50.1812 64.8951C49.647 66.9972 49.949 69.6798 50.6574 72.1419C51.3658 74.6387 52.7246 76.973 53.8859 78.9705C56.4524 83.4184 58.9609 86.9024 61.3649 90.607Z" fill="#484FA3"/>
<path d="M58.5196 73.431C59.7855 73.4426 61.8062 76.1601 61.5623 77.3911C61.0978 79.7138 58.6358 81.6648 56.4525 83.1745C55.6047 81.8506 54.7453 80.4802 53.8859 78.9821C53.6769 78.6337 53.4678 78.2621 53.2588 77.8789C54.6756 75.6839 56.8938 73.4193 58.5196 73.431Z" fill="#DD9083"/>
<path fill-rule="evenodd" clip-rule="evenodd" d="M29.7998 238.073C26.4551 237.643 22.9595 237.342 19.6033 236.912C18.5232 225.531 18.8484 212.408 21.1827 201.851C23.4124 191.713 27.6861 182.48 33.0515 175.593C24.7131 166.698 14.3308 158.545 7.79252 147.559C4.73822 142.426 1.78843 135.04 1.81166 127.375C1.83489 118.479 4.204 112.103 8.40803 106.877C18.2329 109.409 27.3726 112.011 37.151 114.693C38.4633 115.053 40.0195 115.344 41.1228 115.878C42.0402 116.319 42.888 117.48 43.8751 118.444C50.1231 124.576 56.7775 129.988 63.3158 135.888C66.8114 139.046 70.3999 142.542 74.0814 146.142C77.7163 149.696 81.2003 153.447 83.1049 158.011C85.1721 162.981 86.2289 168.8 87.0186 174.746C87.8199 180.785 88.2496 187.184 88.6561 193.466C89.4806 206.346 89.5387 219.376 89.6316 233.033C86.9489 233.416 84.0108 233.521 81.1771 233.753C80.6081 233.381 80.55 232.603 80.3293 232.034C76.915 223.347 73.4078 214.08 71.0038 204.209C68.507 193.954 66.765 181.005 69.2386 168.37C68.7741 167.859 67.9147 167.511 67.2179 167.127C62.3287 164.48 57.4279 161.669 53.0264 158.429C48.0095 154.724 43.3061 150.555 38.8349 146.363C38.7304 146.328 38.7072 146.223 38.5794 146.223C42.1099 153.249 46.3255 159.555 49.4844 166.593C51.2496 170.518 52.2483 174.676 51.5864 179.635C50.9825 184.164 49.6005 188.031 48.0095 192.073C45.0016 199.726 42.1331 207.623 39.102 215.334C37.5807 219.201 36.129 223.092 34.5264 226.831C32.8773 230.617 30.8682 234.171 29.7998 238.073Z" fill="#B28564"/>
<path d="M67.206 167.162C67.9028 167.545 68.7622 167.894 69.2267 168.405C66.7531 181.052 68.4951 194.001 70.992 204.244C73.3959 214.115 76.9032 223.382 80.3175 232.069C80.5381 232.627 80.5962 233.405 81.1652 233.788C82.3382 233.695 83.5344 233.614 84.7189 233.532C84.3008 231.767 83.604 229.653 83.4182 228.945C81.2349 220.56 79.8065 211.606 78.018 203.593C76.8219 198.228 75.5444 192.235 75.045 186.115C74.8128 183.212 74.8011 179.856 74.7663 176.255C74.7315 172.76 74.8476 168.985 73.8256 166.883C73.0475 165.292 71.0036 163.899 68.7971 162.679C62.8278 159.393 56.8237 156.339 51.7951 152.843C46.3949 149.08 42.1212 144.632 38.1495 139.894C36.814 138.303 35.5249 136.224 34.1893 134.819C34.1777 134.947 34.1777 135.075 34.1777 135.202C34.2242 135.667 34.4797 135.922 34.6539 136.259C34.7816 136.608 34.4332 136.573 34.3752 136.898C34.1197 138.233 35.1997 139.522 35.792 140.452C38.5211 144.667 41.6219 148.5 44.9433 151.949C47.5447 154.213 50.2273 156.408 53.0029 158.464C57.416 161.704 62.3168 164.514 67.206 167.162Z" fill="#996E52"/>
<path fill-rule="evenodd" clip-rule="evenodd" d="M77.9719 160.276C78.9939 159.3 80.19 161.669 81.0843 162.61C81.6185 163.179 82.954 163.62 82.3733 164.259C81.1888 165.56 76.0789 162.087 77.9719 160.276Z" fill="#996E52"/>
<path d="M35.1764 176.825C34.4099 170.728 29.6949 166.059 26.2806 161.716C22.6456 157.105 19.3823 152.239 16.4441 147.478C13.4827 142.67 10.5678 137.049 8.89547 131.126C7.18831 125.076 7.08379 116.54 9.30194 109.885C9.47614 109.363 9.67356 108.852 9.8826 108.341C9.85938 108.341 9.84776 108.341 9.82454 108.341C8.98838 108.306 8.25674 108.143 7.60639 107.876C3.89013 112.905 1.81134 119.025 1.7765 127.363C1.75328 135.028 4.70306 142.414 7.75736 147.547C14.2957 158.545 24.678 166.686 33.0163 175.582C27.651 182.469 23.3773 191.701 21.1475 201.84C18.8132 212.396 18.4997 225.519 19.5797 236.912C20.4507 237.028 21.345 237.121 22.2276 237.225C22.4134 235.344 22.4134 233.323 22.4598 232.743C23.2612 223.371 24.4922 215.148 26.2574 207.611C28.1271 199.587 30.833 192.804 33.2951 185.964C34.1428 183.56 35.5713 179.96 35.1764 176.825Z" fill="#996E52"/>
<path fill-rule="evenodd" clip-rule="evenodd" d="M45.0478 174.165C46.0814 173.19 47.2659 175.559 48.1602 176.488C48.706 177.057 50.0183 177.51 49.4492 178.137C48.2531 179.449 43.1548 175.977 45.0478 174.165Z" fill="#996E52"/>
<path d="M80.3174 232.057C80.538 232.615 80.5961 233.393 81.1651 233.776C83.9872 233.544 86.9369 233.439 89.6196 233.056C89.5267 219.399 89.457 206.369 88.6441 193.49C88.4931 191.167 88.3422 188.821 88.168 186.498C80.8283 186.893 74.2552 188.449 68.5879 190.772C69.1221 195.568 70.0047 200.121 71.0035 204.243C73.3958 214.103 76.9146 223.371 80.3174 232.057Z" fill="#C44B4B"/>
<path d="M88.5277 191.968C88.5045 191.562 88.4696 191.155 88.4464 190.749C81.2113 191.283 74.7543 192.944 69.2031 195.348C69.2728 195.754 69.3309 196.172 69.4005 196.579C74.522 194.372 80.1197 192.688 86.5767 192.096C87.2154 192.049 87.8774 192.003 88.5277 191.968Z" fill="white"/>
<path d="M69.9814 199.668C70.0047 199.784 70.0279 199.9 70.0511 200.016C75.4397 197.438 81.5483 195.754 88.7254 195.185C88.7137 194.999 88.7021 194.825 88.6905 194.639C81.4206 195.231 75.2771 197.101 69.9814 199.668Z" fill="white"/>
<path fill-rule="evenodd" clip-rule="evenodd" d="M95.2293 231.36C98.4927 231.802 101.524 232.441 104.137 234.148C104.915 234.659 106.053 235.355 106.111 236.412C106.204 237.818 103.997 238.514 102.116 239.014C98.1675 240.059 94.428 240.709 90.2124 241.232C86.798 241.65 83.6624 241.754 82.1411 239.769C81.0262 238.317 80.4688 236.343 79.8765 234.357C79.2842 232.371 78.901 230.385 78.75 227.946C81.5256 227.052 85.2999 226.239 89.0278 225.786C88.4936 223.417 89.6201 222.349 91.9079 221.803C92.686 221.617 94.0447 221.501 94.4744 221.872C95.3338 222.651 95.3803 229.862 95.2293 231.36Z" fill="#484FA3"/>
<path d="M97.157 224.241C97.2847 224.288 97.5054 224.392 97.6331 224.485C97.9235 224.683 98.0048 224.973 98.0396 225.414C98.179 227.075 96.4718 230.28 95.5776 231.14C95.4963 231.221 95.3685 231.256 95.2524 231.233C95.1363 231.209 95.0434 231.117 95.0085 231C94.7182 230.153 94.8459 225.74 96.0305 224.532C96.3441 224.218 96.7505 224.114 97.157 224.241ZM95.5776 230.036C96.4137 228.829 97.4241 226.587 97.3428 225.472C97.3196 225.24 97.2615 225.089 97.157 225.008C97.0757 224.961 97.0176 224.927 96.948 224.903C96.8434 224.869 96.7041 224.857 96.5415 225.031C95.7634 225.821 95.5195 228.62 95.5776 230.036Z" fill="#7678C7"/>
<path d="M100.13 226.03C100.432 226.134 100.675 226.367 100.838 226.738C100.977 227.063 100.943 227.423 100.733 227.83C99.967 229.316 96.8314 231.116 95.612 231.372C95.4959 231.395 95.3681 231.36 95.2868 231.267C95.1939 231.186 95.1707 231.058 95.1939 230.942C95.3797 230.129 97.3772 227.121 98.945 226.239C99.3979 225.983 99.7928 225.914 100.13 226.03ZM96.2043 230.431C97.563 229.851 99.5954 228.492 100.106 227.505C100.211 227.296 100.246 227.133 100.188 227.017C100.106 226.843 99.967 226.727 99.8625 226.692C99.7231 226.645 99.5489 226.703 99.2818 226.854C98.2018 227.47 96.8314 229.351 96.2043 230.431Z" fill="#7678C7"/>
<path d="M100.839 230.815L95.5545 230.675L95.5312 231.384L100.827 231.511L100.839 230.815Z" fill="#7678C7"/>
<path d="M91.9774 234.67C94.4742 236.47 98.6202 236.552 101.744 234.601C102.151 234.345 102.696 233.985 103.115 233.555C102.662 233.312 102.185 233.103 101.709 232.917C101.57 233.068 101.419 233.207 101.268 233.312C100.385 233.927 99.166 234.473 97.633 234.67C92.047 235.402 89.9799 230.768 88.9579 225.461C88.9811 225.577 88.9811 225.682 89.0043 225.809C88.5979 225.856 88.1798 225.914 87.7617 225.972C87.843 226.332 87.9127 226.669 87.9824 226.959C88.7721 230.35 89.7708 233.079 91.9774 234.67Z" fill="white"/>
<path d="M88.4123 238.305C86.9955 235.379 84.5567 233.242 80.6081 234.345C80.3991 234.403 80.1668 234.473 79.9346 234.554C80.0623 234.984 80.1901 235.425 80.3294 235.843C80.5152 235.739 80.6894 235.634 80.8869 235.576C84.4405 234.6 86.4032 236.772 87.4716 239.35C87.7619 240.047 87.9594 240.965 88.3194 241.418C88.6562 241.394 88.993 241.359 89.3414 241.325C89.5504 240.593 88.7375 238.979 88.4123 238.305Z" fill="white"/>
<path d="M82.6406 240.291C84.2897 241.72 87.1234 241.603 90.2125 241.232C94.4398 240.709 98.1792 240.059 102.116 239.014C103.8 238.561 105.74 237.957 106.065 236.83L82.6406 240.291Z" fill="#7678C7"/>
<path d="M21.1831 201.84C18.8488 212.396 18.5236 225.519 19.6037 236.9C22.9599 237.33 26.4555 237.62 29.8002 238.061C30.857 234.171 32.8777 230.606 34.5036 226.831C36.1062 223.092 37.5579 219.201 39.0792 215.334C41.7735 208.494 44.3285 201.526 46.9763 194.697C39.5438 191.016 32.2274 189.088 25.4916 188.519C23.68 192.688 22.2167 197.171 21.1831 201.84Z" fill="#C44B4B"/>
<path d="M45.0017 199.854C45.1527 199.47 45.2921 199.087 45.443 198.692C37.9176 195.104 30.5199 193.304 23.761 192.897C23.6216 193.28 23.4939 193.675 23.3545 194.059C29.405 194.511 35.653 195.684 42.1681 198.518C43.1088 198.936 44.061 199.389 45.0017 199.854Z" fill="white"/>
<path d="M22.3908 197.125C22.3559 197.241 22.3327 197.345 22.2979 197.461C29.1265 197.624 36.2222 199.227 43.8638 202.861C43.9335 202.687 43.9915 202.525 44.0612 202.351C36.3267 198.657 29.08 197.252 22.3908 197.125Z" fill="white"/>
<path fill-rule="evenodd" clip-rule="evenodd" d="M33.5045 240.326C36.4078 241.871 39.0324 243.52 40.8906 246.028C41.448 246.771 42.2726 247.828 41.959 248.839C41.5525 250.186 39.2415 250.07 37.3021 249.895C33.2374 249.512 29.4979 248.827 25.3636 247.863C22.0073 247.073 19.0459 246.086 18.3027 243.706C17.7568 241.964 17.9194 239.908 18.0588 237.841C18.1865 235.774 18.5233 233.776 19.2085 231.43C22.1234 231.558 25.9442 232.092 29.6024 232.963C29.916 230.559 31.3444 229.944 33.6903 230.223C34.4916 230.315 35.8039 230.675 36.071 231.175C36.6169 232.185 34.1548 238.979 33.5045 240.326Z" fill="#484FA3"/>
<path d="M37.767 234.31C37.8715 234.392 38.0457 234.578 38.127 234.705C38.3361 234.996 38.3128 235.286 38.1851 235.727C37.7438 237.342 35.0263 239.745 33.8998 240.245C33.7836 240.291 33.6559 240.28 33.563 240.21C33.4585 240.14 33.4004 240.024 33.4004 239.908C33.4236 239.014 35.0727 234.914 36.5941 234.194C37.0121 234.009 37.4302 234.055 37.767 234.31ZM34.283 239.211C35.4908 238.375 37.2096 236.61 37.5115 235.541C37.5696 235.321 37.5696 235.158 37.4883 235.042C37.4302 234.972 37.3838 234.914 37.3257 234.868C37.2328 234.798 37.1167 234.74 36.896 234.845C35.9205 235.309 34.7127 237.853 34.283 239.211Z" fill="#7678C7"/>
<path d="M39.9502 237.016C40.2057 237.214 40.345 237.516 40.3683 237.922C40.3915 238.271 40.2289 238.607 39.8921 238.909C38.6611 240.036 35.0958 240.64 33.8648 240.466C33.7487 240.454 33.6442 240.373 33.5861 240.257C33.5396 240.152 33.5396 240.024 33.6093 239.92C34.0622 239.223 36.9772 237.086 38.754 236.796C39.2766 236.726 39.6715 236.796 39.9502 237.016ZM34.7474 239.792C36.2223 239.711 38.603 239.153 39.416 238.398C39.5902 238.236 39.6715 238.096 39.6715 237.969C39.6599 237.783 39.5669 237.62 39.4857 237.562C39.3695 237.469 39.1837 237.458 38.8818 237.504C37.6391 237.702 35.6997 238.991 34.7474 239.792Z" fill="#7678C7"/>
<path d="M38.9511 241.743L34.0387 239.792L33.7832 240.454L38.6956 242.405L38.9511 241.743Z" fill="#7678C7"/>
<path d="M29.3004 242.3C31.0191 244.855 34.8864 246.365 38.4865 245.61C38.951 245.506 39.6014 245.366 40.1356 245.099C39.7872 244.716 39.4272 244.356 39.044 244.008C38.8581 244.1 38.6839 244.182 38.4865 244.228C37.4413 244.495 36.1174 244.588 34.6077 244.24C29.1146 242.997 28.7778 237.934 29.6604 232.603C29.6372 232.719 29.6023 232.812 29.5907 232.94C29.1842 232.847 28.7778 232.754 28.3713 232.661C28.3132 233.021 28.2784 233.37 28.2319 233.672C27.7906 237.144 27.7906 240.047 29.3004 242.3Z" fill="white"/>
<path d="M24.7015 244.484C24.388 241.255 22.8434 238.398 18.7555 238.073C18.5349 238.062 18.291 238.038 18.0471 238.038C18.0239 238.491 17.989 238.944 17.9658 239.385C18.1749 239.351 18.3839 239.316 18.5813 239.327C22.2511 239.641 23.3428 242.358 23.4589 245.146C23.4821 245.901 23.3544 246.83 23.5402 247.375C23.8654 247.468 24.1906 247.561 24.5273 247.643C24.9803 247.027 24.7712 245.227 24.7015 244.484Z" fill="white"/>
<path d="M18.6045 244.356C19.6497 246.272 22.3556 247.143 25.3751 247.852C29.521 248.815 33.2605 249.501 37.3136 249.884C39.0439 250.046 41.0763 250.151 41.7731 249.199L18.6045 244.356Z" fill="#7678C7"/>
<path fill-rule="evenodd" clip-rule="evenodd" d="M8.54706 106.773C8.69804 106.796 8.65158 107.017 8.6632 107.168C16.9783 108.921 24.736 111.012 32.8073 113.253C34.0267 113.59 35.4551 113.985 36.7907 114.31C38.1959 114.658 39.7753 114.705 40.9018 115.239C40.9018 115.239 42.7948 116.923 43.6541 117.806C48.044 122.265 52.8171 126.26 57.4392 130.371C58.3682 131.207 59.2508 132.125 60.1915 132.938C61.1206 133.751 62.2935 134.297 62.9555 135.377C54.8726 139.999 46.9756 145.469 37.3133 148.546C27.6278 151.635 16.9551 153.575 4.44756 153.923C2.76363 146.374 0.440964 138.303 0.0577246 129.256C-0.162929 123.926 0.301604 120.453 2.09006 116.505C2.89138 114.728 3.75076 113.125 4.73789 111.546C5.7018 110.025 6.78184 108.666 7.75736 107.121C7.8851 107.121 8.01285 107.133 8.15221 107.133C8.22189 106.97 8.34964 106.843 8.54706 106.773Z" fill="#DC911B"/>
<path d="M40.9367 115.285C39.8567 115.901 23.1335 120.593 7.07227 108.143C24.8871 129.431 41.2387 115.553 40.9367 115.285Z" fill="#484FA3"/>
<path opacity="0.17" d="M45.2563 133.553C44.7685 133.902 49.0422 140.312 50.8771 142.449C51.5391 142.077 52.201 141.706 52.863 141.322C50.3197 138.396 45.7905 133.17 45.2563 133.553Z" fill="#7678C7"/>
<path opacity="0.17" d="M52.6194 134.215C52.3523 134.68 54.9885 137.548 56.5563 139.151C57.0673 138.849 57.5667 138.547 58.0661 138.245C56.3008 136.689 52.991 133.843 52.6194 134.215Z" fill="#7678C7"/>
<path opacity="0.17" d="M21.588 135.783C20.6008 136.329 24.921 146.99 26.8604 151.321C27.6269 151.159 28.3934 150.985 29.1482 150.811C27.2669 146.2 22.5286 135.376 21.588 135.783Z" fill="#7678C7"/>
<path opacity="0.17" d="M13.4474 141.032C12.6113 141.276 13.552 148.046 14.4578 153.272C15.2359 153.191 16.0024 153.11 16.7689 153.005C15.7237 147.628 14.2139 140.881 13.4474 141.032Z" fill="#7678C7"/>
<path opacity="0.17" d="M39.6123 144.772C37.5916 140.939 32.3076 130.162 31.3088 130.975C30.8559 131.347 32.2843 134.32 32.9347 135.957C34.247 139.209 35.5825 142.495 37.1039 145.701C37.3013 146.119 37.7426 147.234 38.3117 148.186C39.171 147.896 40.0188 147.594 40.8434 147.268C40.8317 147.222 40.8201 147.176 40.8085 147.129C40.5066 146.223 39.9143 145.329 39.6123 144.772Z" fill="#7678C7"/>
<path fill-rule="evenodd" clip-rule="evenodd" d="M7.07227 108.143C8.54716 104.601 10.684 101.21 12.3912 97.459C15.6777 90.2472 18.5695 82.3501 21.798 74.8711C23.4122 71.12 25.0265 67.2412 27.1169 64.3146C30.717 59.2628 36.454 57.1144 44.1072 57.0447C48.137 57.0098 51.1448 57.7299 54.6753 58.6125C57.7296 59.3673 61.0626 60.5635 62.8394 62.2939C64.0008 63.432 65.0344 65.2437 65.104 67.4386C65.197 70.2839 63.9311 72.6762 63.3504 76.1834C62.5143 81.2236 63.513 87.3438 61.5039 90.7581C60.6678 92.175 59.4135 93.4641 58.1244 94.5209C56.3592 95.9609 54.0133 96.9597 52.0042 98.5739C46.7898 102.731 43.9794 109.154 40.9483 115.297C40.4722 116.249 23.1916 120.651 7.07227 108.143Z" fill="#7678C7"/>
<path d="M47.8121 43.666C47.8121 43.6311 46.8482 38.9161 44.2236 36.9883C45.1875 32.7378 47.2779 25.6305 50.6806 23.9117C55.686 21.38 62.8979 23.3078 65.987 26.8267C68.6464 29.8461 70.8298 36.338 70.6556 42.6672C70.4697 49.0662 67.6477 54.2341 60.1803 51.4585C59.3326 53.1773 59.0655 55.5232 58.3338 57.3697C58.3454 57.3697 58.3454 57.3813 58.3454 57.3813C54.5246 61.6434 46.8947 57.3232 44.5953 55.86C45.443 54.4664 45.3269 54.1064 45.7566 52.7011C46.1631 51.354 47.6728 45.2802 47.8121 43.666Z" fill="#B28564"/>
<path fill-rule="evenodd" clip-rule="evenodd" d="M58.8096 38.3123C61.0161 35.8386 63.1878 37.6735 63.1878 37.6735C63.1878 37.6735 62.6304 38.5794 61.109 38.8697C59.9825 39.0904 58.8096 38.3123 58.8096 38.3123Z" fill="white"/>
<path fill-rule="evenodd" clip-rule="evenodd" d="M63.1877 37.6736C63.1877 37.6736 62.1309 36.7794 60.7373 37.0813C60.7024 37.1858 60.6095 37.4181 60.5979 37.5342C60.5863 38.0917 60.9927 38.5678 61.5618 38.7536C62.7464 38.4052 63.1877 37.6736 63.1877 37.6736Z" fill="#0B124E"/>
<path d="M63.2689 36.1871C62.4327 35.7806 60.0636 35.4206 58.4494 37.0116L57.9268 36.489C59.6688 34.7819 62.2818 34.898 63.5824 35.5251L63.2689 36.1871Z" fill="#0B124E"/>
<path fill-rule="evenodd" clip-rule="evenodd" d="M66.7061 37.6737C68.75 35.3858 70.7707 37.0814 70.7707 37.0814C70.7707 37.0814 70.2597 37.9176 68.8429 38.1963C67.7861 38.4053 66.7061 37.6737 66.7061 37.6737Z" fill="white"/>
<path fill-rule="evenodd" clip-rule="evenodd" d="M70.7704 37.0814C70.7704 37.0814 69.7949 36.2568 68.4942 36.5356C68.4594 36.6401 68.3781 36.8491 68.3665 36.9653C68.3549 37.4879 68.7381 37.9292 69.2723 38.0917C70.3523 37.755 70.7704 37.0814 70.7704 37.0814Z" fill="#0B124E"/>
<path d="M70.8291 35.7342C70.0626 35.3625 67.8677 35.0258 66.3928 36.489L65.8818 35.9664C67.5077 34.3638 69.9465 34.4799 71.1659 35.0722L70.8291 35.7342Z" fill="#0B124E"/>
<path fill-rule="evenodd" clip-rule="evenodd" d="M60.1685 51.4586C57.8459 50.7386 55.2677 47.7075 55.2677 47.7075C55.2677 47.7075 54.8148 52.3877 58.9259 55.4536L60.1685 51.4586Z" fill="#996E52"/>
<path fill-rule="evenodd" clip-rule="evenodd" d="M65.3476 37.5575C65.7773 37.4297 67.2871 41.3783 67.229 41.8196C67.1361 42.3654 65.2779 42.8067 65.1154 42.5977C64.6624 42.017 64.7089 37.7433 65.3476 37.5575Z" fill="#996E52"/>
<path d="M68.3674 45.3151C66.3002 46.5809 63.9776 45.5125 62.6885 43.9911L63.3388 43.4453C64.3956 44.7112 66.2886 45.6054 67.9377 44.595L68.3674 45.3151Z" fill="#996E52"/>
<path d="M61.7828 41.0647C62.3518 41.9357 62.108 43.1087 61.2253 43.6893C60.3543 44.2584 59.1814 44.0145 58.6123 43.1319C58.0433 42.2609 58.2872 41.088 59.1698 40.5189C60.0408 39.9499 61.2137 40.1937 61.7828 41.0647Z" fill="#C69C7F"/>
<path d="M69.0299 42.0518C69.4015 42.6208 70.017 42.9112 70.6442 42.9112C70.6442 42.8299 70.6558 42.7486 70.6558 42.6789C70.6906 41.5059 70.6442 40.3098 70.5164 39.1484C70.1912 39.1601 69.8661 39.253 69.5757 39.4388C68.7047 39.9962 68.4608 41.1692 69.0299 42.0518Z" fill="#C69C7F"/>
<path fill-rule="evenodd" clip-rule="evenodd" d="M52.8754 13.274L53.8161 13.4482C53.7232 14.4934 53.0728 15.5502 53.1077 16.758C53.1309 17.629 53.4909 18.4187 53.5141 19.1852C53.549 21.0433 52.4573 21.9492 51.2495 23.0176C57.1607 21.1595 63.1764 23.1686 65.9056 26.5364C67.7056 28.7662 67.996 30.0088 68.414 30.7985C63.1648 31.9947 57.8691 29.9972 54.7568 28.0578C54.6871 33.3651 52.318 34.7006 49.7979 37.6156C49.2056 37.3368 48.6133 37.0813 47.9281 37.0117C45.5474 36.791 44.1073 38.4982 43.608 40.2518C42.9112 38.9046 42.377 36.8723 42.3654 35.1419C42.3305 31.356 44.0377 28.3365 45.8842 26.3739C44.0144 26.6061 43.0041 27.5468 41.6686 28.232C40.4027 28.8823 38.951 29.6372 37.0697 29.6488C35.5019 29.6604 34.0967 29.0449 32.8773 28.441C31.4953 27.7675 29.7301 26.7106 27.9416 27.1868C26.1532 27.6513 24.7247 28.8475 22.5298 28.6849L22.4601 27.7558C24.9918 28.0113 26.4783 26.1648 28.801 26.13C31.7275 26.0719 33.9805 28.6965 37 28.7197C38.7652 28.7314 40.1472 27.9417 41.4131 27.3029C43.0622 26.4551 44.2467 25.3403 46.8713 25.5029L47.5101 24.8874C45.5242 23.6331 41.4247 24.8293 39.6711 25.7583C37.3832 26.9661 34.7122 27.2565 32.5056 26.13C31.983 25.8629 31.1585 25.1545 30.752 24.6551C30.241 24.0047 29.7417 23.2847 28.7778 23.1454C27.2564 22.9247 26.6525 23.3544 25.0963 23.4938C23.064 23.6796 21.833 22.9944 20.6484 21.7401C23.8769 15.2018 27.1984 8.74483 30.2875 2.06717C34.3289 1.93942 36.4077 3.80917 37.569 6.59637C38.1729 8.05965 38.44 9.88294 39.8569 10.6843C41.2389 11.4623 42.795 11.3578 44.2351 11.6946C45.6868 12.0314 46.7203 12.6121 47.6843 13.6573C49.4959 15.6315 50.1695 18.2097 50.5179 21.7285C51.1683 18.3142 49.9489 14.6676 48.3578 12.5888C47.6494 11.6598 46.6739 10.9862 45.6519 10.6262C44.3628 10.1733 42.7718 10.2197 41.6453 9.36034C40.3679 8.38482 39.6943 6.29442 38.9743 4.71501C38.1962 2.99624 37.2323 1.52135 35.5019 0.824546L35.7109 0C37.9523 0.673573 38.8465 2.34589 39.8104 4.4479C40.4608 5.86473 41.1227 8.1061 42.5396 8.84935C43.7009 9.45324 45.0016 9.37195 46.2326 9.87132C47.3475 10.3242 48.1604 11.021 48.8688 11.9037C50.4947 13.9011 52.016 17.4664 51.4702 21.5427C51.4818 21.6008 51.447 21.6008 51.4121 21.6008C52.0393 21.2292 52.5851 20.4743 52.5735 19.2781C52.5619 18.4768 52.1902 17.6406 52.167 16.7929C52.1322 15.4225 52.7825 14.4354 52.8754 13.274Z" fill="#0B124E"/>
<path d="M43.6545 39.7292C43.3526 41.6222 44.63 43.4106 46.5346 43.7126C48.4276 44.0145 50.216 42.7254 50.518 40.8325C50.8199 38.9395 49.5309 37.151 47.6379 36.8491C45.7449 36.5471 43.9565 37.8246 43.6545 39.7292Z" fill="#B28564"/>
<path fill-rule="evenodd" clip-rule="evenodd" d="M57.6836 57.939C58.3456 57.4512 59.623 56.4641 60.9586 56.8938C61.725 57.1377 62.7354 60.5868 62.0618 61.992C61.5044 63.1418 59.5069 63.9082 58.3572 63.9315C57.9275 63.9315 57.5326 63.6063 57.4746 63.1185C57.2191 63.5598 56.8707 63.9198 56.3945 64.1173C54.2693 65.0231 49.1362 63.1766 45.0715 61.8759C43.6779 61.4346 38.2197 59.9133 38.2081 58.1248C38.1964 57.219 40.0546 55.326 40.7398 54.6989C42.0637 53.4795 43.2599 52.1556 44.6651 52.0162C46.1167 51.8768 48.9388 53.2124 51.064 54.0718C53.886 55.1866 56.3713 55.9299 57.6836 57.939Z" fill="#484FA3"/>
<path fill-rule="evenodd" clip-rule="evenodd" d="M115.122 107.156C115.122 107.156 111.266 85.4856 112.358 77.4028C113.426 69.5289 117.247 62.5609 118.281 54.9426C119.245 47.8817 118.211 41.0763 116.237 35.3161C114.367 29.8694 111.719 24.3415 106.76 21.3569C101.128 17.9542 95.5536 21.1478 92.8476 24.6899C88.7249 30.0785 87.8307 39.1369 88.5856 46.4649C89.3404 53.8509 91.605 59.6808 94.9729 64.8488C96.6917 67.485 98.7356 69.7728 100.373 72.2464C107.782 83.4649 111.069 107.772 111.069 107.772C111.069 107.772 115.11 107.168 115.122 107.156ZM101.337 68.0656C96.6336 65.1275 93.6374 58.5776 92.1508 52.9567C90.8153 47.9049 89.7121 38.2194 92.0812 31.3792C92.3367 30.6359 92.8941 29.8926 93.3122 29.0565C94.9613 25.7815 96.9704 22.2975 101.174 22.1466C102.162 22.1117 103.636 22.3788 104.496 22.7272C107.84 24.1092 110.453 27.6513 112.044 30.6824C113.38 33.2373 115.006 37.8245 115.656 41.6337C116.934 49.0662 116.272 61.446 111.069 66.765C108.874 68.9947 105.042 70.3883 101.337 68.0656Z" fill="#F44040"/>
<path d="M115.122 107.156C115.122 107.156 113.984 100.746 113.113 93.5918C111.603 93.8125 110.035 94.1492 108.549 94.4164C110.268 101.802 111.069 107.772 111.069 107.772C111.069 107.772 115.11 107.168 115.122 107.156Z" fill="#7678C7"/>
<path d="M116.19 47.7307C116.167 46.3951 116.086 45.1061 115.958 43.8983C114.599 42.9924 113.136 42.1679 111.777 41.2505C112.114 40.1356 112.532 39.1136 112.869 37.9987C113.659 38.3936 114.402 38.8233 115.133 39.253C115.006 38.742 114.866 38.2194 114.727 37.7084C114.251 37.4181 113.786 37.1393 113.287 36.8722C113.473 36.2567 113.682 35.6761 113.891 35.0954C113.682 34.4915 113.461 33.8992 113.24 33.3534C112.904 34.3173 112.555 35.258 112.207 36.2103C110.43 35.2696 108.827 34.1779 106.981 33.2837C107.306 31.7391 107.794 30.4152 108.212 29.01C109.652 29.73 110.999 30.543 112.346 31.3327C112.242 31.112 112.137 30.903 112.033 30.7056C111.882 30.4152 111.708 30.1133 111.533 29.8113C110.442 29.2307 109.385 28.6152 108.491 27.8719C108.665 27.3261 108.827 26.7686 109.002 26.2228C108.769 25.9557 108.514 25.6886 108.27 25.4331C108.026 26.1299 107.771 26.8151 107.503 27.477C106.238 26.757 104.902 26.0835 103.752 25.2705C103.985 24.4227 104.229 23.5866 104.461 22.7504C104.205 22.6459 103.892 22.553 103.543 22.4601C103.299 23.2382 103.044 23.9931 102.777 24.7479C101.755 24.0627 100.431 23.6098 99.6529 22.7504C99.6877 22.6227 99.7226 22.4949 99.7574 22.3672C99.1651 22.5065 98.6309 22.7272 98.1431 22.9943C98.2012 23.0291 98.2477 23.0524 98.2941 23.0872C97.7367 24.3763 97.4231 25.9789 96.8192 27.1983C96.1921 26.8383 95.5766 26.4783 94.9495 26.1183C94.7869 26.3738 94.6243 26.6293 94.4617 26.8964C95.1585 27.3377 95.8553 27.7674 96.5405 28.2087C96.1689 29.1378 95.9482 30.2642 95.4953 31.0772C94.6824 30.5662 93.8578 30.0436 93.0449 29.521C92.9288 29.7184 92.8242 29.9042 92.7197 30.09C93.5791 30.6939 94.4269 31.3094 95.2514 31.9482C94.8914 33.3418 94.4153 34.5728 94.0553 35.9664C93.1378 35.3625 92.232 34.7586 91.3145 34.1547C91.2564 34.4567 91.1984 34.7702 91.1519 35.0838C92.0461 35.7109 92.9288 36.338 93.7882 36.9767C93.3004 38.2426 92.9055 39.6478 92.5687 41.1227C91.9416 40.7278 91.3145 40.333 90.6874 39.9381C90.6758 40.2633 90.6758 40.5769 90.6758 40.9021C91.2216 41.2737 91.779 41.6337 92.3133 42.0053C91.8371 42.8995 91.8719 44.4557 91.2332 45.1293C91.0939 45.048 90.9661 44.9551 90.8268 44.8738C90.8616 45.2687 90.8964 45.6519 90.9313 46.0351C90.9893 46.0816 91.0474 46.1164 91.1055 46.1513C91.0706 46.3255 91.0358 46.4881 91.001 46.6623C91.1403 47.9049 91.3261 49.0894 91.5235 50.1695C91.7907 49.0662 92.0694 47.9746 92.4294 46.9874C93.6952 47.7191 94.7985 48.5552 96.0295 49.3101C95.6579 50.483 95.3792 51.7837 95.1237 53.1077C93.9275 52.3528 92.8707 51.4934 91.6397 50.785C91.7094 51.1334 91.779 51.4586 91.8487 51.7837C92.9055 52.4457 93.7301 53.2819 94.8914 53.8625C94.7288 55.0587 94.3224 55.9297 94.183 57.1607C93.8811 56.9981 93.5907 56.8123 93.3004 56.6381C93.4862 57.1491 93.6836 57.6601 93.9043 58.1594L93.9159 58.1711V58.1827C94.1017 58.6124 94.2875 59.0421 94.485 59.4601C94.5779 59.193 94.6591 58.9259 94.7637 58.6704C95.9018 59.3324 97.005 60.0408 97.8528 60.9234C97.6089 61.8757 97.3418 62.8861 97.0631 63.908C97.2838 64.2216 97.516 64.5119 97.7599 64.8139C98.1431 63.6874 98.5496 62.5493 98.8399 61.4576C100.059 62.3751 101.546 63.0835 102.672 64.0706C102.277 65.3481 101.859 66.7301 101.453 68.1353C101.767 68.3327 102.08 68.4837 102.405 68.6231C102.905 67.2759 103.392 65.952 103.892 64.7558C105.367 65.8591 107.213 66.672 108.56 67.8682C108.491 68.1237 108.409 68.3792 108.328 68.6347C108.978 68.3559 109.594 67.9959 110.14 67.5779C109.989 67.4617 109.826 67.3572 109.687 67.2294C110.047 66.4862 110.279 65.5804 110.546 64.7326C111.022 65.0462 111.51 65.3481 111.998 65.6617C112.184 65.4178 112.358 65.1623 112.532 64.8952C111.975 64.5236 111.452 64.1403 110.953 63.7455C111.255 62.3751 111.824 61.3647 112.114 59.9827C112.857 60.4124 113.566 60.8654 114.274 61.3183C114.379 61.0396 114.471 60.7492 114.564 60.4589C113.856 59.9711 113.171 59.4718 112.509 58.984C112.857 57.9272 113.159 56.8007 113.589 55.86C114.216 56.2781 114.82 56.6613 115.435 57.0446C115.505 56.6729 115.575 56.3129 115.633 55.9413C115.029 55.5348 114.437 55.1284 113.868 54.7335C114.425 53.4909 114.692 51.8766 115.319 50.7501C115.586 50.8895 115.865 51.0405 116.132 51.2031C116.155 50.7618 116.167 50.3321 116.179 49.8908C115.993 49.7514 115.795 49.6237 115.621 49.4843C115.83 48.9269 116.004 48.323 116.19 47.7307ZM111.777 37.3368C111.464 38.4865 110.976 39.4039 110.686 40.5885C109.013 39.6014 107.341 38.6142 105.738 37.569C105.889 36.3032 106.389 35.5019 106.574 34.2825C108.386 35.2347 110.082 36.2799 111.777 37.3368ZM98.3522 44.7925C98.6657 43.3408 99.1187 42.075 99.4438 40.6233C100.698 41.3201 101.743 42.1679 102.928 42.9228C102.603 44.3164 102.103 45.4777 101.859 46.9642C100.605 46.2906 99.5251 45.5125 98.3522 44.7925ZM101.465 47.8236C101.314 49.1359 100.837 50.0185 100.605 51.2379C99.4903 50.5179 98.3986 49.763 97.2373 49.0778C97.4231 47.812 97.7947 46.79 98.0967 45.6635C99.2116 46.3952 100.303 47.1384 101.465 47.8236ZM99.7109 39.613C100.199 38.3936 100.431 36.8374 100.907 35.5948C102.161 36.2567 103.102 37.1509 104.403 37.7665C104.17 39.2762 103.578 40.2982 103.334 41.8079C101.964 41.1924 100.872 40.3795 99.7109 39.613ZM102.533 48.6249C103.973 49.5656 105.367 50.5295 106.853 51.4353C106.458 52.4805 106.133 53.607 105.761 54.6871C104.391 53.8161 103.195 52.7941 101.674 52.0392C101.825 50.7153 102.277 49.7979 102.533 48.6249ZM102.8 47.6146C103.253 46.3487 103.543 44.8622 103.996 43.5963C105.471 44.6183 107.109 45.5242 108.56 46.5693C108.084 47.812 107.608 49.043 107.248 50.4482C105.68 49.5656 104.287 48.5552 102.8 47.6146ZM104.287 42.4582C104.635 41.1575 105.088 39.973 105.343 38.5562C107.039 39.5665 108.607 40.6698 110.279 41.7034C109.826 42.8763 109.362 44.026 109.002 45.3151C107.318 44.4441 105.831 43.4338 104.287 42.4582ZM103.497 26.1415C104.821 26.8615 105.959 27.7209 107.376 28.3713C106.911 29.7765 106.528 31.2978 106.017 32.6334C104.74 31.9133 103.462 31.1933 102.266 30.4268C102.719 29.0448 103.09 27.5816 103.497 26.1415ZM101.999 31.4256C103.241 32.1688 104.426 32.9469 105.75 33.6321C105.436 34.7354 105.041 35.7225 104.786 36.8955C103.392 36.3496 102.51 35.3973 101.151 34.8283C101.325 33.574 101.755 32.6218 101.999 31.4256ZM99.2464 23.7376C100.57 24.2253 101.465 25.0383 102.649 25.6421C102.208 27.0357 101.732 28.3713 101.418 29.9158C100.234 29.3236 99.258 28.5687 98.0154 28.0113C98.3522 26.4783 98.9096 25.2589 99.2464 23.7376ZM97.6322 28.8706C98.9096 29.3932 99.769 30.241 101.035 30.7752C100.861 31.9598 100.385 32.7379 100.21 33.9341C99.0722 33.7482 98.0386 32.5288 96.8076 32.0295C97.0283 30.903 97.4463 30.0436 97.6322 28.8706ZM96.5986 32.6566C97.6322 33.3998 98.7587 34.085 99.8387 34.7934C99.56 36.3032 99.0141 37.4413 98.747 38.9626C97.5393 38.3123 96.4708 37.5458 95.3792 36.8025C95.7392 35.3509 96.1921 34.027 96.5986 32.6566ZM94.9843 37.7897C96.3663 38.2774 97.1328 39.2297 98.3638 39.822C98.0851 41.3666 97.6554 42.737 97.2605 44.1189C96.1921 43.3641 94.9959 42.7021 93.8927 41.9589C94.1365 40.4027 94.7288 39.3226 94.9843 37.7897ZM92.6849 46.1048C92.8823 44.8506 93.3701 43.9796 93.5443 42.6905C94.7637 43.3757 95.7624 44.2235 97.0399 44.8622C96.9237 46.1745 96.4128 46.9526 96.3082 48.2881C94.9379 47.6842 93.974 46.7784 92.6849 46.1048ZM98.2709 59.8085C96.9818 59.2511 96.0992 58.3917 94.8914 57.7762C95.1585 56.7078 95.4721 55.7206 95.716 54.6174C96.9818 55.2677 97.8993 56.1852 99.0606 56.9052C98.747 57.811 98.4799 58.775 98.2709 59.8085ZM99.3045 56.0342C98.178 55.2793 97.0747 54.5012 95.9598 53.7464C96.3199 52.5038 96.5637 51.1102 96.9934 49.9604C98.0967 50.6921 99.1187 51.4934 100.361 52.1205C100.001 53.4096 99.618 54.6755 99.3045 56.0342ZM103.056 63.0719C101.674 62.2822 100.547 61.295 99.0838 60.575C99.409 59.646 99.6413 58.5891 100.001 57.6949C101.43 58.4498 102.521 59.4601 103.834 60.3079C103.671 61.3647 103.195 61.9918 103.056 63.0719ZM104.217 59.3092C102.8 58.5078 101.592 57.5439 100.257 56.6846C100.582 55.3955 101 54.2341 101.29 52.8986C102.719 53.7232 104.043 54.6406 105.378 55.5465C105.123 56.9633 104.554 57.9852 104.217 59.3092ZM108.955 66.7533C107.387 66.2075 105.808 64.6977 104.112 63.8732C104.252 62.7932 104.728 62.166 104.879 61.0976C106.574 62.0731 108.107 63.1648 109.687 64.2332C109.489 65.1274 109.095 65.7662 108.955 66.7533ZM109.966 63.2229C108.456 62.1428 106.807 61.1789 105.297 60.1105C105.75 58.8911 106.156 57.6136 106.586 56.3594C108.189 57.2884 109.547 58.4033 111.15 59.3324C110.79 60.6795 110.395 61.9802 109.966 63.2229ZM111.545 58.3453C109.803 57.5207 108.421 56.4291 106.981 55.3723C107.19 54.1761 107.724 53.4212 107.933 52.2367C109.501 53.1889 111.011 54.1993 112.497 55.2097C112.126 56.1852 111.777 57.1839 111.545 58.3453ZM112.776 54.0716C111.185 53.2122 109.873 52.1437 108.328 51.2495C108.769 49.914 109.304 48.6946 109.652 47.2429C111.208 48.0907 112.602 49.0662 114.123 49.9372C113.74 51.4121 113.252 52.736 112.776 54.0716ZM114.541 48.8107C112.95 48.021 111.673 46.999 110.198 46.128C110.476 44.7228 111.011 43.6544 111.359 42.3653C112.822 43.2828 114.262 44.2235 115.83 45.0596C115.459 46.3952 114.959 47.5565 114.541 48.8107Z" fill="#484FA3"/>
<path fill-rule="evenodd" clip-rule="evenodd" d="M109.815 84.2195C109.304 83.6388 109.431 80.5265 110.488 80.631C111.348 80.7239 111.173 83.4646 110.535 84.1034C110.372 84.2776 110.221 84.3356 109.815 84.2195Z" fill="white"/>
<path fill-rule="evenodd" clip-rule="evenodd" d="M110.407 79.2839C109.431 79.2955 109.64 76.9264 110.534 77.0309C110.906 77.0774 110.976 77.3445 111.057 77.8207C111.161 78.5175 111.092 79.2723 110.407 79.2839Z" fill="white"/>
<path d="M107.341 70.9573C105.309 71.3521 103.16 71.027 101.465 69.9934C101.86 71.5844 102.8 73.3845 104.008 74.569C104.728 75.2774 105.855 75.9046 106.923 76.1136C107.899 76.2994 109.246 75.8233 109.652 75.591C110.605 75.0568 111.383 74.0116 111.789 73.0825C112.474 71.5379 112.672 69.5172 112.463 67.8914C111.255 69.4824 109.385 70.574 107.341 70.9573Z" fill="white"/>
<path fill-rule="evenodd" clip-rule="evenodd" d="M115.54 97.0177C115.854 96.2976 116.225 95.7518 116.109 95.0898C115.947 94.184 115.145 94.1143 114.565 93.5104C114.634 92.7672 115.238 92.2097 115.134 91.4897C115.029 90.7581 114.414 90.7 113.856 90.2819C113.949 89.0741 114.1 88.1219 113.427 87.6109C112.091 86.5773 109.408 88.2264 108.085 88.389C107.678 88.2264 107.515 87.8431 107.26 87.6457C105.646 86.3566 104.043 88.1451 103.184 89.7245C102.44 91.0833 102.162 92.7904 102.208 94.3234C90.8736 98.1906 78.9002 101.419 67.2172 104.926C64.5926 98.8874 60.4699 86.5541 52.6193 73.2103C50.9702 70.3999 48.5895 66.2888 45.8023 64.5816C44.85 64.001 43.6886 63.5713 42.3067 63.8965C40.4717 64.3378 39.322 66.672 39.1246 68.8321C38.6601 74.1975 40.6808 78.8544 42.0279 82.6636C44.9429 90.9555 47.7185 99.0384 50.8889 107.33C51.6089 109.212 52.387 111.348 53.3161 113.334C55.1045 117.144 57.3227 121.452 62.4325 121.893C67.6585 122.346 71.6651 120.535 75.8111 118.99C87.0063 114.821 96.0067 109.792 105.611 103.823C106.493 103.266 107.376 102.534 108.108 102.278C108.979 101.977 110.245 102.035 111.336 101.849C112.381 101.675 113.473 101.477 114.298 101.14C115.064 100.827 116.585 99.8978 116.62 98.7713C116.655 97.8306 115.865 97.7958 115.54 97.0177Z" fill="#B28564"/>
<path fill-rule="evenodd" clip-rule="evenodd" d="M62.1192 110.013C62.7695 110.036 68.1 105.844 67.229 104.915C66.3348 103.939 62.1076 109.014 62.1192 110.013Z" fill="#996E52"/>
<path d="M75.8347 118.99C71.6887 120.535 67.6937 122.358 62.4561 121.893C57.3462 121.44 55.1281 117.144 53.3397 113.334C52.4106 111.348 51.6325 109.2 50.9125 107.33C47.742 99.0267 44.9664 90.9555 42.0515 82.6636C40.7044 78.866 38.6953 74.2207 39.1482 68.8669C39.9495 70.0167 40.6579 71.4451 41.1457 72.4322C42.2025 74.5807 42.969 76.7988 43.747 78.8079C45.4658 83.221 47.1614 87.6573 48.6827 91.8381C50.1924 95.9957 51.6209 100.734 53.3397 105.147C54.9191 109.2 57.2533 113.892 60.598 115.901C61.678 116.54 62.8974 116.934 64.2678 117.039C68.6576 117.376 73.2217 116.191 77.1818 115.146C80.991 114.136 84.7885 112.73 88.2725 111.395C91.9772 109.966 95.345 108.503 98.6316 106.889C100.292 106.076 102.011 105.286 103.718 104.543C104.485 104.206 105.274 103.858 106.076 103.556C105.936 103.649 105.797 103.742 105.658 103.823C96.0186 109.792 87.0299 114.821 75.8347 118.99Z" fill="#996E52"/>
<path d="M106.331 88.4587C106.575 88.2497 107.004 87.9709 107.422 87.8083C107.585 88.0058 107.748 88.238 108.038 88.3658C106.807 89.5503 104.264 92.0356 104.264 92.0356C104.031 91.0717 105.274 89.3878 106.331 88.4587Z" fill="#996E52"/>
<path d="M110.872 91.2226C110.953 90.4329 112.835 89.167 113.938 89.4806C113.915 89.7361 113.892 90.0148 113.868 90.3051C113.892 90.3167 113.903 90.3283 113.926 90.3516C113.288 90.3167 112.417 90.6071 110.872 91.2226Z" fill="#996E52"/>
<path d="M114.739 92.8949C114.669 93.0924 114.611 93.313 114.588 93.5337C114.611 93.5569 114.646 93.5801 114.658 93.6033C113.496 93.673 112.3 94.1259 111.58 94.5789C111.696 93.4988 113.508 92.6511 114.739 92.8949Z" fill="#996E52"/>
<path d="M115.877 96.2978C115.772 96.5301 115.656 96.7739 115.54 97.0294C114.274 97.0875 112.985 97.4824 112.393 97.6101C112.88 96.5765 114.402 96.0539 115.877 96.2978Z" fill="#996E52"/>
<path fill-rule="evenodd" clip-rule="evenodd" d="M41.5981 93.557C47.9041 90.6885 54.3844 88.0058 60.9227 85.3696C58.0077 78.959 55.0579 71.6659 50.1571 66.6605C48.5196 64.9998 46.3131 63.1185 43.8395 62.8281C41.18 62.5262 39.2522 64.1056 38.2883 65.7199C37.1734 67.578 36.6857 70.2258 36.6508 72.7924C36.6044 75.3821 37.2431 78.0067 37.7773 80.2597C38.9619 85.2535 40.3671 89.3181 41.5981 93.557Z" fill="#484FA3"/>
</g>
<defs>
<clipPath id="clip0_204_16333">
<rect width="135.028" height="250" fill="white"/>
</clipPath>
</defs>
</svg>
