<svg width="52" height="52" viewBox="0 0 52 52" fill="none" xmlns="http://www.w3.org/2000/svg">
<path d="M50.9371 17.7674L46.1966 13.0268C45.8141 12.6495 45.3041 12.4292 44.7673 12.4093C44.2304 12.3894 43.7055 12.5714 43.2962 12.9194C42.6642 13.4573 41.8533 13.7382 41.024 13.7063C40.1947 13.6745 39.4077 13.3323 38.8188 12.7475C38.2344 12.1587 37.8924 11.3719 37.8605 10.5429C37.8287 9.71389 38.1094 8.90315 38.647 8.27127C38.9949 7.86194 39.1769 7.33708 39.1571 6.80019C39.1372 6.2633 38.9168 5.75335 38.5395 5.37088L33.7947 0.624983C33.3937 0.224772 32.8503 0 32.2838 0C31.7173 0 31.1739 0.224772 30.7729 0.624983L23.2158 8.18104C22.7492 8.64928 22.3974 9.21917 22.1878 9.84608C22.147 9.96661 22.0789 10.0761 21.9889 10.1661C21.899 10.2561 21.7895 10.3241 21.6689 10.3649C21.0418 10.5745 20.4718 10.9268 20.0039 11.394L0.624983 30.7729C0.224772 31.1739 0 31.7173 0 32.2838C0 32.8503 0.224772 33.3937 0.624983 33.7947L5.37088 38.5352C5.75335 38.9125 6.2633 39.1329 6.80019 39.1527C7.33708 39.1726 7.86194 38.9906 8.27127 38.6427C8.90171 38.1004 9.71379 37.8164 10.5448 37.8476C11.3757 37.8788 12.1642 38.2229 12.7522 38.8109C13.3402 39.3989 13.6843 40.1874 13.7155 41.0184C13.7467 41.8494 13.4627 42.6614 12.9205 43.2919C12.5725 43.7012 12.3905 44.2261 12.4104 44.7629C12.4303 45.2998 12.6506 45.8098 13.0279 46.1923L17.7684 50.9328C18.1694 51.333 18.7128 51.5578 19.2793 51.5578C19.8459 51.5578 20.3892 51.333 20.7902 50.9328L40.1691 31.5539C40.6361 31.0862 40.9883 30.5166 41.1982 29.8899C41.2389 29.769 41.3069 29.6591 41.3971 29.5689C41.4874 29.4787 41.5972 29.4106 41.7181 29.37C42.3447 29.1604 42.9142 28.8085 43.3821 28.342L50.9382 20.7848C51.3369 20.3839 51.5607 19.8414 51.5605 19.2759C51.5603 18.7104 51.3361 18.168 50.9371 17.7674ZM26.4052 14.5823C26.2456 14.7419 26.0561 14.8686 25.8475 14.955C25.639 15.0414 25.4154 15.0859 25.1897 15.0859C24.9639 15.0859 24.7404 15.0414 24.5319 14.955C24.3233 14.8686 24.1338 14.7419 23.9742 14.5823L22.7378 13.3459C22.4233 13.0219 22.2489 12.5872 22.2523 12.1358C22.2557 11.6843 22.4366 11.2523 22.7559 10.9331C23.0753 10.6139 23.5074 10.4332 23.9588 10.43C24.4103 10.4268 24.8449 10.6014 25.1687 10.916L26.4052 12.1513C26.5648 12.311 26.6914 12.5004 26.7778 12.709C26.8642 12.9176 26.9087 13.1411 26.9087 13.3668C26.9087 13.5926 26.8642 13.8161 26.7778 14.0247C26.6914 14.2332 26.5648 14.4227 26.4052 14.5823ZM31.1317 19.3089C30.8094 19.631 30.3724 19.8119 29.9168 19.8119C29.4611 19.8119 29.0241 19.631 28.7018 19.3089L27.5202 18.1272C27.3606 17.9676 27.234 17.7781 27.1476 17.5696C27.0612 17.361 27.0167 17.1375 27.0167 16.9117C27.0167 16.686 27.0612 16.4625 27.1476 16.2539C27.234 16.0454 27.3606 15.8559 27.5202 15.6963C27.8426 15.3739 28.2798 15.1928 28.7357 15.1928C28.9614 15.1928 29.1849 15.2373 29.3935 15.3237C29.602 15.41 29.7915 15.5367 29.9512 15.6963L31.1328 16.8779C31.293 17.0375 31.4201 17.2271 31.5069 17.436C31.5937 17.6448 31.6384 17.8687 31.6385 18.0948C31.6386 18.3209 31.5941 18.5448 31.5075 18.7537C31.4209 18.9626 31.2939 19.1524 31.1339 19.3121L31.1317 19.3089ZM35.8583 24.0354C35.6987 24.1951 35.5092 24.3217 35.3006 24.4081C35.0921 24.4945 34.8685 24.539 34.6428 24.539C34.4171 24.539 34.1935 24.4945 33.985 24.4081C33.7764 24.3217 33.5869 24.1951 33.4273 24.0354L32.2457 22.8538C31.9312 22.5298 31.7568 22.0952 31.7602 21.6437C31.7636 21.1922 31.9445 20.7602 32.2638 20.441C32.5832 20.1218 33.0153 19.9411 33.4667 19.9379C33.9182 19.9347 34.3528 20.1093 34.6766 20.4239L35.8583 21.6055C36.0189 21.7649 36.1465 21.9544 36.2338 22.1631C36.321 22.3719 36.3662 22.5958 36.3667 22.8221C36.3672 23.0483 36.323 23.2724 36.2367 23.4816C36.1504 23.6907 36.0236 23.8808 35.8637 24.0408L35.8583 24.0354ZM40.631 28.82C40.4714 28.9796 40.2819 29.1063 40.0734 29.1927C39.8648 29.2791 39.6413 29.3235 39.4156 29.3235C39.1898 29.3235 38.9663 29.2791 38.7577 29.1927C38.5492 29.1063 38.3597 28.9796 38.2001 28.82L36.9712 27.5846C36.8082 27.4255 36.6784 27.2356 36.5895 27.0259C36.5006 26.8161 36.4542 26.5908 36.4531 26.363C36.452 26.1353 36.4963 25.9095 36.5832 25.699C36.6701 25.4884 36.798 25.2972 36.9595 25.1365C37.1209 24.9759 37.3127 24.8489 37.5237 24.763C37.7347 24.6771 37.9606 24.634 38.1884 24.6362C38.4162 24.6384 38.6413 24.6858 38.8506 24.7758C39.0599 24.8657 39.2492 24.9964 39.4075 25.1601L40.6375 26.3944C40.7971 26.5541 40.9236 26.7436 41.0099 26.9522C41.0962 27.1608 41.1406 27.3844 41.1405 27.6101C41.1404 27.8359 41.0958 28.0594 41.0093 28.2679C40.9228 28.4764 40.7961 28.6658 40.6364 28.8254L40.631 28.82Z" fill="#9290C3"/>
</svg>
