<svg width="41" height="41" viewBox="0 0 41 41" fill="none" xmlns="http://www.w3.org/2000/svg">
<path d="M20.75 0.25C15.3794 0.25 10.2287 2.38348 6.43109 6.18109C2.63348 9.9787 0.5 15.1294 0.5 20.5C0.5 25.8706 2.63348 31.0213 6.43109 34.8189C10.2287 38.6165 15.3794 40.75 20.75 40.75C26.1206 40.75 31.2713 38.6165 35.0689 34.8189C38.8665 31.0213 41 25.8706 41 20.5C41 15.1294 38.8665 9.9787 35.0689 6.18109C31.2713 2.38348 26.1206 0.25 20.75 0.25ZM2.9975 22.03H8.645C8.735 24.0775 9.02075 26.1115 9.5 28.105H4.64C3.73554 26.1938 3.17932 24.1366 2.9975 22.03ZM22.28 9.88V2.9275C24.4483 3.7515 26.23 5.35665 27.275 7.4275C27.737 8.209 28.142 9.019 28.49 9.8575L22.28 9.88ZM29.525 12.9175C30.047 14.9043 30.3575 16.9405 30.4475 18.9925H22.28V12.9175H29.525ZM19.22 2.9275V9.88H13.01C13.3569 9.04222 13.7629 8.23017 14.225 7.45C15.2656 5.37067 17.0478 3.75699 19.22 2.9275ZM19.22 12.9175V18.9925H11.075C11.165 16.9405 11.4755 14.9043 11.9975 12.9175H19.22ZM8.645 18.97H2.9975C3.17932 16.8634 3.73554 14.8062 4.64 12.895H9.5C9.01802 14.8874 8.73166 16.922 8.645 18.97ZM11.075 22.03H19.22V28.105H11.9975C11.4776 26.118 11.1684 24.0818 11.075 22.03ZM19.2425 31.03V37.9825C17.0742 37.1585 15.2925 35.5533 14.2475 33.4825C13.7854 32.7023 13.3794 31.8903 13.0325 31.0525L19.2425 31.03ZM22.28 37.9825V31.1425H28.49C28.1431 31.9803 27.7371 32.7923 27.275 33.5725C26.23 35.6433 24.4483 37.2485 22.28 38.0725V37.9825ZM22.28 27.9925V21.9175H30.425C30.3316 23.9693 30.0224 26.0055 29.5025 27.9925H22.28ZM32.8775 21.9175H38.525C38.3432 24.0241 37.787 26.0813 36.8825 27.9925H32C32.4725 26.035 32.7583 24.0393 32.855 22.03L32.8775 21.9175ZM32.8775 18.88C32.7762 16.869 32.4824 14.8724 32 12.9175H36.86C37.7667 14.83 38.3225 16.8865 38.5025 18.9925L32.8775 18.88ZM35.1275 9.88H31.1C30.372 7.83285 29.3157 5.91781 27.9725 4.21C30.7724 5.4668 33.2044 7.41861 35.0375 9.88H35.1275ZM13.5275 4.21C12.1843 5.91781 11.128 7.83285 10.4 9.88H6.4625C8.29562 7.41861 10.7276 5.4668 13.5275 4.21ZM6.44 31.21H10.4C11.128 33.2572 12.1843 35.1722 13.5275 36.88C10.7199 35.6043 8.28713 33.6286 6.4625 31.1425L6.44 31.21ZM27.95 36.88C29.2932 35.1722 30.3495 33.2572 31.0775 31.21H35.0375C33.1932 33.6384 30.7621 35.5585 27.9725 36.79L27.95 36.88Z" fill="#9290C3"/>
</svg>
