<svg width="45" height="70" viewBox="0 0 45 70" fill="none" xmlns="http://www.w3.org/2000/svg">
<path d="M42.9422 18.9683C42.4514 16.0941 41.0057 13.8305 39.17 13.0624C35.8426 11.6665 22.5004 11.6665 22.5004 11.6665C22.5004 11.6665 9.15816 11.6665 5.83074 13.0624C3.99504 13.8307 2.54926 16.0941 2.05855 18.9683C1.16699 24.1778 1.16699 35.047 1.16699 35.047C1.16699 35.047 1.16699 45.9162 2.05855 51.1257C2.54926 53.9999 3.99504 56.1691 5.83074 56.9373C9.15816 58.3332 22.5004 58.3332 22.5004 58.3332C22.5004 58.3332 35.8425 58.3332 39.17 56.9373C41.0057 56.1691 42.4514 53.9999 42.9422 51.1257C43.8337 45.9162 43.8337 35.047 43.8337 35.047C43.8337 35.047 43.8337 24.1778 42.9422 18.9683ZM18.1367 44.9154V25.1786L29.2882 35.0472L18.1367 44.9154Z" fill="white"/>
</svg>
